0
SECTION
2
HEADER
9
$INSUNITS
70
4
0
ENDSEC
0
SECTION
2
TABLES
0
TABLE
2
LTYPE
0
LTYPE
72
65
70
64
2
CONTINUOUS
3
______
73
0
40
0
0
ENDTAB
0
TABLE
2
LAYER
0
ENDTAB
0
ENDSEC
0
SECTION
2
ENTITIES
0
LINE
8
0
10
131.0317133
20
-130.575
11
40.975
21
-130.575
0
LINE
8
0
10
38.475
20
-128.075
11
38.475
21
-33.4819415
0
LINE
8
0
10
40.6086578
20
-31.0089286
11
95.2928227
21
-22.908237
0
LINE
8
0
10
95.659165
20
-22.88125
11
118.3268287
21
-22.88125
0
LINE
8
0
10
118.7206964
20
-22.9124713
11
155.9026369
21
-28.8444585
0
LINE
8
0
10
157.025916
20
-29.3262129
11
168.3281499
21
-37.9557743
0
LINE
8
0
10
169.8452967
20
-38.46875
11
187.84346
21
-38.46875
0
LINE
8
0
10
189.4660643
20
-39.066868
11
194.6976043
21
-43.5301936
0
LINE
8
0
10
195.575
20
-45.4320756
11
195.575
21
-117.9095516
0
LINE
8
0
10
195.2453416
20
-119.1503649
11
175.838619
21
-153.0952132
0
LINE
8
0
10
172.420842
20
-154.020942
11
132.2791487
21
-130.9084579
0
ARC
8
0
10
40.975
20
-128.075
40
2.5
50
180
51
270
0
ARC
8
0
10
40.975
20
-33.4819415
40
2.5
50
98.4262878
51
180
0
ARC
8
0
10
95.659165
20
-25.38125
40
2.5
50
90
51
98.4262878
0
ARC
8
0
10
118.3268287
20
-25.38125
40
2.5
50
80.9354505
51
90
0
ARC
8
0
10
155.5087692
20
-31.3132372
40
2.5
50
52.6372872
51
80.9354505
0
ARC
8
0
10
169.8452967
20
-35.96875
40
2.5
50
232.6372872
51
270
0
ARC
8
0
10
187.84346
20
-40.96875
40
2.5
50
49.5306097
51
90
0
ARC
8
0
10
193.075
20
-45.4320756
40
2.5
50
0
51
49.5306097
0
ARC
8
0
10
193.075
20
-117.9095516
40
2.5
50
330.2428192
51
0
0
ARC
8
0
10
173.6682774
20
-151.8543999
40
2.5
50
240.0678449
51
330.2428192
0
ARC
8
0
10
131.0317133
20
-133.075
40
2.5
50
60.0678449
51
90
0
CIRCLE
8
0
10
187.8125
20
-44.27875
40
1.1
0
CIRCLE
8
0
10
179.24
20
-105.23875
40
1.1
0
CIRCLE
8
0
10
190.67
20
-111.90625
40
1.1
0
CIRCLE
8
0
10
59.525
20
-109.525
40
1.1
0
CIRCLE
8
0
10
59.525
20
-52.375
40
1.1
0
CIRCLE
8
0
10
93.715
20
-27.61
40
1.1
0
CIRCLE
8
0
10
97.025
20
-66.6625
40
1.1
0
CIRCLE
8
0
10
97.025
20
-104.7625
40
1.1
0
CIRCLE
8
0
10
158.335
20
-38.56375
40
1.1
0
CIRCLE
8
0
10
149.6508123
20
-114.3650796
40
1.1
0
ENDSEC
0
EOF