0
SECTION
2
HEADER
9
$INSUNITS
70
4
0
ENDSEC
0
SECTION
2
TABLES
0
TABLE
2
LTYPE
0
LTYPE
72
65
70
64
2
CONTINUOUS
3
______
73
0
40
0
0
ENDTAB
0
TABLE
2
LAYER
0
ENDTAB
0
ENDSEC
0
SECTION
2
ENTITIES
0
LINE
8
0
10
131.0317133
20
-130.575
11
40.975
21
-130.575
0
LINE
8
0
10
38.475
20
-128.075
11
38.475
21
-33.4819415
0
LINE
8
0
10
40.6086578
20
-31.0089286
11
95.2928227
21
-22.908237
0
LINE
8
0
10
95.659165
20
-22.88125
11
118.3268287
21
-22.88125
0
LINE
8
0
10
118.7206964
20
-22.9124713
11
155.9026369
21
-28.8444585
0
LINE
8
0
10
157.025916
20
-29.3262129
11
168.3281499
21
-37.9557743
0
LINE
8
0
10
169.8452967
20
-38.46875
11
174.9725
21
-38.46875
0
LINE
8
0
10
186.6125
20
-38.46875
11
187.84346
21
-38.46875
0
LINE
8
0
10
189.4660642
20
-39.0668679
11
194.6976043
21
-43.5301936
0
LINE
8
0
10
195.575
20
-45.4320756
11
195.575
21
-50.99375
0
LINE
8
0
10
195.575
20
-60.99375
11
195.575
21
-87.19375
0
LINE
8
0
10
195.575
20
-107.59375
11
195.575
21
-117.9095516
0
LINE
8
0
10
195.2453416
20
-119.1503649
11
175.838619
21
-153.0952132
0
LINE
8
0
10
172.420842
20
-154.020942
11
132.2791487
21
-130.9084579
0
ARC
8
0
10
40.975
20
-128.075
40
2.5
50
180
51
270
0
ARC
8
0
10
40.975
20
-33.4819415
40
2.5
50
98.4262878
51
180
0
ARC
8
0
10
95.659165
20
-25.38125
40
2.5
50
90
51
98.4262878
0
ARC
8
0
10
118.3268287
20
-25.38125
40
2.5
50
80.9354505
51
90
0
ARC
8
0
10
155.5087692
20
-31.3132372
40
2.5
50
52.6372872
51
80.9354505
0
ARC
8
0
10
169.8452967
20
-35.96875
40
2.5
50
232.6372872
51
270
0
ARC
8
0
10
187.84346
20
-40.96875
40
2.5
50
49.5306116
51
90
0
ARC
8
0
10
193.075
20
-45.4320756
40
2.5
50
0
51
49.5306097
0
ARC
8
0
10
193.075
20
-117.9095516
40
2.5
50
330.2428206
51
0
0
ARC
8
0
10
173.6682774
20
-151.8543999
40
2.5
50
240.0678449
51
330.2428192
0
ARC
8
0
10
131.0317133
20
-133.075
40
2.5
50
60.0678449
51
90
0
LINE
8
0
10
175.9725
20
-47.8789
11
185.6125
21
-47.8789
0
LINE
8
0
10
186.1125
20
-47.3789
11
186.1125
21
-38.96875
0
LINE
8
0
10
175.4725
20
-38.96875
11
175.4725
21
-47.3789
0
LINE
8
0
10
181.75
20
-107.09375
11
195.075
21
-107.09375
0
LINE
8
0
10
189.05
20
-98.69375
11
181.75
21
-98.69375
0
LINE
8
0
10
181.25
20
-99.19375
11
181.25
21
-103.7521768
0
LINE
8
0
10
195.075
20
-87.69375
11
190.05
21
-87.69375
0
LINE
8
0
10
189.55
20
-88.19375
11
189.55
21
-98.19375
0
LINE
8
0
10
190.05
20
-60.49375
11
195.075
21
-60.49375
0
LINE
8
0
10
195.075
20
-51.49375
11
190.05
21
-51.49375
0
LINE
8
0
10
189.55
20
-51.99375
11
189.55
21
-59.99375
0
ARC
8
0
10
174.9725
20
-38.96875
40
0.5
50
0
51
90
0
ARC
8
0
10
175.9725
20
-47.3789
40
0.5
50
180
51
270
0
ARC
8
0
10
185.6125
20
-47.3789
40
0.5
50
270
51
0
0
ARC
8
0
10
186.6125
20
-38.96875
40
0.5
50
90
51
180
0
ARC
8
0
10
189.1415434
20
-39.4472443
40
0.5
50
49.5306097
51
49.5306116
0
ARC
8
0
10
195.075
20
-50.99375
40
0.5
50
270
51
0
0
ARC
8
0
10
190.05
20
-51.99375
40
0.5
50
90
51
180
0
ARC
8
0
10
190.05
20
-59.99375
40
0.5
50
180
51
270
0
ARC
8
0
10
195.075
20
-60.99375
40
0.5
50
0
51
90
0
ARC
8
0
10
195.075
20
-87.19375
40
0.5
50
270
51
0
0
ARC
8
0
10
190.05
20
-88.19375
40
0.5
50
90
51
180
0
ARC
8
0
10
189.05
20
-98.19375
40
0.5
50
270
51
0
0
ARC
8
0
10
181.75
20
-99.19375
40
0.5
50
90
51
180
0
ARC
8
0
10
181.75
20
-106.59375
40
0.5
50
193.1437418
51
270
0
ARC
8
0
10
195.075
20
-107.59375
40
0.5
50
0
51
90
0
ARC
8
0
10
194.8112733
20
-118.9022022
40
0.5
50
330.2428192
51
330.2428206
0
CIRCLE
8
0
10
190.67
20
-46.67875
40
2.5
0
ARC
8
0
10
179.24
20
-105.23875
40
2.5
50
36.4862092
51
324.0216904
0
CIRCLE
8
0
10
190.67
20
-111.90625
40
2.5
0
ARC
8
0
10
59.525
20
-109.525
40
2.5
50
96.3153155
51
418.2116698
0
ARC
8
0
10
59.525
20
-52.375
40
2.5
50
96.3153155
51
418.2116698
0
CIRCLE
8
0
10
93.715
20
-27.61
40
2.5
0
CIRCLE
8
0
10
97.025
20
-66.6625
40
2.5
0
CIRCLE
8
0
10
97.025
20
-104.7625
40
2.5
0
CIRCLE
8
0
10
158.335
20
-38.56375
40
2.5
0
ARC
8
0
10
149.6508123
20
-114.3650796
40
2.5
50
337.2522289
51
682.7477703
0
LINE
8
0
10
40.25
20
-107.4
11
47
21
-107.4
0
LINE
8
0
10
53
20
-107.4
11
57.25
21
-107.4
0
LINE
8
0
10
57.25
20
-107.4
11
57.25
21
-97.4
0
LINE
8
0
10
57.25
20
-97.4
11
53.4
21
-97.4
0
LINE
8
0
10
46.6
20
-97.4
11
40.25
21
-97.4
0
LINE
8
0
10
40.25
20
-97.4
11
40.25
21
-107.4
0
LINE
8
0
10
40.25
20
-88.35
11
47
21
-88.35
0
LINE
8
0
10
53
20
-88.35
11
57.25
21
-88.35
0
LINE
8
0
10
57.25
20
-88.35
11
57.25
21
-78.35
0
LINE
8
0
10
57.25
20
-78.35
11
53.4
21
-78.35
0
LINE
8
0
10
46.6
20
-78.35
11
40.25
21
-78.35
0
LINE
8
0
10
40.25
20
-78.35
11
40.25
21
-88.35
0
LINE
8
0
10
40.25
20
-69.3
11
47
21
-69.3
0
LINE
8
0
10
53
20
-69.3
11
57.25
21
-69.3
0
LINE
8
0
10
57.25
20
-69.3
11
57.25
21
-59.3
0
LINE
8
0
10
57.25
20
-59.3
11
53.4
21
-59.3
0
LINE
8
0
10
46.6
20
-59.3
11
40.25
21
-59.3
0
LINE
8
0
10
40.25
20
-59.3
11
40.25
21
-69.3
0
LINE
8
0
10
40.25
20
-50.25
11
47
21
-50.25
0
LINE
8
0
10
53
20
-50.25
11
57.25
21
-50.25
0
LINE
8
0
10
57.25
20
-50.25
11
57.25
21
-40.25
0
LINE
8
0
10
57.25
20
-40.25
11
53.4
21
-40.25
0
LINE
8
0
10
46.6
20
-40.25
11
40.25
21
-40.25
0
LINE
8
0
10
40.25
20
-40.25
11
40.25
21
-50.25
0
LINE
8
0
10
60.8419567
20
-107.4
11
66
21
-107.4
0
LINE
8
0
10
72
20
-107.4
11
76.25
21
-107.4
0
LINE
8
0
10
76.25
20
-107.4
11
76.25
21
-97.4
0
LINE
8
0
10
76.25
20
-97.4
11
72.4
21
-97.4
0
LINE
8
0
10
65.6
20
-97.4
11
59.25
21
-97.4
0
LINE
8
0
10
59.25
20
-97.4
11
59.25
21
-107.040171
0
LINE
8
0
10
59.25
20
-88.35
11
66
21
-88.35
0
LINE
8
0
10
72
20
-88.35
11
76.25
21
-88.35
0
LINE
8
0
10
76.25
20
-88.35
11
76.25
21
-78.35
0
LINE
8
0
10
76.25
20
-78.35
11
72.4
21
-78.35
0
LINE
8
0
10
65.6
20
-78.35
11
59.25
21
-78.35
0
LINE
8
0
10
59.25
20
-78.35
11
59.25
21
-88.35
0
LINE
8
0
10
59.25
20
-69.3
11
66
21
-69.3
0
LINE
8
0
10
72
20
-69.3
11
76.25
21
-69.3
0
LINE
8
0
10
76.25
20
-69.3
11
76.25
21
-59.3
0
LINE
8
0
10
76.25
20
-59.3
11
72.4
21
-59.3
0
LINE
8
0
10
65.6
20
-59.3
11
59.25
21
-59.3
0
LINE
8
0
10
59.25
20
-59.3
11
59.25
21
-69.3
0
LINE
8
0
10
60.8419567
20
-50.25
11
66
21
-50.25
0
LINE
8
0
10
72
20
-50.25
11
76.25
21
-50.25
0
LINE
8
0
10
76.25
20
-50.25
11
76.25
21
-40.25
0
LINE
8
0
10
76.25
20
-40.25
11
72.4
21
-40.25
0
LINE
8
0
10
65.6
20
-40.25
11
59.25
21
-40.25
0
LINE
8
0
10
59.25
20
-40.25
11
59.25
21
-49.890171
0
LINE
8
0
10
78.25
20
-102.6375
11
85
21
-102.6375
0
LINE
8
0
10
91
20
-102.6375
11
95.25
21
-102.6375
0
LINE
8
0
10
95.25
20
-102.6375
11
95.25
21
-92.6375
0
LINE
8
0
10
95.25
20
-92.6375
11
91.4
21
-92.6375
0
LINE
8
0
10
84.6
20
-92.6375
11
78.25
21
-92.6375
0
LINE
8
0
10
78.25
20
-92.6375
11
78.25
21
-102.6375
0
LINE
8
0
10
78.25
20
-83.5875
11
85
21
-83.5875
0
LINE
8
0
10
91
20
-83.5875
11
95.25
21
-83.5875
0
LINE
8
0
10
95.25
20
-83.5875
11
95.25
21
-73.5875
0
LINE
8
0
10
95.25
20
-73.5875
11
91.4
21
-73.5875
0
LINE
8
0
10
84.6
20
-73.5875
11
78.25
21
-73.5875
0
LINE
8
0
10
78.25
20
-73.5875
11
78.25
21
-83.5875
0
LINE
8
0
10
78.25
20
-64.5375
11
85
21
-64.5375
0
LINE
8
0
10
91
20
-64.5375
11
95.25
21
-64.5375
0
LINE
8
0
10
95.25
20
-64.5375
11
95.25
21
-54.5375
0
LINE
8
0
10
95.25
20
-54.5375
11
91.4
21
-54.5375
0
LINE
8
0
10
84.6
20
-54.5375
11
78.25
21
-54.5375
0
LINE
8
0
10
78.25
20
-54.5375
11
78.25
21
-64.5375
0
LINE
8
0
10
78.25
20
-45.4875
11
85
21
-45.4875
0
LINE
8
0
10
91
20
-45.4875
11
95.25
21
-45.4875
0
LINE
8
0
10
95.25
20
-45.4875
11
95.25
21
-35.4875
0
LINE
8
0
10
95.25
20
-35.4875
11
91.4
21
-35.4875
0
LINE
8
0
10
84.6
20
-35.4875
11
78.25
21
-35.4875
0
LINE
8
0
10
78.25
20
-35.4875
11
78.25
21
-45.4875
0
LINE
8
0
10
97.25
20
-100.25625
11
104
21
-100.25625
0
LINE
8
0
10
110
20
-100.25625
11
114.25
21
-100.25625
0
LINE
8
0
10
114.25
20
-100.25625
11
114.25
21
-90.25625
0
LINE
8
0
10
114.25
20
-90.25625
11
110.4
21
-90.25625
0
LINE
8
0
10
103.6
20
-90.25625
11
97.25
21
-90.25625
0
LINE
8
0
10
97.25
20
-90.25625
11
97.25
21
-100.25625
0
LINE
8
0
10
97.25
20
-81.20625
11
104
21
-81.20625
0
LINE
8
0
10
110
20
-81.20625
11
114.25
21
-81.20625
0
LINE
8
0
10
114.25
20
-81.20625
11
114.25
21
-71.20625
0
LINE
8
0
10
114.25
20
-71.20625
11
110.4
21
-71.20625
0
LINE
8
0
10
103.6
20
-71.20625
11
97.25
21
-71.20625
0
LINE
8
0
10
97.25
20
-71.20625
11
97.25
21
-81.20625
0
LINE
8
0
10
97.25
20
-62.15625
11
104
21
-62.15625
0
LINE
8
0
10
110
20
-62.15625
11
114.25
21
-62.15625
0
LINE
8
0
10
114.25
20
-62.15625
11
114.25
21
-52.15625
0
LINE
8
0
10
114.25
20
-52.15625
11
110.4
21
-52.15625
0
LINE
8
0
10
103.6
20
-52.15625
11
97.25
21
-52.15625
0
LINE
8
0
10
97.25
20
-52.15625
11
97.25
21
-62.15625
0
LINE
8
0
10
97.25
20
-43.10625
11
104
21
-43.10625
0
LINE
8
0
10
110
20
-43.10625
11
114.25
21
-43.10625
0
LINE
8
0
10
114.25
20
-43.10625
11
114.25
21
-33.10625
0
LINE
8
0
10
114.25
20
-33.10625
11
110.4
21
-33.10625
0
LINE
8
0
10
103.6
20
-33.10625
11
97.25
21
-33.10625
0
LINE
8
0
10
97.25
20
-33.10625
11
97.25
21
-43.10625
0
LINE
8
0
10
116.25
20
-102.6375
11
123
21
-102.6375
0
LINE
8
0
10
129
20
-102.6375
11
133.25
21
-102.6375
0
LINE
8
0
10
133.25
20
-102.6375
11
133.25
21
-92.6375
0
LINE
8
0
10
133.25
20
-92.6375
11
129.4
21
-92.6375
0
LINE
8
0
10
122.6
20
-92.6375
11
116.25
21
-92.6375
0
LINE
8
0
10
116.25
20
-92.6375
11
116.25
21
-102.6375
0
LINE
8
0
10
116.25
20
-83.5875
11
123
21
-83.5875
0
LINE
8
0
10
129
20
-83.5875
11
133.25
21
-83.5875
0
LINE
8
0
10
133.25
20
-83.5875
11
133.25
21
-73.5875
0
LINE
8
0
10
133.25
20
-73.5875
11
129.4
21
-73.5875
0
LINE
8
0
10
122.6
20
-73.5875
11
116.25
21
-73.5875
0
LINE
8
0
10
116.25
20
-73.5875
11
116.25
21
-83.5875
0
LINE
8
0
10
116.25
20
-64.5375
11
123
21
-64.5375
0
LINE
8
0
10
129
20
-64.5375
11
133.25
21
-64.5375
0
LINE
8
0
10
133.25
20
-64.5375
11
133.25
21
-54.5375
0
LINE
8
0
10
133.25
20
-54.5375
11
129.4
21
-54.5375
0
LINE
8
0
10
122.6
20
-54.5375
11
116.25
21
-54.5375
0
LINE
8
0
10
116.25
20
-54.5375
11
116.25
21
-64.5375
0
LINE
8
0
10
116.25
20
-45.4875
11
123
21
-45.4875
0
LINE
8
0
10
129
20
-45.4875
11
133.25
21
-45.4875
0
LINE
8
0
10
133.25
20
-45.4875
11
133.25
21
-35.4875
0
LINE
8
0
10
133.25
20
-35.4875
11
129.4
21
-35.4875
0
LINE
8
0
10
122.6
20
-35.4875
11
116.25
21
-35.4875
0
LINE
8
0
10
116.25
20
-35.4875
11
116.25
21
-45.4875
0
LINE
8
0
10
135.25
20
-105.01875
11
142
21
-105.01875
0
LINE
8
0
10
148
20
-105.01875
11
152.25
21
-105.01875
0
LINE
8
0
10
152.25
20
-105.01875
11
152.25
21
-95.01875
0
LINE
8
0
10
152.25
20
-95.01875
11
148.4
21
-95.01875
0
LINE
8
0
10
141.6
20
-95.01875
11
135.25
21
-95.01875
0
LINE
8
0
10
135.25
20
-95.01875
11
135.25
21
-105.01875
0
LINE
8
0
10
135.25
20
-85.96875
11
142
21
-85.96875
0
LINE
8
0
10
148
20
-85.96875
11
152.25
21
-85.96875
0
LINE
8
0
10
152.25
20
-85.96875
11
152.25
21
-75.96875
0
LINE
8
0
10
152.25
20
-75.96875
11
148.4
21
-75.96875
0
LINE
8
0
10
141.6
20
-75.96875
11
135.25
21
-75.96875
0
LINE
8
0
10
135.25
20
-75.96875
11
135.25
21
-85.96875
0
LINE
8
0
10
135.25
20
-66.91875
11
142
21
-66.91875
0
LINE
8
0
10
148
20
-66.91875
11
152.25
21
-66.91875
0
LINE
8
0
10
152.25
20
-66.91875
11
152.25
21
-56.91875
0
LINE
8
0
10
152.25
20
-56.91875
11
148.4
21
-56.91875
0
LINE
8
0
10
141.6
20
-56.91875
11
135.25
21
-56.91875
0
LINE
8
0
10
135.25
20
-56.91875
11
135.25
21
-66.91875
0
LINE
8
0
10
135.25
20
-47.86875
11
142
21
-47.86875
0
LINE
8
0
10
148
20
-47.86875
11
152.25
21
-47.86875
0
LINE
8
0
10
152.25
20
-47.86875
11
152.25
21
-37.86875
0
LINE
8
0
10
152.25
20
-37.86875
11
148.4
21
-37.86875
0
LINE
8
0
10
141.6
20
-37.86875
11
135.25
21
-37.86875
0
LINE
8
0
10
135.25
20
-37.86875
11
135.25
21
-47.86875
0
LINE
8
0
10
154.25
20
-95.49375
11
161
21
-95.49375
0
LINE
8
0
10
167
20
-95.49375
11
171.25
21
-95.49375
0
LINE
8
0
10
171.25
20
-95.49375
11
171.25
21
-85.49375
0
LINE
8
0
10
171.25
20
-85.49375
11
167.4
21
-85.49375
0
LINE
8
0
10
160.6
20
-85.49375
11
154.25
21
-85.49375
0
LINE
8
0
10
154.25
20
-85.49375
11
154.25
21
-95.49375
0
LINE
8
0
10
154.25
20
-76.44375
11
161
21
-76.44375
0
LINE
8
0
10
167
20
-76.44375
11
171.25
21
-76.44375
0
LINE
8
0
10
171.25
20
-76.44375
11
171.25
21
-66.44375
0
LINE
8
0
10
171.25
20
-66.44375
11
167.4
21
-66.44375
0
LINE
8
0
10
160.6
20
-66.44375
11
154.25
21
-66.44375
0
LINE
8
0
10
154.25
20
-66.44375
11
154.25
21
-76.44375
0
LINE
8
0
10
154.25
20
-57.39375
11
161
21
-57.39375
0
LINE
8
0
10
167
20
-57.39375
11
171.25
21
-57.39375
0
LINE
8
0
10
171.25
20
-57.39375
11
171.25
21
-47.39375
0
LINE
8
0
10
171.25
20
-47.39375
11
167.4
21
-47.39375
0
LINE
8
0
10
160.6
20
-47.39375
11
154.25
21
-47.39375
0
LINE
8
0
10
154.25
20
-47.39375
11
154.25
21
-57.39375
0
LINE
8
0
10
40.25
20
-126.45
11
47
21
-126.45
0
LINE
8
0
10
53
20
-126.45
11
57.25
21
-126.45
0
LINE
8
0
10
57.25
20
-126.45
11
57.25
21
-116.45
0
LINE
8
0
10
57.25
20
-116.45
11
53.4
21
-116.45
0
LINE
8
0
10
46.6
20
-116.45
11
40.25
21
-116.45
0
LINE
8
0
10
40.25
20
-116.45
11
40.25
21
-126.45
0
LINE
8
0
10
59.25
20
-126.45
11
66
21
-126.45
0
LINE
8
0
10
72
20
-126.45
11
76.25
21
-126.45
0
LINE
8
0
10
76.25
20
-126.45
11
76.25
21
-116.45
0
LINE
8
0
10
76.25
20
-116.45
11
72.4
21
-116.45
0
LINE
8
0
10
65.6
20
-116.45
11
59.25
21
-116.45
0
LINE
8
0
10
59.25
20
-116.45
11
59.25
21
-126.45
0
LINE
8
0
10
78.25
20
-121.6875
11
85
21
-121.6875
0
LINE
8
0
10
91
20
-121.6875
11
95.25
21
-121.6875
0
LINE
8
0
10
95.25
20
-121.6875
11
95.25
21
-111.6875
0
LINE
8
0
10
95.25
20
-111.6875
11
91.4
21
-111.6875
0
LINE
8
0
10
84.6
20
-111.6875
11
78.25
21
-111.6875
0
LINE
8
0
10
78.25
20
-111.6875
11
78.25
21
-121.6875
0
LINE
8
0
10
97.25
20
-119.30625
11
104
21
-119.30625
0
LINE
8
0
10
110
20
-119.30625
11
114.25
21
-119.30625
0
LINE
8
0
10
114.25
20
-119.30625
11
114.25
21
-109.30625
0
LINE
8
0
10
114.25
20
-109.30625
11
110.4
21
-109.30625
0
LINE
8
0
10
103.6
20
-109.30625
11
97.25
21
-109.30625
0
LINE
8
0
10
97.25
20
-109.30625
11
97.25
21
-119.30625
0
LINE
8
0
10
125.2362523
20
-122.012338
11
131.0819238
21
-125.387338
0
LINE
8
0
10
136.2780762
20
-128.387338
11
139.9586841
21
-130.512338
0
LINE
8
0
10
139.9586841
20
-130.512338
11
144.9586841
21
-121.852084
0
LINE
8
0
10
144.9586841
20
-121.852084
11
141.6244863
21
-119.927084
0
LINE
8
0
10
135.7355136
20
-116.527084
11
130.2362523
21
-113.352084
0
LINE
8
0
10
130.2362523
20
-113.352084
11
125.2362523
21
-122.012338
0
LINE
8
0
10
160.1305707
20
-133.8736057
11
163.5055707
21
-128.0279342
0
LINE
8
0
10
166.5055707
20
-122.8317818
11
168.6305707
21
-119.1511739
0
LINE
8
0
10
168.6305707
20
-119.1511739
11
164.8633602
21
-116.9761739
0
LINE
8
0
10
156.3633602
20
-131.6986057
11
160.1305707
21
-133.8736057
0
LINE
8
0
10
158.2318202
20
-141.062338
11
164.0774917
21
-144.437338
0
LINE
8
0
10
169.2736441
20
-147.437338
11
172.954252
21
-149.562338
0
LINE
8
0
10
172.954252
20
-149.562338
11
177.954252
21
-140.902084
0
LINE
8
0
10
177.954252
20
-140.902084
11
174.6200542
21
-138.977084
0
LINE
8
0
10
168.7310815
20
-135.577084
11
163.2318202
21
-132.402084
0
LINE
8
0
10
163.2318202
20
-132.402084
11
158.2318202
21
-141.062338
0
LINE
8
0
10
167.7568202
20
-124.5645541
11
173.6024917
21
-127.9395541
0
LINE
8
0
10
178.7986441
20
-130.9395541
11
182.479252
21
-133.0645541
0
LINE
8
0
10
182.479252
20
-133.0645541
11
187.479252
21
-124.4043001
0
LINE
8
0
10
187.479252
20
-124.4043001
11
184.1450542
21
-122.4793001
0
LINE
8
0
10
178.2560815
20
-119.0793001
11
172.7568202
21
-115.9043001
0
LINE
8
0
10
172.7568202
20
-115.9043001
11
167.7568202
21
-124.5645541
0
LINE
8
0
10
47
20
-108.95
11
53
21
-108.95
0
LINE
8
0
10
53
20
-108.95
11
53
21
-107.4
0
LINE
8
0
10
47
20
-107.4
11
47
21
-108.95
0
LINE
8
0
10
47
20
-89.9
11
53
21
-89.9
0
LINE
8
0
10
53
20
-89.9
11
53
21
-88.35
0
LINE
8
0
10
47
20
-88.35
11
47
21
-89.9
0
LINE
8
0
10
47
20
-70.85
11
53
21
-70.85
0
LINE
8
0
10
53
20
-70.85
11
53
21
-69.3
0
LINE
8
0
10
47
20
-69.3
11
47
21
-70.85
0
LINE
8
0
10
47
20
-51.8
11
53
21
-51.8
0
LINE
8
0
10
53
20
-51.8
11
53
21
-50.25
0
LINE
8
0
10
47
20
-50.25
11
47
21
-51.8
0
LINE
8
0
10
66
20
-108.95
11
72
21
-108.95
0
LINE
8
0
10
72
20
-108.95
11
72
21
-107.4
0
LINE
8
0
10
66
20
-107.4
11
66
21
-108.95
0
LINE
8
0
10
66
20
-89.9
11
72
21
-89.9
0
LINE
8
0
10
72
20
-89.9
11
72
21
-88.35
0
LINE
8
0
10
66
20
-88.35
11
66
21
-89.9
0
LINE
8
0
10
66
20
-70.85
11
72
21
-70.85
0
LINE
8
0
10
72
20
-70.85
11
72
21
-69.3
0
LINE
8
0
10
66
20
-69.3
11
66
21
-70.85
0
LINE
8
0
10
66
20
-51.8
11
72
21
-51.8
0
LINE
8
0
10
72
20
-51.8
11
72
21
-50.25
0
LINE
8
0
10
66
20
-50.25
11
66
21
-51.8
0
LINE
8
0
10
85
20
-104.1875
11
91
21
-104.1875
0
LINE
8
0
10
91
20
-104.1875
11
91
21
-102.6375
0
LINE
8
0
10
85
20
-102.6375
11
85
21
-104.1875
0
LINE
8
0
10
85
20
-85.1375
11
91
21
-85.1375
0
LINE
8
0
10
91
20
-85.1375
11
91
21
-83.5875
0
LINE
8
0
10
85
20
-83.5875
11
85
21
-85.1375
0
LINE
8
0
10
85
20
-66.0875
11
91
21
-66.0875
0
LINE
8
0
10
91
20
-66.0875
11
91
21
-64.5375
0
LINE
8
0
10
85
20
-64.5375
11
85
21
-66.0875
0
LINE
8
0
10
85
20
-47.0375
11
91
21
-47.0375
0
LINE
8
0
10
91
20
-47.0375
11
91
21
-45.4875
0
LINE
8
0
10
85
20
-45.4875
11
85
21
-47.0375
0
LINE
8
0
10
104
20
-101.80625
11
110
21
-101.80625
0
LINE
8
0
10
110
20
-101.80625
11
110
21
-100.25625
0
LINE
8
0
10
104
20
-100.25625
11
104
21
-101.80625
0
LINE
8
0
10
104
20
-82.75625
11
110
21
-82.75625
0
LINE
8
0
10
110
20
-82.75625
11
110
21
-81.20625
0
LINE
8
0
10
104
20
-81.20625
11
104
21
-82.75625
0
LINE
8
0
10
104
20
-63.70625
11
110
21
-63.70625
0
LINE
8
0
10
110
20
-63.70625
11
110
21
-62.15625
0
LINE
8
0
10
104
20
-62.15625
11
104
21
-63.70625
0
LINE
8
0
10
104
20
-44.65625
11
110
21
-44.65625
0
LINE
8
0
10
110
20
-44.65625
11
110
21
-43.10625
0
LINE
8
0
10
104
20
-43.10625
11
104
21
-44.65625
0
LINE
8
0
10
123
20
-104.1875
11
129
21
-104.1875
0
LINE
8
0
10
129
20
-104.1875
11
129
21
-102.6375
0
LINE
8
0
10
123
20
-102.6375
11
123
21
-104.1875
0
LINE
8
0
10
123
20
-85.1375
11
129
21
-85.1375
0
LINE
8
0
10
129
20
-85.1375
11
129
21
-83.5875
0
LINE
8
0
10
123
20
-83.5875
11
123
21
-85.1375
0
LINE
8
0
10
123
20
-66.0875
11
129
21
-66.0875
0
LINE
8
0
10
129
20
-66.0875
11
129
21
-64.5375
0
LINE
8
0
10
123
20
-64.5375
11
123
21
-66.0875
0
LINE
8
0
10
123
20
-47.0375
11
129
21
-47.0375
0
LINE
8
0
10
129
20
-47.0375
11
129
21
-45.4875
0
LINE
8
0
10
123
20
-45.4875
11
123
21
-47.0375
0
LINE
8
0
10
142
20
-106.56875
11
148
21
-106.56875
0
LINE
8
0
10
148
20
-106.56875
11
148
21
-105.01875
0
LINE
8
0
10
142
20
-105.01875
11
142
21
-106.56875
0
LINE
8
0
10
142
20
-87.51875
11
148
21
-87.51875
0
LINE
8
0
10
148
20
-87.51875
11
148
21
-85.96875
0
LINE
8
0
10
142
20
-85.96875
11
142
21
-87.51875
0
LINE
8
0
10
142
20
-68.46875
11
148
21
-68.46875
0
LINE
8
0
10
148
20
-68.46875
11
148
21
-66.91875
0
LINE
8
0
10
142
20
-66.91875
11
142
21
-68.46875
0
LINE
8
0
10
142
20
-49.41875
11
148
21
-49.41875
0
LINE
8
0
10
148
20
-49.41875
11
148
21
-47.86875
0
LINE
8
0
10
142
20
-47.86875
11
142
21
-49.41875
0
LINE
8
0
10
161
20
-97.04375
11
167
21
-97.04375
0
LINE
8
0
10
167
20
-97.04375
11
167
21
-95.49375
0
LINE
8
0
10
161
20
-95.49375
11
161
21
-97.04375
0
LINE
8
0
10
161
20
-77.99375
11
167
21
-77.99375
0
LINE
8
0
10
167
20
-77.99375
11
167
21
-76.44375
0
LINE
8
0
10
161
20
-76.44375
11
161
21
-77.99375
0
LINE
8
0
10
161
20
-58.94375
11
167
21
-58.94375
0
LINE
8
0
10
167
20
-58.94375
11
167
21
-57.39375
0
LINE
8
0
10
161
20
-57.39375
11
161
21
-58.94375
0
LINE
8
0
10
47
20
-128
11
53
21
-128
0
LINE
8
0
10
53
20
-128
11
53
21
-126.45
0
LINE
8
0
10
47
20
-126.45
11
47
21
-128
0
LINE
8
0
10
66
20
-128
11
72
21
-128
0
LINE
8
0
10
72
20
-128
11
72
21
-126.45
0
LINE
8
0
10
66
20
-126.45
11
66
21
-128
0
LINE
8
0
10
85
20
-123.2375
11
91
21
-123.2375
0
LINE
8
0
10
91
20
-123.2375
11
91
21
-121.6875
0
LINE
8
0
10
85
20
-121.6875
11
85
21
-123.2375
0
LINE
8
0
10
104
20
-120.85625
11
110
21
-120.85625
0
LINE
8
0
10
110
20
-120.85625
11
110
21
-119.30625
0
LINE
8
0
10
104
20
-119.30625
11
104
21
-120.85625
0
LINE
8
0
10
130.3069238
20
-126.7296774
11
135.5030762
21
-129.7296774
0
LINE
8
0
10
135.5030762
20
-129.7296774
11
136.2780762
21
-128.387338
0
LINE
8
0
10
131.0819238
20
-125.387338
11
130.3069238
21
-126.7296774
0
LINE
8
0
10
164.8479101
20
-128.8029342
11
167.8479101
21
-123.6067818
0
LINE
8
0
10
167.8479101
20
-123.6067818
11
166.5055707
21
-122.8317818
0
LINE
8
0
10
163.5055707
20
-128.0279342
11
164.8479101
21
-128.8029342
0
LINE
8
0
10
163.3024917
20
-145.7796774
11
168.4986441
21
-148.7796774
0
LINE
8
0
10
168.4986441
20
-148.7796774
11
169.2736441
21
-147.437338
0
LINE
8
0
10
164.0774917
20
-144.437338
11
163.3024917
21
-145.7796774
0
LINE
8
0
10
172.8274917
20
-129.2818935
11
178.0236441
21
-132.2818935
0
LINE
8
0
10
178.0236441
20
-132.2818935
11
178.7986441
21
-130.9395541
0
LINE
8
0
10
173.6024917
20
-127.9395541
11
172.8274917
21
-129.2818935
0
LINE
8
0
10
53.4
20
-97.4
11
53.4
21
-93.7
0
LINE
8
0
10
53.4
20
-93.7
11
46.6
21
-93.7
0
LINE
8
0
10
46.6
20
-93.7
11
46.6
21
-97.4
0
LINE
8
0
10
53.4
20
-78.35
11
53.4
21
-74.65
0
LINE
8
0
10
53.4
20
-74.65
11
46.6
21
-74.65
0
LINE
8
0
10
46.6
20
-74.65
11
46.6
21
-78.35
0
LINE
8
0
10
53.4
20
-59.3
11
53.4
21
-55.6
0
LINE
8
0
10
53.4
20
-55.6
11
46.6
21
-55.6
0
LINE
8
0
10
46.6
20
-55.6
11
46.6
21
-59.3
0
LINE
8
0
10
53.4
20
-40.25
11
53.4
21
-36.55
0
LINE
8
0
10
53.4
20
-36.55
11
46.6
21
-36.55
0
LINE
8
0
10
46.6
20
-36.55
11
46.6
21
-40.25
0
LINE
8
0
10
72.4
20
-97.4
11
72.4
21
-93.7
0
LINE
8
0
10
72.4
20
-93.7
11
65.6
21
-93.7
0
LINE
8
0
10
65.6
20
-93.7
11
65.6
21
-97.4
0
LINE
8
0
10
72.4
20
-78.35
11
72.4
21
-74.65
0
LINE
8
0
10
72.4
20
-74.65
11
65.6
21
-74.65
0
LINE
8
0
10
65.6
20
-74.65
11
65.6
21
-78.35
0
LINE
8
0
10
72.4
20
-59.3
11
72.4
21
-55.6
0
LINE
8
0
10
72.4
20
-55.6
11
65.6
21
-55.6
0
LINE
8
0
10
65.6
20
-55.6
11
65.6
21
-59.3
0
LINE
8
0
10
72.4
20
-40.25
11
72.4
21
-36.55
0
LINE
8
0
10
72.4
20
-36.55
11
65.6
21
-36.55
0
LINE
8
0
10
65.6
20
-36.55
11
65.6
21
-40.25
0
LINE
8
0
10
91.4
20
-92.6375
11
91.4
21
-88.9375
0
LINE
8
0
10
91.4
20
-88.9375
11
84.6
21
-88.9375
0
LINE
8
0
10
84.6
20
-88.9375
11
84.6
21
-92.6375
0
LINE
8
0
10
91.4
20
-73.5875
11
91.4
21
-69.8875
0
LINE
8
0
10
91.4
20
-69.8875
11
84.6
21
-69.8875
0
LINE
8
0
10
84.6
20
-69.8875
11
84.6
21
-73.5875
0
LINE
8
0
10
91.4
20
-54.5375
11
91.4
21
-50.8375
0
LINE
8
0
10
91.4
20
-50.8375
11
84.6
21
-50.8375
0
LINE
8
0
10
84.6
20
-50.8375
11
84.6
21
-54.5375
0
LINE
8
0
10
91.4
20
-35.4875
11
91.4
21
-31.7875
0
LINE
8
0
10
91.4
20
-31.7875
11
84.6
21
-31.7875
0
LINE
8
0
10
84.6
20
-31.7875
11
84.6
21
-35.4875
0
LINE
8
0
10
110.4
20
-90.25625
11
110.4
21
-86.55625
0
LINE
8
0
10
110.4
20
-86.55625
11
103.6
21
-86.55625
0
LINE
8
0
10
103.6
20
-86.55625
11
103.6
21
-90.25625
0
LINE
8
0
10
110.4
20
-71.20625
11
110.4
21
-67.50625
0
LINE
8
0
10
110.4
20
-67.50625
11
103.6
21
-67.50625
0
LINE
8
0
10
103.6
20
-67.50625
11
103.6
21
-71.20625
0
LINE
8
0
10
110.4
20
-52.15625
11
110.4
21
-48.45625
0
LINE
8
0
10
110.4
20
-48.45625
11
103.6
21
-48.45625
0
LINE
8
0
10
103.6
20
-48.45625
11
103.6
21
-52.15625
0
LINE
8
0
10
110.4
20
-33.10625
11
110.4
21
-29.40625
0
LINE
8
0
10
110.4
20
-29.40625
11
103.6
21
-29.40625
0
LINE
8
0
10
103.6
20
-29.40625
11
103.6
21
-33.10625
0
LINE
8
0
10
129.4
20
-92.6375
11
129.4
21
-88.9375
0
LINE
8
0
10
129.4
20
-88.9375
11
122.6
21
-88.9375
0
LINE
8
0
10
122.6
20
-88.9375
11
122.6
21
-92.6375
0
LINE
8
0
10
129.4
20
-73.5875
11
129.4
21
-69.8875
0
LINE
8
0
10
129.4
20
-69.8875
11
122.6
21
-69.8875
0
LINE
8
0
10
122.6
20
-69.8875
11
122.6
21
-73.5875
0
LINE
8
0
10
129.4
20
-54.5375
11
129.4
21
-50.8375
0
LINE
8
0
10
129.4
20
-50.8375
11
122.6
21
-50.8375
0
LINE
8
0
10
122.6
20
-50.8375
11
122.6
21
-54.5375
0
LINE
8
0
10
129.4
20
-35.4875
11
129.4
21
-31.7875
0
LINE
8
0
10
129.4
20
-31.7875
11
122.6
21
-31.7875
0
LINE
8
0
10
122.6
20
-31.7875
11
122.6
21
-35.4875
0
LINE
8
0
10
148.4
20
-95.01875
11
148.4
21
-91.31875
0
LINE
8
0
10
148.4
20
-91.31875
11
141.6
21
-91.31875
0
LINE
8
0
10
141.6
20
-91.31875
11
141.6
21
-95.01875
0
LINE
8
0
10
148.4
20
-75.96875
11
148.4
21
-72.26875
0
LINE
8
0
10
148.4
20
-72.26875
11
141.6
21
-72.26875
0
LINE
8
0
10
141.6
20
-72.26875
11
141.6
21
-75.96875
0
LINE
8
0
10
148.4
20
-56.91875
11
148.4
21
-53.21875
0
LINE
8
0
10
148.4
20
-53.21875
11
141.6
21
-53.21875
0
LINE
8
0
10
141.6
20
-53.21875
11
141.6
21
-56.91875
0
LINE
8
0
10
148.4
20
-37.86875
11
148.4
21
-34.16875
0
LINE
8
0
10
148.4
20
-34.16875
11
141.6
21
-34.16875
0
LINE
8
0
10
141.6
20
-34.16875
11
141.6
21
-37.86875
0
LINE
8
0
10
167.4
20
-85.49375
11
167.4
21
-81.79375
0
LINE
8
0
10
167.4
20
-81.79375
11
160.6
21
-81.79375
0
LINE
8
0
10
160.6
20
-81.79375
11
160.6
21
-85.49375
0
LINE
8
0
10
167.4
20
-66.44375
11
167.4
21
-62.74375
0
LINE
8
0
10
167.4
20
-62.74375
11
160.6
21
-62.74375
0
LINE
8
0
10
160.6
20
-62.74375
11
160.6
21
-66.44375
0
LINE
8
0
10
167.4
20
-47.39375
11
167.4
21
-43.69375
0
LINE
8
0
10
167.4
20
-43.69375
11
160.6
21
-43.69375
0
LINE
8
0
10
160.6
20
-43.69375
11
160.6
21
-47.39375
0
LINE
8
0
10
53.4
20
-116.45
11
53.4
21
-112.75
0
LINE
8
0
10
53.4
20
-112.75
11
46.6
21
-112.75
0
LINE
8
0
10
46.6
20
-112.75
11
46.6
21
-116.45
0
LINE
8
0
10
72.4
20
-116.45
11
72.4
21
-112.75
0
LINE
8
0
10
72.4
20
-112.75
11
65.6
21
-112.75
0
LINE
8
0
10
65.6
20
-112.75
11
65.6
21
-116.45
0
LINE
8
0
10
91.4
20
-111.6875
11
91.4
21
-107.9875
0
LINE
8
0
10
91.4
20
-107.9875
11
84.6
21
-107.9875
0
LINE
8
0
10
84.6
20
-107.9875
11
84.6
21
-111.6875
0
LINE
8
0
10
110.4
20
-109.30625
11
110.4
21
-105.60625
0
LINE
8
0
10
110.4
20
-105.60625
11
103.6
21
-105.60625
0
LINE
8
0
10
103.6
20
-105.60625
11
103.6
21
-109.30625
0
LINE
8
0
10
141.6244863
20
-119.927084
11
143.4744864
21
-116.72279
0
LINE
8
0
10
143.4744864
20
-116.72279
11
137.5855136
21
-113.32279
0
LINE
8
0
10
137.5855136
20
-113.32279
11
135.7355136
21
-116.527084
0
LINE
8
0
10
174.6200542
20
-138.977084
11
176.4700543
21
-135.77279
0
LINE
8
0
10
176.4700543
20
-135.77279
11
170.5810815
21
-132.37279
0
LINE
8
0
10
170.5810815
20
-132.37279
11
168.7310815
21
-135.577084
0
LINE
8
0
10
184.1450542
20
-122.4793001
11
185.9950543
21
-119.2750061
0
LINE
8
0
10
185.9950543
20
-119.2750061
11
180.1060815
21
-115.8750061
0
LINE
8
0
10
180.1060815
20
-115.8750061
11
178.2560815
21
-119.0793001
0
LINE
8
0
10
153.6633602
20
-136.3751429
11
156.3633602
21
-131.6986057
0
LINE
8
0
10
164.8633602
20
-116.9761739
11
168.8133602
21
-110.1345731
0
LINE
8
0
10
168.8133602
20
-110.1345731
11
158.4210554
21
-104.1345731
0
LINE
8
0
10
158.4210554
20
-104.1345731
11
151.9563523
21
-115.3317673
0
LINE
8
0
10
151.6407584
20
-115.878392
11
143.2710554
21
-130.3751429
0
LINE
8
0
10
143.2710554
20
-130.3751429
11
153.6633602
21
-136.3751429
0
ENDSEC
0
EOF