0
SECTION
2
HEADER
9
$INSUNITS
70
4
0
ENDSEC
0
SECTION
2
TABLES
0
TABLE
2
LTYPE
0
LTYPE
72
65
70
64
2
CONTINUOUS
3
______
73
0
40
0
0
ENDTAB
0
TABLE
2
LAYER
0
ENDTAB
0
ENDSEC
0
SECTION
2
ENTITIES
0
LINE
8
0
10
131.0317133
20
-130.575
11
40.975
21
-130.575
0
LINE
8
0
10
38.475
20
-128.075
11
38.475
21
-33.4819415
0
LINE
8
0
10
40.6086578
20
-31.0089286
11
95.2928227
21
-22.908237
0
LINE
8
0
10
95.659165
20
-22.88125
11
118.3268287
21
-22.88125
0
LINE
8
0
10
118.7206964
20
-22.9124713
11
155.9026369
21
-28.8444585
0
LINE
8
0
10
157.025916
20
-29.3262129
11
168.3281499
21
-37.9557743
0
LINE
8
0
10
169.8452967
20
-38.46875
11
187.84346
21
-38.46875
0
LINE
8
0
10
189.4660643
20
-39.066868
11
194.6976043
21
-43.5301936
0
LINE
8
0
10
195.575
20
-45.4320756
11
195.575
21
-117.9095516
0
LINE
8
0
10
195.2453416
20
-119.1503649
11
175.838619
21
-153.0952132
0
LINE
8
0
10
172.420842
20
-154.020942
11
132.2791487
21
-130.9084579
0
ARC
8
0
10
40.975
20
-128.075
40
2.5
50
180
51
270
0
ARC
8
0
10
40.975
20
-33.4819415
40
2.5
50
98.4262878
51
180
0
ARC
8
0
10
95.659165
20
-25.38125
40
2.5
50
90
51
98.4262878
0
ARC
8
0
10
118.3268287
20
-25.38125
40
2.5
50
80.9354505
51
90
0
ARC
8
0
10
155.5087692
20
-31.3132372
40
2.5
50
52.6372872
51
80.9354505
0
ARC
8
0
10
169.8452967
20
-35.96875
40
2.5
50
232.6372872
51
270
0
ARC
8
0
10
187.84346
20
-40.96875
40
2.5
50
49.5306097
51
90
0
ARC
8
0
10
193.075
20
-45.4320756
40
2.5
50
0
51
49.5306097
0
ARC
8
0
10
193.075
20
-117.9095516
40
2.5
50
330.2428192
51
0
0
ARC
8
0
10
173.6682774
20
-151.8543999
40
2.5
50
240.0678449
51
330.2428192
0
ARC
8
0
10
131.0317133
20
-133.075
40
2.5
50
60.0678449
51
90
0
CIRCLE
8
0
10
187.8125
20
-44.27875
40
2.5
0
CIRCLE
8
0
10
179.24
20
-105.23875
40
2.5
0
CIRCLE
8
0
10
190.67
20
-111.90625
40
2.5
0
ARC
8
0
10
59.525
20
-109.525
40
2.5
50
121.7883302
51
444.8363929
0
ARC
8
0
10
59.525
20
-52.375
40
2.5
50
121.7883302
51
444.8363929
0
CIRCLE
8
0
10
93.715
20
-27.61
40
2.5
0
ARC
8
0
10
97.025
20
-66.6625
40
2.5
50
121.7883302
51
433.1420439
0
ARC
8
0
10
97.025
20
-104.7625
40
2.5
50
121.7883302
51
433.1420439
0
CIRCLE
8
0
10
158.335
20
-38.56375
40
2.5
0
CIRCLE
8
0
10
149.6508123
20
-114.3650796
40
2.5
0
LINE
8
0
10
42.75
20
-107.4
11
58.2080433
21
-107.4
0
LINE
8
0
10
59.75
20
-107.0351456
11
59.75
21
-97.4
0
LINE
8
0
10
59.75
20
-97.4
11
59
21
-97.4
0
LINE
8
0
10
57
20
-97.4
11
42.75
21
-97.4
0
LINE
8
0
10
42.75
20
-97.4
11
42.75
21
-107.4
0
LINE
8
0
10
42.75
20
-88.35
11
59.75
21
-88.35
0
LINE
8
0
10
59.75
20
-88.35
11
59.75
21
-78.35
0
LINE
8
0
10
59.75
20
-78.35
11
59
21
-78.35
0
LINE
8
0
10
57
20
-78.35
11
42.75
21
-78.35
0
LINE
8
0
10
42.75
20
-78.35
11
42.75
21
-88.35
0
LINE
8
0
10
42.75
20
-69.3
11
59.75
21
-69.3
0
LINE
8
0
10
59.75
20
-69.3
11
59.75
21
-59.3
0
LINE
8
0
10
59.75
20
-59.3
11
59
21
-59.3
0
LINE
8
0
10
57
20
-59.3
11
42.75
21
-59.3
0
LINE
8
0
10
42.75
20
-59.3
11
42.75
21
-69.3
0
LINE
8
0
10
42.75
20
-50.25
11
58.2080433
21
-50.25
0
LINE
8
0
10
59.75
20
-49.8851456
11
59.75
21
-40.25
0
LINE
8
0
10
59.75
20
-40.25
11
59
21
-40.25
0
LINE
8
0
10
57
20
-40.25
11
42.75
21
-40.25
0
LINE
8
0
10
42.75
20
-40.25
11
42.75
21
-50.25
0
LINE
8
0
10
61.75
20
-107.4
11
78.75
21
-107.4
0
LINE
8
0
10
78.75
20
-107.4
11
78.75
21
-97.4
0
LINE
8
0
10
78.75
20
-97.4
11
78
21
-97.4
0
LINE
8
0
10
76
20
-97.4
11
61.75
21
-97.4
0
LINE
8
0
10
61.75
20
-97.4
11
61.75
21
-107.4
0
LINE
8
0
10
61.75
20
-88.35
11
78.75
21
-88.35
0
LINE
8
0
10
78.75
20
-88.35
11
78.75
21
-78.35
0
LINE
8
0
10
78.75
20
-78.35
11
78
21
-78.35
0
LINE
8
0
10
76
20
-78.35
11
61.75
21
-78.35
0
LINE
8
0
10
61.75
20
-78.35
11
61.75
21
-88.35
0
LINE
8
0
10
61.75
20
-69.3
11
78.75
21
-69.3
0
LINE
8
0
10
78.75
20
-69.3
11
78.75
21
-59.3
0
LINE
8
0
10
78.75
20
-59.3
11
78
21
-59.3
0
LINE
8
0
10
76
20
-59.3
11
61.75
21
-59.3
0
LINE
8
0
10
61.75
20
-59.3
11
61.75
21
-69.3
0
LINE
8
0
10
61.75
20
-50.25
11
78.75
21
-50.25
0
LINE
8
0
10
78.75
20
-50.25
11
78.75
21
-40.25
0
LINE
8
0
10
78.75
20
-40.25
11
78
21
-40.25
0
LINE
8
0
10
76
20
-40.25
11
61.75
21
-40.25
0
LINE
8
0
10
61.75
20
-40.25
11
61.75
21
-50.25
0
LINE
8
0
10
80.75
20
-102.6375
11
95.7080433
21
-102.6375
0
LINE
8
0
10
97.75
20
-102.3699334
11
97.75
21
-92.6375
0
LINE
8
0
10
97.75
20
-92.6375
11
97
21
-92.6375
0
LINE
8
0
10
95
20
-92.6375
11
80.75
21
-92.6375
0
LINE
8
0
10
80.75
20
-92.6375
11
80.75
21
-102.6375
0
LINE
8
0
10
80.75
20
-83.5875
11
97.75
21
-83.5875
0
LINE
8
0
10
97.75
20
-83.5875
11
97.75
21
-73.5875
0
LINE
8
0
10
97.75
20
-73.5875
11
97
21
-73.5875
0
LINE
8
0
10
95
20
-73.5875
11
80.75
21
-73.5875
0
LINE
8
0
10
80.75
20
-73.5875
11
80.75
21
-83.5875
0
LINE
8
0
10
80.75
20
-64.5375
11
95.7080433
21
-64.5375
0
LINE
8
0
10
97.75
20
-64.2699334
11
97.75
21
-54.5375
0
LINE
8
0
10
97.75
20
-54.5375
11
97
21
-54.5375
0
LINE
8
0
10
95
20
-54.5375
11
80.75
21
-54.5375
0
LINE
8
0
10
80.75
20
-54.5375
11
80.75
21
-64.5375
0
LINE
8
0
10
80.75
20
-45.4875
11
97.75
21
-45.4875
0
LINE
8
0
10
97.75
20
-45.4875
11
97.75
21
-35.4875
0
LINE
8
0
10
97.75
20
-35.4875
11
97
21
-35.4875
0
LINE
8
0
10
95
20
-35.4875
11
80.75
21
-35.4875
0
LINE
8
0
10
80.75
20
-35.4875
11
80.75
21
-45.4875
0
LINE
8
0
10
99.75
20
-100.25625
11
116.75
21
-100.25625
0
LINE
8
0
10
116.75
20
-100.25625
11
116.75
21
-90.25625
0
LINE
8
0
10
116.75
20
-90.25625
11
116
21
-90.25625
0
LINE
8
0
10
114
20
-90.25625
11
99.75
21
-90.25625
0
LINE
8
0
10
99.75
20
-90.25625
11
99.75
21
-100.25625
0
LINE
8
0
10
99.75
20
-81.20625
11
116.75
21
-81.20625
0
LINE
8
0
10
116.75
20
-81.20625
11
116.75
21
-71.20625
0
LINE
8
0
10
116.75
20
-71.20625
11
116
21
-71.20625
0
LINE
8
0
10
114
20
-71.20625
11
99.75
21
-71.20625
0
LINE
8
0
10
99.75
20
-71.20625
11
99.75
21
-81.20625
0
LINE
8
0
10
99.75
20
-62.15625
11
116.75
21
-62.15625
0
LINE
8
0
10
116.75
20
-62.15625
11
116.75
21
-52.15625
0
LINE
8
0
10
116.75
20
-52.15625
11
116
21
-52.15625
0
LINE
8
0
10
114
20
-52.15625
11
99.75
21
-52.15625
0
LINE
8
0
10
99.75
20
-52.15625
11
99.75
21
-62.15625
0
LINE
8
0
10
99.75
20
-43.10625
11
116.75
21
-43.10625
0
LINE
8
0
10
116.75
20
-43.10625
11
116.75
21
-33.10625
0
LINE
8
0
10
116.75
20
-33.10625
11
116
21
-33.10625
0
LINE
8
0
10
114
20
-33.10625
11
99.75
21
-33.10625
0
LINE
8
0
10
99.75
20
-33.10625
11
99.75
21
-43.10625
0
LINE
8
0
10
118.75
20
-102.6375
11
135.75
21
-102.6375
0
LINE
8
0
10
135.75
20
-102.6375
11
135.75
21
-92.6375
0
LINE
8
0
10
135.75
20
-92.6375
11
135
21
-92.6375
0
LINE
8
0
10
133
20
-92.6375
11
118.75
21
-92.6375
0
LINE
8
0
10
118.75
20
-92.6375
11
118.75
21
-102.6375
0
LINE
8
0
10
118.75
20
-83.5875
11
135.75
21
-83.5875
0
LINE
8
0
10
135.75
20
-83.5875
11
135.75
21
-73.5875
0
LINE
8
0
10
135.75
20
-73.5875
11
135
21
-73.5875
0
LINE
8
0
10
133
20
-73.5875
11
118.75
21
-73.5875
0
LINE
8
0
10
118.75
20
-73.5875
11
118.75
21
-83.5875
0
LINE
8
0
10
118.75
20
-64.5375
11
135.75
21
-64.5375
0
LINE
8
0
10
135.75
20
-64.5375
11
135.75
21
-54.5375
0
LINE
8
0
10
135.75
20
-54.5375
11
135
21
-54.5375
0
LINE
8
0
10
133
20
-54.5375
11
118.75
21
-54.5375
0
LINE
8
0
10
118.75
20
-54.5375
11
118.75
21
-64.5375
0
LINE
8
0
10
118.75
20
-45.4875
11
135.75
21
-45.4875
0
LINE
8
0
10
135.75
20
-45.4875
11
135.75
21
-35.4875
0
LINE
8
0
10
135.75
20
-35.4875
11
135
21
-35.4875
0
LINE
8
0
10
133
20
-35.4875
11
118.75
21
-35.4875
0
LINE
8
0
10
118.75
20
-35.4875
11
118.75
21
-45.4875
0
LINE
8
0
10
137.75
20
-105.01875
11
154.75
21
-105.01875
0
LINE
8
0
10
154.75
20
-105.01875
11
154.75
21
-95.01875
0
LINE
8
0
10
154.75
20
-95.01875
11
154
21
-95.01875
0
LINE
8
0
10
152
20
-95.01875
11
137.75
21
-95.01875
0
LINE
8
0
10
137.75
20
-95.01875
11
137.75
21
-105.01875
0
LINE
8
0
10
137.75
20
-85.96875
11
154.75
21
-85.96875
0
LINE
8
0
10
154.75
20
-85.96875
11
154.75
21
-75.96875
0
LINE
8
0
10
154.75
20
-75.96875
11
154
21
-75.96875
0
LINE
8
0
10
152
20
-75.96875
11
137.75
21
-75.96875
0
LINE
8
0
10
137.75
20
-75.96875
11
137.75
21
-85.96875
0
LINE
8
0
10
137.75
20
-66.91875
11
154.75
21
-66.91875
0
LINE
8
0
10
154.75
20
-66.91875
11
154.75
21
-56.91875
0
LINE
8
0
10
154.75
20
-56.91875
11
154
21
-56.91875
0
LINE
8
0
10
152
20
-56.91875
11
137.75
21
-56.91875
0
LINE
8
0
10
137.75
20
-56.91875
11
137.75
21
-66.91875
0
LINE
8
0
10
137.75
20
-47.86875
11
154.75
21
-47.86875
0
LINE
8
0
10
154.75
20
-47.86875
11
154.75
21
-37.86875
0
LINE
8
0
10
154.75
20
-37.86875
11
154
21
-37.86875
0
LINE
8
0
10
152
20
-37.86875
11
137.75
21
-37.86875
0
LINE
8
0
10
137.75
20
-37.86875
11
137.75
21
-47.86875
0
LINE
8
0
10
156.75
20
-95.49375
11
173.75
21
-95.49375
0
LINE
8
0
10
173.75
20
-95.49375
11
173.75
21
-85.49375
0
LINE
8
0
10
173.75
20
-85.49375
11
173
21
-85.49375
0
LINE
8
0
10
171
20
-85.49375
11
156.75
21
-85.49375
0
LINE
8
0
10
156.75
20
-85.49375
11
156.75
21
-95.49375
0
LINE
8
0
10
156.75
20
-76.44375
11
173.75
21
-76.44375
0
LINE
8
0
10
173.75
20
-76.44375
11
173.75
21
-66.44375
0
LINE
8
0
10
173.75
20
-66.44375
11
173
21
-66.44375
0
LINE
8
0
10
171
20
-66.44375
11
156.75
21
-66.44375
0
LINE
8
0
10
156.75
20
-66.44375
11
156.75
21
-76.44375
0
LINE
8
0
10
156.75
20
-57.39375
11
173.75
21
-57.39375
0
LINE
8
0
10
173.75
20
-57.39375
11
173.75
21
-47.39375
0
LINE
8
0
10
173.75
20
-47.39375
11
173
21
-47.39375
0
LINE
8
0
10
171
20
-47.39375
11
156.75
21
-47.39375
0
LINE
8
0
10
156.75
20
-47.39375
11
156.75
21
-57.39375
0
LINE
8
0
10
42.75
20
-126.45
11
59.75
21
-126.45
0
LINE
8
0
10
59.75
20
-126.45
11
59.75
21
-116.45
0
LINE
8
0
10
59.75
20
-116.45
11
59
21
-116.45
0
LINE
8
0
10
57
20
-116.45
11
42.75
21
-116.45
0
LINE
8
0
10
42.75
20
-116.45
11
42.75
21
-126.45
0
LINE
8
0
10
61.75
20
-126.45
11
78.75
21
-126.45
0
LINE
8
0
10
78.75
20
-126.45
11
78.75
21
-116.45
0
LINE
8
0
10
78.75
20
-116.45
11
78
21
-116.45
0
LINE
8
0
10
76
20
-116.45
11
61.75
21
-116.45
0
LINE
8
0
10
61.75
20
-116.45
11
61.75
21
-126.45
0
LINE
8
0
10
80.75
20
-121.6875
11
97.75
21
-121.6875
0
LINE
8
0
10
97.75
20
-121.6875
11
97.75
21
-111.6875
0
LINE
8
0
10
97.75
20
-111.6875
11
97
21
-111.6875
0
LINE
8
0
10
95
20
-111.6875
11
80.75
21
-111.6875
0
LINE
8
0
10
80.75
20
-111.6875
11
80.75
21
-121.6875
0
LINE
8
0
10
99.75
20
-119.30625
11
116.75
21
-119.30625
0
LINE
8
0
10
116.75
20
-119.30625
11
116.75
21
-109.30625
0
LINE
8
0
10
116.75
20
-109.30625
11
116
21
-109.30625
0
LINE
8
0
10
114
20
-109.30625
11
99.75
21
-109.30625
0
LINE
8
0
10
99.75
20
-109.30625
11
99.75
21
-119.30625
0
LINE
8
0
10
127.4013159
20
-123.262338
11
142.1237477
21
-131.762338
0
LINE
8
0
10
142.1237477
20
-131.762338
11
147.1237477
21
-123.102084
0
LINE
8
0
10
147.1237477
20
-123.102084
11
146.4742286
21
-122.727084
0
LINE
8
0
10
144.7421778
20
-121.727084
11
132.4013159
21
-114.602084
0
LINE
8
0
10
132.4013159
20
-114.602084
11
127.4013159
21
-123.262338
0
LINE
8
0
10
161.3805707
20
-131.7085421
11
169.8805707
21
-116.9861103
0
LINE
8
0
10
169.8805707
20
-116.9861103
11
161.2203167
21
-111.9861103
0
LINE
8
0
10
161.2203167
20
-111.9861103
11
160.8453167
21
-112.6356294
0
LINE
8
0
10
159.8453167
20
-114.3676802
11
152.7203167
21
-126.7085421
0
LINE
8
0
10
152.7203167
20
-126.7085421
11
161.3805707
21
-131.7085421
0
LINE
8
0
10
160.3968838
20
-142.312338
11
175.1193156
21
-150.812338
0
LINE
8
0
10
175.1193156
20
-150.812338
11
180.1193156
21
-142.152084
0
LINE
8
0
10
180.1193156
20
-142.152084
11
179.4697965
21
-141.777084
0
LINE
8
0
10
177.7377457
20
-140.777084
11
165.3968838
21
-133.652084
0
LINE
8
0
10
165.3968838
20
-133.652084
11
160.3968838
21
-142.312338
0
LINE
8
0
10
169.9218838
20
-125.8145541
11
184.6443156
21
-134.3145541
0
LINE
8
0
10
184.6443156
20
-134.3145541
11
189.6443156
21
-125.6543001
0
LINE
8
0
10
189.6443156
20
-125.6543001
11
188.9947965
21
-125.2793001
0
LINE
8
0
10
187.2627457
20
-124.2793001
11
174.9218838
21
-117.1543001
0
LINE
8
0
10
174.9218838
20
-117.1543001
11
169.9218838
21
-125.8145541
0
LINE
8
0
10
59
20
-97.4
11
59
21
-94.25
0
LINE
8
0
10
59
20
-94.25
11
57
21
-94.25
0
LINE
8
0
10
57
20
-94.25
11
57
21
-97.4
0
LINE
8
0
10
59
20
-78.35
11
59
21
-75.2
0
LINE
8
0
10
59
20
-75.2
11
57
21
-75.2
0
LINE
8
0
10
57
20
-75.2
11
57
21
-78.35
0
LINE
8
0
10
59
20
-59.3
11
59
21
-56.15
0
LINE
8
0
10
59
20
-56.15
11
57
21
-56.15
0
LINE
8
0
10
57
20
-56.15
11
57
21
-59.3
0
LINE
8
0
10
59
20
-40.25
11
59
21
-37.1
0
LINE
8
0
10
59
20
-37.1
11
57
21
-37.1
0
LINE
8
0
10
57
20
-37.1
11
57
21
-40.25
0
LINE
8
0
10
78
20
-97.4
11
78
21
-94.25
0
LINE
8
0
10
78
20
-94.25
11
76
21
-94.25
0
LINE
8
0
10
76
20
-94.25
11
76
21
-97.4
0
LINE
8
0
10
78
20
-78.35
11
78
21
-75.2
0
LINE
8
0
10
78
20
-75.2
11
76
21
-75.2
0
LINE
8
0
10
76
20
-75.2
11
76
21
-78.35
0
LINE
8
0
10
78
20
-59.3
11
78
21
-56.15
0
LINE
8
0
10
78
20
-56.15
11
76
21
-56.15
0
LINE
8
0
10
76
20
-56.15
11
76
21
-59.3
0
LINE
8
0
10
78
20
-40.25
11
78
21
-37.1
0
LINE
8
0
10
78
20
-37.1
11
76
21
-37.1
0
LINE
8
0
10
76
20
-37.1
11
76
21
-40.25
0
LINE
8
0
10
97
20
-92.6375
11
97
21
-89.4875
0
LINE
8
0
10
97
20
-89.4875
11
95
21
-89.4875
0
LINE
8
0
10
95
20
-89.4875
11
95
21
-92.6375
0
LINE
8
0
10
97
20
-73.5875
11
97
21
-70.4375
0
LINE
8
0
10
97
20
-70.4375
11
95
21
-70.4375
0
LINE
8
0
10
95
20
-70.4375
11
95
21
-73.5875
0
LINE
8
0
10
97
20
-54.5375
11
97
21
-51.3875
0
LINE
8
0
10
97
20
-51.3875
11
95
21
-51.3875
0
LINE
8
0
10
95
20
-51.3875
11
95
21
-54.5375
0
LINE
8
0
10
97
20
-35.4875
11
97
21
-32.3375
0
LINE
8
0
10
97
20
-32.3375
11
95
21
-32.3375
0
LINE
8
0
10
95
20
-32.3375
11
95
21
-35.4875
0
LINE
8
0
10
116
20
-90.25625
11
116
21
-87.10625
0
LINE
8
0
10
116
20
-87.10625
11
114
21
-87.10625
0
LINE
8
0
10
114
20
-87.10625
11
114
21
-90.25625
0
LINE
8
0
10
116
20
-71.20625
11
116
21
-68.05625
0
LINE
8
0
10
116
20
-68.05625
11
114
21
-68.05625
0
LINE
8
0
10
114
20
-68.05625
11
114
21
-71.20625
0
LINE
8
0
10
116
20
-52.15625
11
116
21
-49.00625
0
LINE
8
0
10
116
20
-49.00625
11
114
21
-49.00625
0
LINE
8
0
10
114
20
-49.00625
11
114
21
-52.15625
0
LINE
8
0
10
116
20
-33.10625
11
116
21
-29.95625
0
LINE
8
0
10
116
20
-29.95625
11
114
21
-29.95625
0
LINE
8
0
10
114
20
-29.95625
11
114
21
-33.10625
0
LINE
8
0
10
135
20
-92.6375
11
135
21
-89.4875
0
LINE
8
0
10
135
20
-89.4875
11
133
21
-89.4875
0
LINE
8
0
10
133
20
-89.4875
11
133
21
-92.6375
0
LINE
8
0
10
135
20
-73.5875
11
135
21
-70.4375
0
LINE
8
0
10
135
20
-70.4375
11
133
21
-70.4375
0
LINE
8
0
10
133
20
-70.4375
11
133
21
-73.5875
0
LINE
8
0
10
135
20
-54.5375
11
135
21
-51.3875
0
LINE
8
0
10
135
20
-51.3875
11
133
21
-51.3875
0
LINE
8
0
10
133
20
-51.3875
11
133
21
-54.5375
0
LINE
8
0
10
135
20
-35.4875
11
135
21
-32.3375
0
LINE
8
0
10
135
20
-32.3375
11
133
21
-32.3375
0
LINE
8
0
10
133
20
-32.3375
11
133
21
-35.4875
0
LINE
8
0
10
154
20
-95.01875
11
154
21
-91.86875
0
LINE
8
0
10
154
20
-91.86875
11
152
21
-91.86875
0
LINE
8
0
10
152
20
-91.86875
11
152
21
-95.01875
0
LINE
8
0
10
154
20
-75.96875
11
154
21
-72.81875
0
LINE
8
0
10
154
20
-72.81875
11
152
21
-72.81875
0
LINE
8
0
10
152
20
-72.81875
11
152
21
-75.96875
0
LINE
8
0
10
154
20
-56.91875
11
154
21
-53.76875
0
LINE
8
0
10
154
20
-53.76875
11
152
21
-53.76875
0
LINE
8
0
10
152
20
-53.76875
11
152
21
-56.91875
0
LINE
8
0
10
154
20
-37.86875
11
154
21
-34.71875
0
LINE
8
0
10
154
20
-34.71875
11
152
21
-34.71875
0
LINE
8
0
10
152
20
-34.71875
11
152
21
-37.86875
0
LINE
8
0
10
173
20
-85.49375
11
173
21
-82.34375
0
LINE
8
0
10
173
20
-82.34375
11
171
21
-82.34375
0
LINE
8
0
10
171
20
-82.34375
11
171
21
-85.49375
0
LINE
8
0
10
173
20
-66.44375
11
173
21
-63.29375
0
LINE
8
0
10
173
20
-63.29375
11
171
21
-63.29375
0
LINE
8
0
10
171
20
-63.29375
11
171
21
-66.44375
0
LINE
8
0
10
173
20
-47.39375
11
173
21
-44.24375
0
LINE
8
0
10
173
20
-44.24375
11
171
21
-44.24375
0
LINE
8
0
10
171
20
-44.24375
11
171
21
-47.39375
0
LINE
8
0
10
59
20
-116.45
11
59
21
-113.3
0
LINE
8
0
10
59
20
-113.3
11
57
21
-113.3
0
LINE
8
0
10
57
20
-113.3
11
57
21
-116.45
0
LINE
8
0
10
78
20
-116.45
11
78
21
-113.3
0
LINE
8
0
10
78
20
-113.3
11
76
21
-113.3
0
LINE
8
0
10
76
20
-113.3
11
76
21
-116.45
0
LINE
8
0
10
97
20
-111.6875
11
97
21
-108.5375
0
LINE
8
0
10
97
20
-108.5375
11
95
21
-108.5375
0
LINE
8
0
10
95
20
-108.5375
11
95
21
-111.6875
0
LINE
8
0
10
116
20
-109.30625
11
116
21
-106.15625
0
LINE
8
0
10
116
20
-106.15625
11
114
21
-106.15625
0
LINE
8
0
10
114
20
-106.15625
11
114
21
-109.30625
0
LINE
8
0
10
146.4742286
20
-122.727084
11
148.0492286
21
-119.9991039
0
LINE
8
0
10
148.0492286
20
-119.9991039
11
146.3171778
21
-118.9991039
0
LINE
8
0
10
146.3171778
20
-118.9991039
11
144.7421778
21
-121.727084
0
LINE
8
0
10
160.8453167
20
-112.6356294
11
158.1173366
21
-111.0606294
0
LINE
8
0
10
158.1173366
20
-111.0606294
11
157.1173366
21
-112.7926802
0
LINE
8
0
10
157.1173366
20
-112.7926802
11
159.8453167
21
-114.3676802
0
LINE
8
0
10
179.4697965
20
-141.777084
11
181.0447965
21
-139.0491039
0
LINE
8
0
10
181.0447965
20
-139.0491039
11
179.3127457
21
-138.0491039
0
LINE
8
0
10
179.3127457
20
-138.0491039
11
177.7377457
21
-140.777084
0
LINE
8
0
10
188.9947965
20
-125.2793001
11
190.5697965
21
-122.55132
0
LINE
8
0
10
190.5697965
20
-122.55132
11
188.8377457
21
-121.55132
0
LINE
8
0
10
188.8377457
20
-121.55132
11
187.2627457
21
-124.2793001
0
ENDSEC
0
EOF