0
SECTION
2
HEADER
9
$INSUNITS
70
4
0
ENDSEC
0
SECTION
2
TABLES
0
TABLE
2
LTYPE
0
LTYPE
72
65
70
64
2
CONTINUOUS
3
______
73
0
40
0
0
ENDTAB
0
TABLE
2
LAYER
0
ENDTAB
0
ENDSEC
0
SECTION
2
ENTITIES
0
LINE
8
0
10
131.0317133
20
-130.575
11
40.975
21
-130.575
0
LINE
8
0
10
38.475
20
-128.075
11
38.475
21
-33.4819415
0
LINE
8
0
10
40.6086578
20
-31.0089286
11
95.2928227
21
-22.908237
0
LINE
8
0
10
95.659165
20
-22.88125
11
118.3268287
21
-22.88125
0
LINE
8
0
10
118.7206964
20
-22.9124713
11
155.9026369
21
-28.8444585
0
LINE
8
0
10
157.025916
20
-29.3262129
11
168.3281499
21
-37.9557743
0
LINE
8
0
10
169.8452967
20
-38.46875
11
187.84346
21
-38.46875
0
LINE
8
0
10
189.4660643
20
-39.066868
11
194.6976043
21
-43.5301936
0
LINE
8
0
10
195.575
20
-45.4320756
11
195.575
21
-117.9095516
0
LINE
8
0
10
195.2453416
20
-119.1503649
11
175.838619
21
-153.0952132
0
LINE
8
0
10
172.420842
20
-154.020942
11
132.2791487
21
-130.9084579
0
ARC
8
0
10
40.975
20
-128.075
40
2.5
50
180
51
270
0
ARC
8
0
10
40.975
20
-33.4819415
40
2.5
50
98.4262878
51
180
0
ARC
8
0
10
95.659165
20
-25.38125
40
2.5
50
90
51
98.4262878
0
ARC
8
0
10
118.3268287
20
-25.38125
40
2.5
50
80.9354505
51
90
0
ARC
8
0
10
155.5087692
20
-31.3132372
40
2.5
50
52.6372872
51
80.9354505
0
ARC
8
0
10
169.8452967
20
-35.96875
40
2.5
50
232.6372872
51
270
0
ARC
8
0
10
187.84346
20
-40.96875
40
2.5
50
49.5306097
51
90
0
ARC
8
0
10
193.075
20
-45.4320756
40
2.5
50
0
51
49.5306097
0
ARC
8
0
10
193.075
20
-117.9095516
40
2.5
50
330.2428192
51
0
0
ARC
8
0
10
173.6682774
20
-151.8543999
40
2.5
50
240.0678449
51
330.2428192
0
ARC
8
0
10
131.0317133
20
-133.075
40
2.5
50
60.0678449
51
90
0
CIRCLE
8
0
10
187.8125
20
-44.27875
40
2.5
0
CIRCLE
8
0
10
179.24
20
-105.23875
40
2.5
0
CIRCLE
8
0
10
190.67
20
-111.90625
40
2.5
0
ARC
8
0
10
59.525
20
-109.525
40
2.5
50
96.3153155
51
418.2116698
0
ARC
8
0
10
59.525
20
-52.375
40
2.5
50
96.3153155
51
418.2116698
0
CIRCLE
8
0
10
93.715
20
-27.61
40
2.5
0
CIRCLE
8
0
10
97.025
20
-66.6625
40
2.5
0
CIRCLE
8
0
10
97.025
20
-104.7625
40
2.5
0
CIRCLE
8
0
10
158.335
20
-38.56375
40
2.5
0
CIRCLE
8
0
10
149.6508123
20
-114.3650796
40
2.5
0
LINE
8
0
10
40.25
20
-107.4
11
57.25
21
-107.4
0
LINE
8
0
10
57.25
20
-107.4
11
57.25
21
-97.4
0
LINE
8
0
10
57.25
20
-97.4
11
40.25
21
-97.4
0
LINE
8
0
10
40.25
20
-97.4
11
40.25
21
-107.4
0
LINE
8
0
10
40.25
20
-88.35
11
57.25
21
-88.35
0
LINE
8
0
10
57.25
20
-88.35
11
57.25
21
-78.35
0
LINE
8
0
10
57.25
20
-78.35
11
40.25
21
-78.35
0
LINE
8
0
10
40.25
20
-78.35
11
40.25
21
-88.35
0
LINE
8
0
10
40.25
20
-69.3
11
57.25
21
-69.3
0
LINE
8
0
10
57.25
20
-69.3
11
57.25
21
-59.3
0
LINE
8
0
10
57.25
20
-59.3
11
40.25
21
-59.3
0
LINE
8
0
10
40.25
20
-59.3
11
40.25
21
-69.3
0
LINE
8
0
10
40.25
20
-50.25
11
57.25
21
-50.25
0
LINE
8
0
10
57.25
20
-50.25
11
57.25
21
-40.25
0
LINE
8
0
10
57.25
20
-40.25
11
40.25
21
-40.25
0
LINE
8
0
10
40.25
20
-40.25
11
40.25
21
-50.25
0
LINE
8
0
10
60.8419567
20
-107.4
11
76.25
21
-107.4
0
LINE
8
0
10
76.25
20
-107.4
11
76.25
21
-97.4
0
LINE
8
0
10
76.25
20
-97.4
11
59.25
21
-97.4
0
LINE
8
0
10
59.25
20
-97.4
11
59.25
21
-107.040171
0
LINE
8
0
10
59.25
20
-88.35
11
76.25
21
-88.35
0
LINE
8
0
10
76.25
20
-88.35
11
76.25
21
-78.35
0
LINE
8
0
10
76.25
20
-78.35
11
59.25
21
-78.35
0
LINE
8
0
10
59.25
20
-78.35
11
59.25
21
-88.35
0
LINE
8
0
10
59.25
20
-69.3
11
76.25
21
-69.3
0
LINE
8
0
10
76.25
20
-69.3
11
76.25
21
-59.3
0
LINE
8
0
10
76.25
20
-59.3
11
59.25
21
-59.3
0
LINE
8
0
10
59.25
20
-59.3
11
59.25
21
-69.3
0
LINE
8
0
10
60.8419567
20
-50.25
11
76.25
21
-50.25
0
LINE
8
0
10
76.25
20
-50.25
11
76.25
21
-40.25
0
LINE
8
0
10
76.25
20
-40.25
11
59.25
21
-40.25
0
LINE
8
0
10
59.25
20
-40.25
11
59.25
21
-49.890171
0
LINE
8
0
10
78.25
20
-102.6375
11
95.25
21
-102.6375
0
LINE
8
0
10
95.25
20
-102.6375
11
95.25
21
-92.6375
0
LINE
8
0
10
95.25
20
-92.6375
11
78.25
21
-92.6375
0
LINE
8
0
10
78.25
20
-92.6375
11
78.25
21
-102.6375
0
LINE
8
0
10
78.25
20
-83.5875
11
95.25
21
-83.5875
0
LINE
8
0
10
95.25
20
-83.5875
11
95.25
21
-73.5875
0
LINE
8
0
10
95.25
20
-73.5875
11
78.25
21
-73.5875
0
LINE
8
0
10
78.25
20
-73.5875
11
78.25
21
-83.5875
0
LINE
8
0
10
78.25
20
-64.5375
11
95.25
21
-64.5375
0
LINE
8
0
10
95.25
20
-64.5375
11
95.25
21
-54.5375
0
LINE
8
0
10
95.25
20
-54.5375
11
78.25
21
-54.5375
0
LINE
8
0
10
78.25
20
-54.5375
11
78.25
21
-64.5375
0
LINE
8
0
10
78.25
20
-45.4875
11
95.25
21
-45.4875
0
LINE
8
0
10
95.25
20
-45.4875
11
95.25
21
-35.4875
0
LINE
8
0
10
95.25
20
-35.4875
11
78.25
21
-35.4875
0
LINE
8
0
10
78.25
20
-35.4875
11
78.25
21
-45.4875
0
LINE
8
0
10
97.25
20
-100.25625
11
114.25
21
-100.25625
0
LINE
8
0
10
114.25
20
-100.25625
11
114.25
21
-90.25625
0
LINE
8
0
10
114.25
20
-90.25625
11
97.25
21
-90.25625
0
LINE
8
0
10
97.25
20
-90.25625
11
97.25
21
-100.25625
0
LINE
8
0
10
97.25
20
-81.20625
11
114.25
21
-81.20625
0
LINE
8
0
10
114.25
20
-81.20625
11
114.25
21
-71.20625
0
LINE
8
0
10
114.25
20
-71.20625
11
97.25
21
-71.20625
0
LINE
8
0
10
97.25
20
-71.20625
11
97.25
21
-81.20625
0
LINE
8
0
10
97.25
20
-62.15625
11
114.25
21
-62.15625
0
LINE
8
0
10
114.25
20
-62.15625
11
114.25
21
-52.15625
0
LINE
8
0
10
114.25
20
-52.15625
11
97.25
21
-52.15625
0
LINE
8
0
10
97.25
20
-52.15625
11
97.25
21
-62.15625
0
LINE
8
0
10
97.25
20
-43.10625
11
114.25
21
-43.10625
0
LINE
8
0
10
114.25
20
-43.10625
11
114.25
21
-33.10625
0
LINE
8
0
10
114.25
20
-33.10625
11
97.25
21
-33.10625
0
LINE
8
0
10
97.25
20
-33.10625
11
97.25
21
-43.10625
0
LINE
8
0
10
116.25
20
-102.6375
11
133.25
21
-102.6375
0
LINE
8
0
10
133.25
20
-102.6375
11
133.25
21
-92.6375
0
LINE
8
0
10
133.25
20
-92.6375
11
116.25
21
-92.6375
0
LINE
8
0
10
116.25
20
-92.6375
11
116.25
21
-102.6375
0
LINE
8
0
10
116.25
20
-83.5875
11
133.25
21
-83.5875
0
LINE
8
0
10
133.25
20
-83.5875
11
133.25
21
-73.5875
0
LINE
8
0
10
133.25
20
-73.5875
11
116.25
21
-73.5875
0
LINE
8
0
10
116.25
20
-73.5875
11
116.25
21
-83.5875
0
LINE
8
0
10
116.25
20
-64.5375
11
133.25
21
-64.5375
0
LINE
8
0
10
133.25
20
-64.5375
11
133.25
21
-54.5375
0
LINE
8
0
10
133.25
20
-54.5375
11
116.25
21
-54.5375
0
LINE
8
0
10
116.25
20
-54.5375
11
116.25
21
-64.5375
0
LINE
8
0
10
116.25
20
-45.4875
11
133.25
21
-45.4875
0
LINE
8
0
10
133.25
20
-45.4875
11
133.25
21
-35.4875
0
LINE
8
0
10
133.25
20
-35.4875
11
116.25
21
-35.4875
0
LINE
8
0
10
116.25
20
-35.4875
11
116.25
21
-45.4875
0
LINE
8
0
10
135.25
20
-105.01875
11
152.25
21
-105.01875
0
LINE
8
0
10
152.25
20
-105.01875
11
152.25
21
-95.01875
0
LINE
8
0
10
152.25
20
-95.01875
11
135.25
21
-95.01875
0
LINE
8
0
10
135.25
20
-95.01875
11
135.25
21
-105.01875
0
LINE
8
0
10
135.25
20
-85.96875
11
152.25
21
-85.96875
0
LINE
8
0
10
152.25
20
-85.96875
11
152.25
21
-75.96875
0
LINE
8
0
10
152.25
20
-75.96875
11
135.25
21
-75.96875
0
LINE
8
0
10
135.25
20
-75.96875
11
135.25
21
-85.96875
0
LINE
8
0
10
135.25
20
-66.91875
11
152.25
21
-66.91875
0
LINE
8
0
10
152.25
20
-66.91875
11
152.25
21
-56.91875
0
LINE
8
0
10
152.25
20
-56.91875
11
135.25
21
-56.91875
0
LINE
8
0
10
135.25
20
-56.91875
11
135.25
21
-66.91875
0
LINE
8
0
10
135.25
20
-47.86875
11
152.25
21
-47.86875
0
LINE
8
0
10
152.25
20
-47.86875
11
152.25
21
-37.86875
0
LINE
8
0
10
152.25
20
-37.86875
11
135.25
21
-37.86875
0
LINE
8
0
10
135.25
20
-37.86875
11
135.25
21
-47.86875
0
LINE
8
0
10
154.25
20
-95.49375
11
171.25
21
-95.49375
0
LINE
8
0
10
171.25
20
-95.49375
11
171.25
21
-85.49375
0
LINE
8
0
10
171.25
20
-85.49375
11
154.25
21
-85.49375
0
LINE
8
0
10
154.25
20
-85.49375
11
154.25
21
-95.49375
0
LINE
8
0
10
154.25
20
-76.44375
11
171.25
21
-76.44375
0
LINE
8
0
10
171.25
20
-76.44375
11
171.25
21
-66.44375
0
LINE
8
0
10
171.25
20
-66.44375
11
154.25
21
-66.44375
0
LINE
8
0
10
154.25
20
-66.44375
11
154.25
21
-76.44375
0
LINE
8
0
10
154.25
20
-57.39375
11
171.25
21
-57.39375
0
LINE
8
0
10
171.25
20
-57.39375
11
171.25
21
-47.39375
0
LINE
8
0
10
171.25
20
-47.39375
11
154.25
21
-47.39375
0
LINE
8
0
10
154.25
20
-47.39375
11
154.25
21
-57.39375
0
LINE
8
0
10
40.25
20
-126.45
11
57.25
21
-126.45
0
LINE
8
0
10
57.25
20
-126.45
11
57.25
21
-116.45
0
LINE
8
0
10
57.25
20
-116.45
11
40.25
21
-116.45
0
LINE
8
0
10
40.25
20
-116.45
11
40.25
21
-126.45
0
LINE
8
0
10
59.25
20
-126.45
11
76.25
21
-126.45
0
LINE
8
0
10
76.25
20
-126.45
11
76.25
21
-116.45
0
LINE
8
0
10
76.25
20
-116.45
11
59.25
21
-116.45
0
LINE
8
0
10
59.25
20
-116.45
11
59.25
21
-126.45
0
LINE
8
0
10
78.25
20
-121.6875
11
95.25
21
-121.6875
0
LINE
8
0
10
95.25
20
-121.6875
11
95.25
21
-111.6875
0
LINE
8
0
10
95.25
20
-111.6875
11
78.25
21
-111.6875
0
LINE
8
0
10
78.25
20
-111.6875
11
78.25
21
-121.6875
0
LINE
8
0
10
97.25
20
-119.30625
11
114.25
21
-119.30625
0
LINE
8
0
10
114.25
20
-119.30625
11
114.25
21
-109.30625
0
LINE
8
0
10
114.25
20
-109.30625
11
97.25
21
-109.30625
0
LINE
8
0
10
97.25
20
-109.30625
11
97.25
21
-119.30625
0
LINE
8
0
10
125.2362523
20
-122.012338
11
139.9586841
21
-130.512338
0
LINE
8
0
10
139.9586841
20
-130.512338
11
144.9586841
21
-121.852084
0
LINE
8
0
10
144.9586841
20
-121.852084
11
130.2362523
21
-113.352084
0
LINE
8
0
10
130.2362523
20
-113.352084
11
125.2362523
21
-122.012338
0
LINE
8
0
10
160.1305707
20
-133.8736057
11
168.6305707
21
-119.1511739
0
LINE
8
0
10
168.6305707
20
-119.1511739
11
159.9703167
21
-114.1511739
0
LINE
8
0
10
159.9703167
20
-114.1511739
11
151.4703167
21
-128.8736057
0
LINE
8
0
10
151.4703167
20
-128.8736057
11
160.1305707
21
-133.8736057
0
LINE
8
0
10
158.2318202
20
-141.062338
11
172.954252
21
-149.562338
0
LINE
8
0
10
172.954252
20
-149.562338
11
177.954252
21
-140.902084
0
LINE
8
0
10
177.954252
20
-140.902084
11
163.2318202
21
-132.402084
0
LINE
8
0
10
163.2318202
20
-132.402084
11
158.2318202
21
-141.062338
0
LINE
8
0
10
167.7568202
20
-124.5645541
11
182.479252
21
-133.0645541
0
LINE
8
0
10
182.479252
20
-133.0645541
11
187.479252
21
-124.4043001
0
LINE
8
0
10
187.479252
20
-124.4043001
11
172.7568202
21
-115.9043001
0
LINE
8
0
10
172.7568202
20
-115.9043001
11
167.7568202
21
-124.5645541
0
ENDSEC
0
EOF