0
SECTION
2
HEADER
9
$INSUNITS
70
4
0
ENDSEC
0
SECTION
2
TABLES
0
TABLE
2
LTYPE
0
LTYPE
72
65
70
64
2
CONTINUOUS
3
______
73
0
40
0
0
ENDTAB
0
TABLE
2
LAYER
0
ENDTAB
0
ENDSEC
0
SECTION
2
ENTITIES
0
LINE
8
0
10
130.8980558
20
-130.575
11
41.475
21
-130.575
0
LINE
8
0
10
38.475
20
-127.575
11
38.475
21
-33.9724824
0
LINE
8
0
10
41.1019317
20
-30.9957694
11
95.289193
21
-24.204537
0
LINE
8
0
10
95.6622613
20
-24.18125
11
118.3377387
21
-24.18125
0
LINE
8
0
10
118.710807
20
-24.204537
11
155.7212877
21
-28.8430216
0
LINE
8
0
10
157.1687956
20
-29.4353054
11
168.19378
21
-37.8531792
0
LINE
8
0
10
170.0143562
20
-38.46875
11
184.1880165
21
-38.46875
0
LINE
8
0
10
185.6278707
20
-38.8368647
11
194.0148542
21
-43.4252239
0
LINE
8
0
10
195.575
20
-46.0571092
11
195.575
21
-117.776712
0
LINE
8
0
10
195.1794099
20
-119.2656879
11
176.0875407
21
-152.6598172
0
LINE
8
0
10
171.9862083
20
-153.7706918
11
132.3949783
21
-130.9751494
0
ARC
8
0
10
41.475
20
-127.575
40
3
50
180
51
270
0
ARC
8
0
10
41.475
20
-33.9724824
40
3
50
97.1435726
51
180
0
ARC
8
0
10
95.6622613
20
-27.18125
40
3
50
90
51
97.1435726
0
ARC
8
0
10
118.3377387
20
-27.18125
40
3
50
82.8564274
51
90
0
ARC
8
0
10
155.3482194
20
-31.8197346
40
3
50
52.6372872
51
82.8564274
0
ARC
8
0
10
170.0143562
20
-35.46875
40
3
50
232.6372872
51
270
0
ARC
8
0
10
184.1880165
20
-41.46875
40
3
50
61.3177727
51
90
0
ARC
8
0
10
192.575
20
-46.0571092
40
3
50
0
51
61.3177727
0
ARC
8
0
10
192.575
20
-117.776712
40
3
50
330.2428192
51
0
0
ARC
8
0
10
173.4831308
20
-151.1708412
40
3
50
240.0678449
51
330.2428192
0
ARC
8
0
10
130.8980558
20
-133.575
40
3
50
60.0678449
51
90
0
LINE
8
0
10
42.75
20
-107
11
57.25
21
-107
0
LINE
8
0
10
57.25
20
-107
11
57.25
21
-93
0
LINE
8
0
10
57.25
20
-93
11
42.75
21
-93
0
LINE
8
0
10
42.75
20
-93
11
42.75
21
-107
0
LINE
8
0
10
42.75
20
-87.95
11
57.25
21
-87.95
0
LINE
8
0
10
57.25
20
-87.95
11
57.25
21
-73.95
0
LINE
8
0
10
57.25
20
-73.95
11
42.75
21
-73.95
0
LINE
8
0
10
42.75
20
-73.95
11
42.75
21
-87.95
0
LINE
8
0
10
42.75
20
-68.9
11
57.25
21
-68.9
0
LINE
8
0
10
57.25
20
-68.9
11
57.25
21
-54.9
0
LINE
8
0
10
57.25
20
-54.9
11
42.75
21
-54.9
0
LINE
8
0
10
42.75
20
-54.9
11
42.75
21
-68.9
0
LINE
8
0
10
42.75
20
-49.85
11
57.25
21
-49.85
0
LINE
8
0
10
57.25
20
-49.85
11
57.25
21
-35.85
0
LINE
8
0
10
57.25
20
-35.85
11
42.75
21
-35.85
0
LINE
8
0
10
42.75
20
-35.85
11
42.75
21
-49.85
0
LINE
8
0
10
61.75
20
-107
11
76.25
21
-107
0
LINE
8
0
10
76.25
20
-107
11
76.25
21
-93
0
LINE
8
0
10
76.25
20
-93
11
61.75
21
-93
0
LINE
8
0
10
61.75
20
-93
11
61.75
21
-107
0
LINE
8
0
10
61.75
20
-87.95
11
76.25
21
-87.95
0
LINE
8
0
10
76.25
20
-87.95
11
76.25
21
-73.95
0
LINE
8
0
10
76.25
20
-73.95
11
61.75
21
-73.95
0
LINE
8
0
10
61.75
20
-73.95
11
61.75
21
-87.95
0
LINE
8
0
10
61.75
20
-68.9
11
76.25
21
-68.9
0
LINE
8
0
10
76.25
20
-68.9
11
76.25
21
-54.9
0
LINE
8
0
10
76.25
20
-54.9
11
61.75
21
-54.9
0
LINE
8
0
10
61.75
20
-54.9
11
61.75
21
-68.9
0
LINE
8
0
10
61.75
20
-49.85
11
76.25
21
-49.85
0
LINE
8
0
10
76.25
20
-49.85
11
76.25
21
-35.85
0
LINE
8
0
10
76.25
20
-35.85
11
61.75
21
-35.85
0
LINE
8
0
10
61.75
20
-35.85
11
61.75
21
-49.85
0
LINE
8
0
10
80.75
20
-102.2375
11
95.25
21
-102.2375
0
LINE
8
0
10
95.25
20
-102.2375
11
95.25
21
-88.2375
0
LINE
8
0
10
95.25
20
-88.2375
11
80.75
21
-88.2375
0
LINE
8
0
10
80.75
20
-88.2375
11
80.75
21
-102.2375
0
LINE
8
0
10
80.75
20
-83.1875
11
95.25
21
-83.1875
0
LINE
8
0
10
95.25
20
-83.1875
11
95.25
21
-69.1875
0
LINE
8
0
10
95.25
20
-69.1875
11
80.75
21
-69.1875
0
LINE
8
0
10
80.75
20
-69.1875
11
80.75
21
-83.1875
0
LINE
8
0
10
80.75
20
-64.1375
11
95.25
21
-64.1375
0
LINE
8
0
10
95.25
20
-64.1375
11
95.25
21
-50.1375
0
LINE
8
0
10
95.25
20
-50.1375
11
80.75
21
-50.1375
0
LINE
8
0
10
80.75
20
-50.1375
11
80.75
21
-64.1375
0
LINE
8
0
10
80.75
20
-45.0875
11
95.25
21
-45.0875
0
LINE
8
0
10
95.25
20
-45.0875
11
95.25
21
-31.0875
0
LINE
8
0
10
95.25
20
-31.0875
11
80.75
21
-31.0875
0
LINE
8
0
10
80.75
20
-31.0875
11
80.75
21
-45.0875
0
LINE
8
0
10
99.75
20
-99.85625
11
114.25
21
-99.85625
0
LINE
8
0
10
114.25
20
-99.85625
11
114.25
21
-85.85625
0
LINE
8
0
10
114.25
20
-85.85625
11
99.75
21
-85.85625
0
LINE
8
0
10
99.75
20
-85.85625
11
99.75
21
-99.85625
0
LINE
8
0
10
99.75
20
-80.80625
11
114.25
21
-80.80625
0
LINE
8
0
10
114.25
20
-80.80625
11
114.25
21
-66.80625
0
LINE
8
0
10
114.25
20
-66.80625
11
99.75
21
-66.80625
0
LINE
8
0
10
99.75
20
-66.80625
11
99.75
21
-80.80625
0
LINE
8
0
10
99.75
20
-61.75625
11
114.25
21
-61.75625
0
LINE
8
0
10
114.25
20
-61.75625
11
114.25
21
-47.75625
0
LINE
8
0
10
114.25
20
-47.75625
11
99.75
21
-47.75625
0
LINE
8
0
10
99.75
20
-47.75625
11
99.75
21
-61.75625
0
LINE
8
0
10
99.75
20
-42.70625
11
114.25
21
-42.70625
0
LINE
8
0
10
114.25
20
-42.70625
11
114.25
21
-28.70625
0
LINE
8
0
10
114.25
20
-28.70625
11
99.75
21
-28.70625
0
LINE
8
0
10
99.75
20
-28.70625
11
99.75
21
-42.70625
0
LINE
8
0
10
118.75
20
-102.2375
11
133.25
21
-102.2375
0
LINE
8
0
10
133.25
20
-102.2375
11
133.25
21
-88.2375
0
LINE
8
0
10
133.25
20
-88.2375
11
118.75
21
-88.2375
0
LINE
8
0
10
118.75
20
-88.2375
11
118.75
21
-102.2375
0
LINE
8
0
10
118.75
20
-83.1875
11
133.25
21
-83.1875
0
LINE
8
0
10
133.25
20
-83.1875
11
133.25
21
-69.1875
0
LINE
8
0
10
133.25
20
-69.1875
11
118.75
21
-69.1875
0
LINE
8
0
10
118.75
20
-69.1875
11
118.75
21
-83.1875
0
LINE
8
0
10
118.75
20
-64.1375
11
133.25
21
-64.1375
0
LINE
8
0
10
133.25
20
-64.1375
11
133.25
21
-50.1375
0
LINE
8
0
10
133.25
20
-50.1375
11
118.75
21
-50.1375
0
LINE
8
0
10
118.75
20
-50.1375
11
118.75
21
-64.1375
0
LINE
8
0
10
118.75
20
-45.0875
11
133.25
21
-45.0875
0
LINE
8
0
10
133.25
20
-45.0875
11
133.25
21
-31.0875
0
LINE
8
0
10
133.25
20
-31.0875
11
118.75
21
-31.0875
0
LINE
8
0
10
118.75
20
-31.0875
11
118.75
21
-45.0875
0
LINE
8
0
10
137.75
20
-104.61875
11
152.25
21
-104.61875
0
LINE
8
0
10
152.25
20
-104.61875
11
152.25
21
-90.61875
0
LINE
8
0
10
152.25
20
-90.61875
11
137.75
21
-90.61875
0
LINE
8
0
10
137.75
20
-90.61875
11
137.75
21
-104.61875
0
LINE
8
0
10
137.75
20
-85.56875
11
152.25
21
-85.56875
0
LINE
8
0
10
152.25
20
-85.56875
11
152.25
21
-71.56875
0
LINE
8
0
10
152.25
20
-71.56875
11
137.75
21
-71.56875
0
LINE
8
0
10
137.75
20
-71.56875
11
137.75
21
-85.56875
0
LINE
8
0
10
137.75
20
-66.51875
11
152.25
21
-66.51875
0
LINE
8
0
10
152.25
20
-66.51875
11
152.25
21
-52.51875
0
LINE
8
0
10
152.25
20
-52.51875
11
137.75
21
-52.51875
0
LINE
8
0
10
137.75
20
-52.51875
11
137.75
21
-66.51875
0
LINE
8
0
10
137.75
20
-47.46875
11
152.25
21
-47.46875
0
LINE
8
0
10
152.25
20
-47.46875
11
152.25
21
-33.46875
0
LINE
8
0
10
152.25
20
-33.46875
11
137.75
21
-33.46875
0
LINE
8
0
10
137.75
20
-33.46875
11
137.75
21
-47.46875
0
LINE
8
0
10
156.75
20
-95.09375
11
171.25
21
-95.09375
0
LINE
8
0
10
171.25
20
-95.09375
11
171.25
21
-81.09375
0
LINE
8
0
10
171.25
20
-81.09375
11
156.75
21
-81.09375
0
LINE
8
0
10
156.75
20
-81.09375
11
156.75
21
-95.09375
0
LINE
8
0
10
156.75
20
-76.04375
11
171.25
21
-76.04375
0
LINE
8
0
10
171.25
20
-76.04375
11
171.25
21
-62.04375
0
LINE
8
0
10
171.25
20
-62.04375
11
156.75
21
-62.04375
0
LINE
8
0
10
156.75
20
-62.04375
11
156.75
21
-76.04375
0
LINE
8
0
10
156.75
20
-56.99375
11
171.25
21
-56.99375
0
LINE
8
0
10
171.25
20
-56.99375
11
171.25
21
-42.99375
0
LINE
8
0
10
171.25
20
-42.99375
11
156.75
21
-42.99375
0
LINE
8
0
10
156.75
20
-42.99375
11
156.75
21
-56.99375
0
LINE
8
0
10
42.75
20
-126.05
11
57.25
21
-126.05
0
LINE
8
0
10
57.25
20
-126.05
11
57.25
21
-112.05
0
LINE
8
0
10
57.25
20
-112.05
11
42.75
21
-112.05
0
LINE
8
0
10
42.75
20
-112.05
11
42.75
21
-126.05
0
LINE
8
0
10
61.75
20
-126.05
11
76.25
21
-126.05
0
LINE
8
0
10
76.25
20
-126.05
11
76.25
21
-112.05
0
LINE
8
0
10
76.25
20
-112.05
11
61.75
21
-112.05
0
LINE
8
0
10
61.75
20
-112.05
11
61.75
21
-126.05
0
LINE
8
0
10
80.75
20
-121.2875
11
95.25
21
-121.2875
0
LINE
8
0
10
95.25
20
-121.2875
11
95.25
21
-107.2875
0
LINE
8
0
10
95.25
20
-107.2875
11
80.75
21
-107.2875
0
LINE
8
0
10
80.75
20
-107.2875
11
80.75
21
-121.2875
0
LINE
8
0
10
99.75
20
-118.90625
11
114.25
21
-118.90625
0
LINE
8
0
10
114.25
20
-118.90625
11
114.25
21
-104.90625
0
LINE
8
0
10
114.25
20
-104.90625
11
99.75
21
-104.90625
0
LINE
8
0
10
99.75
20
-104.90625
11
99.75
21
-118.90625
0
LINE
8
0
10
127.6013158
20
-122.9159278
11
140.1586842
21
-130.1659278
0
LINE
8
0
10
140.1586842
20
-130.1659278
11
147.1586842
21
-118.0415722
0
LINE
8
0
10
147.1586842
20
-118.0415722
11
134.6013158
21
-110.7915722
0
LINE
8
0
10
134.6013158
20
-110.7915722
11
127.6013158
21
-122.9159278
0
LINE
8
0
10
161.0341605
20
-131.5085422
11
168.2841605
21
-118.9511738
0
LINE
8
0
10
168.2841605
20
-118.9511738
11
167.6562921
21
-118.5886738
0
LINE
8
0
10
156.7876733
20
-112.3136738
11
156.1598049
21
-111.9511738
0
LINE
8
0
10
156.1598049
20
-111.9511738
11
148.9098049
21
-124.5085422
0
LINE
8
0
10
148.9098049
20
-124.5085422
11
149.5376733
21
-124.8710422
0
LINE
8
0
10
160.4062921
20
-131.1460422
11
161.0341605
21
-131.5085422
0
LINE
8
0
10
160.5968837
20
-141.9659278
11
173.1542521
21
-149.2159278
0
LINE
8
0
10
173.1542521
20
-149.2159278
11
180.1542521
21
-137.0915722
0
LINE
8
0
10
180.1542521
20
-137.0915722
11
167.5968837
21
-129.8415722
0
LINE
8
0
10
167.5968837
20
-129.8415722
11
160.5968837
21
-141.9659278
0
LINE
8
0
10
170.1218837
20
-125.4681439
11
182.6792521
21
-132.7181439
0
LINE
8
0
10
182.6792521
20
-132.7181439
11
189.6792521
21
-120.5937883
0
LINE
8
0
10
189.6792521
20
-120.5937883
11
177.1218837
21
-113.3437883
0
LINE
8
0
10
177.1218837
20
-113.3437883
11
170.1218837
21
-125.4681439
0
LINE
8
0
10
155.4587921
20
-139.7153635
11
160.4062921
21
-131.1460422
0
LINE
8
0
10
167.6562921
20
-118.5886738
11
172.6037921
21
-110.0193525
0
LINE
8
0
10
172.6037921
20
-110.0193525
11
161.7351733
21
-103.7443525
0
LINE
8
0
10
161.7351733
20
-103.7443525
11
156.7876733
21
-112.3136738
0
LINE
8
0
10
149.5376733
20
-124.8710422
11
144.5901733
21
-133.4403635
0
LINE
8
0
10
144.5901733
20
-133.4403635
11
155.4587921
21
-139.7153635
0
ENDSEC
0
EOF