0
SECTION
2
HEADER
9
$INSUNITS
70
4
0
ENDSEC
0
SECTION
2
TABLES
0
TABLE
2
LTYPE
0
LTYPE
72
65
70
64
2
CONTINUOUS
3
______
73
0
40
0
0
ENDTAB
0
TABLE
2
LAYER
0
ENDTAB
0
ENDSEC
0
SECTION
2
ENTITIES
0
LINE
8
0
10
131.0317133
20
-130.575
11
40.975
21
-130.575
0
LINE
8
0
10
38.475
20
-128.075
11
38.475
21
-33.4819415
0
LINE
8
0
10
40.6086578
20
-31.0089286
11
95.2928227
21
-22.908237
0
LINE
8
0
10
95.659165
20
-22.88125
11
118.3268287
21
-22.88125
0
LINE
8
0
10
118.7206964
20
-22.9124713
11
155.9026369
21
-28.8444585
0
LINE
8
0
10
157.025916
20
-29.3262129
11
168.3281499
21
-37.9557743
0
LINE
8
0
10
169.8452967
20
-38.46875
11
173.025
21
-38.46875
0
LINE
8
0
10
193.6789417
20
-121.8901993
11
175.838619
21
-153.0952132
0
LINE
8
0
10
172.420842
20
-154.020942
11
132.2791487
21
-130.9084579
0
LINE
8
0
10
175.525
20
-40.96875
11
175.525
21
-106.7282741
0
LINE
8
0
10
176.7387605
20
-108.8720063
11
192.7948396
21
-118.5056538
0
ARC
8
0
10
40.975
20
-128.075
40
2.5
50
180
51
270
0
ARC
8
0
10
40.975
20
-33.4819415
40
2.5
50
98.4262878
51
180
0
ARC
8
0
10
95.659165
20
-25.38125
40
2.5
50
90
51
98.4262878
0
ARC
8
0
10
118.3268287
20
-25.38125
40
2.5
50
80.9354505
51
90
0
ARC
8
0
10
155.5087692
20
-31.3132372
40
2.5
50
52.6372872
51
80.9354505
0
ARC
8
0
10
169.8452967
20
-35.96875
40
2.5
50
232.6372872
51
270
0
ARC
8
0
10
173.025
20
-40.96875
40
2.5
50
0
51
90
0
ARC
8
0
10
178.025
20
-106.7282741
40
2.5
50
180
51
239.0362405
0
ARC
8
0
10
191.5086001
20
-120.649386
40
2.5
50
330.2428192
51
59.0362405
0
ARC
8
0
10
173.6682774
20
-151.8543999
40
2.5
50
240.0678449
51
330.2428192
0
ARC
8
0
10
131.0317133
20
-133.075
40
2.5
50
60.0678449
51
90
0
LINE
8
0
10
42.75
20
-107
11
57.25
21
-107
0
LINE
8
0
10
57.25
20
-107
11
57.25
21
-99.75
0
LINE
8
0
10
57.25
20
-94.25
11
57.25
21
-93
0
LINE
8
0
10
57.25
20
-93
11
42.75
21
-93
0
LINE
8
0
10
42.75
20
-93
11
42.75
21
-107
0
LINE
8
0
10
42.75
20
-87.95
11
57.25
21
-87.95
0
LINE
8
0
10
57.25
20
-87.95
11
57.25
21
-80.7
0
LINE
8
0
10
57.25
20
-75.2
11
57.25
21
-73.95
0
LINE
8
0
10
57.25
20
-73.95
11
42.75
21
-73.95
0
LINE
8
0
10
42.75
20
-73.95
11
42.75
21
-87.95
0
LINE
8
0
10
42.75
20
-68.9
11
57.25
21
-68.9
0
LINE
8
0
10
57.25
20
-68.9
11
57.25
21
-61.65
0
LINE
8
0
10
57.25
20
-56.15
11
57.25
21
-54.9
0
LINE
8
0
10
57.25
20
-54.9
11
42.75
21
-54.9
0
LINE
8
0
10
42.75
20
-54.9
11
42.75
21
-68.9
0
LINE
8
0
10
42.75
20
-49.85
11
57.25
21
-49.85
0
LINE
8
0
10
57.25
20
-49.85
11
57.25
21
-42.6
0
LINE
8
0
10
57.25
20
-37.1
11
57.25
21
-35.85
0
LINE
8
0
10
57.25
20
-35.85
11
42.75
21
-35.85
0
LINE
8
0
10
42.75
20
-35.85
11
42.75
21
-49.85
0
LINE
8
0
10
61.75
20
-107
11
76.25
21
-107
0
LINE
8
0
10
76.25
20
-107
11
76.25
21
-99.75
0
LINE
8
0
10
76.25
20
-94.25
11
76.25
21
-93
0
LINE
8
0
10
76.25
20
-93
11
61.75
21
-93
0
LINE
8
0
10
61.75
20
-93
11
61.75
21
-107
0
LINE
8
0
10
61.75
20
-87.95
11
76.25
21
-87.95
0
LINE
8
0
10
76.25
20
-87.95
11
76.25
21
-80.7
0
LINE
8
0
10
76.25
20
-75.2
11
76.25
21
-73.95
0
LINE
8
0
10
76.25
20
-73.95
11
61.75
21
-73.95
0
LINE
8
0
10
61.75
20
-73.95
11
61.75
21
-87.95
0
LINE
8
0
10
61.75
20
-68.9
11
76.25
21
-68.9
0
LINE
8
0
10
76.25
20
-68.9
11
76.25
21
-61.65
0
LINE
8
0
10
76.25
20
-56.15
11
76.25
21
-54.9
0
LINE
8
0
10
76.25
20
-54.9
11
61.75
21
-54.9
0
LINE
8
0
10
61.75
20
-54.9
11
61.75
21
-68.9
0
LINE
8
0
10
61.75
20
-49.85
11
76.25
21
-49.85
0
LINE
8
0
10
76.25
20
-49.85
11
76.25
21
-42.6
0
LINE
8
0
10
76.25
20
-37.1
11
76.25
21
-35.85
0
LINE
8
0
10
76.25
20
-35.85
11
61.75
21
-35.85
0
LINE
8
0
10
61.75
20
-35.85
11
61.75
21
-49.85
0
LINE
8
0
10
80.75
20
-102.2375
11
95.25
21
-102.2375
0
LINE
8
0
10
95.25
20
-102.2375
11
95.25
21
-94.9875
0
LINE
8
0
10
95.25
20
-89.4875
11
95.25
21
-88.2375
0
LINE
8
0
10
95.25
20
-88.2375
11
80.75
21
-88.2375
0
LINE
8
0
10
80.75
20
-88.2375
11
80.75
21
-102.2375
0
LINE
8
0
10
80.75
20
-83.1875
11
95.25
21
-83.1875
0
LINE
8
0
10
95.25
20
-83.1875
11
95.25
21
-75.9375
0
LINE
8
0
10
95.25
20
-70.4375
11
95.25
21
-69.1875
0
LINE
8
0
10
95.25
20
-69.1875
11
80.75
21
-69.1875
0
LINE
8
0
10
80.75
20
-69.1875
11
80.75
21
-83.1875
0
LINE
8
0
10
80.75
20
-64.1375
11
95.25
21
-64.1375
0
LINE
8
0
10
95.25
20
-64.1375
11
95.25
21
-56.8875
0
LINE
8
0
10
95.25
20
-51.3875
11
95.25
21
-50.1375
0
LINE
8
0
10
95.25
20
-50.1375
11
80.75
21
-50.1375
0
LINE
8
0
10
80.75
20
-50.1375
11
80.75
21
-64.1375
0
LINE
8
0
10
80.75
20
-45.0875
11
95.25
21
-45.0875
0
LINE
8
0
10
95.25
20
-45.0875
11
95.25
21
-37.8375
0
LINE
8
0
10
95.25
20
-32.3375
11
95.25
21
-31.0875
0
LINE
8
0
10
95.25
20
-31.0875
11
80.75
21
-31.0875
0
LINE
8
0
10
80.75
20
-31.0875
11
80.75
21
-45.0875
0
LINE
8
0
10
99.75
20
-99.85625
11
114.25
21
-99.85625
0
LINE
8
0
10
114.25
20
-99.85625
11
114.25
21
-92.60625
0
LINE
8
0
10
114.25
20
-87.10625
11
114.25
21
-85.85625
0
LINE
8
0
10
114.25
20
-85.85625
11
99.75
21
-85.85625
0
LINE
8
0
10
99.75
20
-85.85625
11
99.75
21
-99.85625
0
LINE
8
0
10
99.75
20
-80.80625
11
114.25
21
-80.80625
0
LINE
8
0
10
114.25
20
-80.80625
11
114.25
21
-73.55625
0
LINE
8
0
10
114.25
20
-68.05625
11
114.25
21
-66.80625
0
LINE
8
0
10
114.25
20
-66.80625
11
99.75
21
-66.80625
0
LINE
8
0
10
99.75
20
-66.80625
11
99.75
21
-80.80625
0
LINE
8
0
10
99.75
20
-61.75625
11
114.25
21
-61.75625
0
LINE
8
0
10
114.25
20
-61.75625
11
114.25
21
-54.50625
0
LINE
8
0
10
114.25
20
-49.00625
11
114.25
21
-47.75625
0
LINE
8
0
10
114.25
20
-47.75625
11
99.75
21
-47.75625
0
LINE
8
0
10
99.75
20
-47.75625
11
99.75
21
-61.75625
0
LINE
8
0
10
99.75
20
-42.70625
11
114.25
21
-42.70625
0
LINE
8
0
10
114.25
20
-42.70625
11
114.25
21
-35.45625
0
LINE
8
0
10
114.25
20
-29.95625
11
114.25
21
-28.70625
0
LINE
8
0
10
114.25
20
-28.70625
11
99.75
21
-28.70625
0
LINE
8
0
10
99.75
20
-28.70625
11
99.75
21
-42.70625
0
LINE
8
0
10
118.75
20
-102.2375
11
133.25
21
-102.2375
0
LINE
8
0
10
133.25
20
-102.2375
11
133.25
21
-94.9875
0
LINE
8
0
10
133.25
20
-89.4875
11
133.25
21
-88.2375
0
LINE
8
0
10
133.25
20
-88.2375
11
118.75
21
-88.2375
0
LINE
8
0
10
118.75
20
-88.2375
11
118.75
21
-102.2375
0
LINE
8
0
10
118.75
20
-83.1875
11
133.25
21
-83.1875
0
LINE
8
0
10
133.25
20
-83.1875
11
133.25
21
-75.9375
0
LINE
8
0
10
133.25
20
-70.4375
11
133.25
21
-69.1875
0
LINE
8
0
10
133.25
20
-69.1875
11
118.75
21
-69.1875
0
LINE
8
0
10
118.75
20
-69.1875
11
118.75
21
-83.1875
0
LINE
8
0
10
118.75
20
-64.1375
11
133.25
21
-64.1375
0
LINE
8
0
10
133.25
20
-64.1375
11
133.25
21
-56.8875
0
LINE
8
0
10
133.25
20
-51.3875
11
133.25
21
-50.1375
0
LINE
8
0
10
133.25
20
-50.1375
11
118.75
21
-50.1375
0
LINE
8
0
10
118.75
20
-50.1375
11
118.75
21
-64.1375
0
LINE
8
0
10
118.75
20
-45.0875
11
133.25
21
-45.0875
0
LINE
8
0
10
133.25
20
-45.0875
11
133.25
21
-37.8375
0
LINE
8
0
10
133.25
20
-32.3375
11
133.25
21
-31.0875
0
LINE
8
0
10
133.25
20
-31.0875
11
118.75
21
-31.0875
0
LINE
8
0
10
118.75
20
-31.0875
11
118.75
21
-45.0875
0
LINE
8
0
10
137.75
20
-104.61875
11
152.25
21
-104.61875
0
LINE
8
0
10
152.25
20
-104.61875
11
152.25
21
-97.36875
0
LINE
8
0
10
152.25
20
-91.86875
11
152.25
21
-90.61875
0
LINE
8
0
10
152.25
20
-90.61875
11
137.75
21
-90.61875
0
LINE
8
0
10
137.75
20
-90.61875
11
137.75
21
-104.61875
0
LINE
8
0
10
137.75
20
-85.56875
11
152.25
21
-85.56875
0
LINE
8
0
10
152.25
20
-85.56875
11
152.25
21
-78.31875
0
LINE
8
0
10
152.25
20
-72.81875
11
152.25
21
-71.56875
0
LINE
8
0
10
152.25
20
-71.56875
11
137.75
21
-71.56875
0
LINE
8
0
10
137.75
20
-71.56875
11
137.75
21
-85.56875
0
LINE
8
0
10
137.75
20
-66.51875
11
152.25
21
-66.51875
0
LINE
8
0
10
152.25
20
-66.51875
11
152.25
21
-59.26875
0
LINE
8
0
10
152.25
20
-53.76875
11
152.25
21
-52.51875
0
LINE
8
0
10
152.25
20
-52.51875
11
137.75
21
-52.51875
0
LINE
8
0
10
137.75
20
-52.51875
11
137.75
21
-66.51875
0
LINE
8
0
10
137.75
20
-47.46875
11
152.25
21
-47.46875
0
LINE
8
0
10
152.25
20
-47.46875
11
152.25
21
-40.21875
0
LINE
8
0
10
152.25
20
-34.71875
11
152.25
21
-33.46875
0
LINE
8
0
10
152.25
20
-33.46875
11
137.75
21
-33.46875
0
LINE
8
0
10
137.75
20
-33.46875
11
137.75
21
-47.46875
0
LINE
8
0
10
156.75
20
-95.09375
11
171.25
21
-95.09375
0
LINE
8
0
10
171.25
20
-95.09375
11
171.25
21
-87.84375
0
LINE
8
0
10
171.25
20
-82.34375
11
171.25
21
-81.09375
0
LINE
8
0
10
171.25
20
-81.09375
11
156.75
21
-81.09375
0
LINE
8
0
10
156.75
20
-81.09375
11
156.75
21
-95.09375
0
LINE
8
0
10
156.75
20
-76.04375
11
171.25
21
-76.04375
0
LINE
8
0
10
171.25
20
-76.04375
11
171.25
21
-68.79375
0
LINE
8
0
10
171.25
20
-63.29375
11
171.25
21
-62.04375
0
LINE
8
0
10
171.25
20
-62.04375
11
156.75
21
-62.04375
0
LINE
8
0
10
156.75
20
-62.04375
11
156.75
21
-76.04375
0
LINE
8
0
10
156.75
20
-56.99375
11
171.25
21
-56.99375
0
LINE
8
0
10
171.25
20
-56.99375
11
171.25
21
-49.74375
0
LINE
8
0
10
171.25
20
-44.24375
11
171.25
21
-42.99375
0
LINE
8
0
10
171.25
20
-42.99375
11
156.75
21
-42.99375
0
LINE
8
0
10
156.75
20
-42.99375
11
156.75
21
-56.99375
0
LINE
8
0
10
42.75
20
-126.05
11
57.25
21
-126.05
0
LINE
8
0
10
57.25
20
-126.05
11
57.25
21
-118.8
0
LINE
8
0
10
57.25
20
-113.3
11
57.25
21
-112.05
0
LINE
8
0
10
57.25
20
-112.05
11
42.75
21
-112.05
0
LINE
8
0
10
42.75
20
-112.05
11
42.75
21
-126.05
0
LINE
8
0
10
61.75
20
-126.05
11
76.25
21
-126.05
0
LINE
8
0
10
76.25
20
-126.05
11
76.25
21
-118.8
0
LINE
8
0
10
76.25
20
-113.3
11
76.25
21
-112.05
0
LINE
8
0
10
76.25
20
-112.05
11
61.75
21
-112.05
0
LINE
8
0
10
61.75
20
-112.05
11
61.75
21
-126.05
0
LINE
8
0
10
80.75
20
-121.2875
11
95.25
21
-121.2875
0
LINE
8
0
10
95.25
20
-121.2875
11
95.25
21
-114.0375
0
LINE
8
0
10
95.25
20
-108.5375
11
95.25
21
-107.2875
0
LINE
8
0
10
95.25
20
-107.2875
11
80.75
21
-107.2875
0
LINE
8
0
10
80.75
20
-107.2875
11
80.75
21
-121.2875
0
LINE
8
0
10
99.75
20
-118.90625
11
114.25
21
-118.90625
0
LINE
8
0
10
114.25
20
-118.90625
11
114.25
21
-111.65625
0
LINE
8
0
10
114.25
20
-106.15625
11
114.25
21
-104.90625
0
LINE
8
0
10
114.25
20
-104.90625
11
99.75
21
-104.90625
0
LINE
8
0
10
99.75
20
-104.90625
11
99.75
21
-118.90625
0
LINE
8
0
10
127.6013158
20
-122.9159278
11
140.1586842
21
-130.1659278
0
LINE
8
0
10
140.1586842
20
-130.1659278
11
143.7836842
21
-123.8872437
0
LINE
8
0
10
146.5336842
20
-119.1241039
11
147.1586842
21
-118.0415722
0
LINE
8
0
10
147.1586842
20
-118.0415722
11
134.6013158
21
-110.7915722
0
LINE
8
0
10
134.6013158
20
-110.7915722
11
127.6013158
21
-122.9159278
0
LINE
8
0
10
161.0341605
20
-131.5085422
11
168.2841605
21
-118.9511738
0
LINE
8
0
10
168.2841605
20
-118.9511738
11
167.6562921
21
-118.5886738
0
LINE
8
0
10
156.7876733
20
-112.3136738
11
156.1598049
21
-111.9511738
0
LINE
8
0
10
156.1598049
20
-111.9511738
11
148.9098049
21
-124.5085422
0
LINE
8
0
10
148.9098049
20
-124.5085422
11
149.5376733
21
-124.8710422
0
LINE
8
0
10
160.4062921
20
-131.1460422
11
161.0341605
21
-131.5085422
0
LINE
8
0
10
160.5968837
20
-141.9659278
11
173.1542521
21
-149.2159278
0
LINE
8
0
10
173.1542521
20
-149.2159278
11
176.7792521
21
-142.9372437
0
LINE
8
0
10
179.5292521
20
-138.1741039
11
180.1542521
21
-137.0915722
0
LINE
8
0
10
180.1542521
20
-137.0915722
11
167.5968837
21
-129.8415722
0
LINE
8
0
10
167.5968837
20
-129.8415722
11
160.5968837
21
-141.9659278
0
LINE
8
0
10
170.1218837
20
-125.4681439
11
182.6792521
21
-132.7181439
0
LINE
8
0
10
182.6792521
20
-132.7181439
11
186.3042521
21
-126.4394598
0
LINE
8
0
10
189.0542521
20
-121.67632
11
189.6792521
21
-120.5937883
0
LINE
8
0
10
189.6792521
20
-120.5937883
11
177.1218837
21
-113.3437883
0
LINE
8
0
10
177.1218837
20
-113.3437883
11
170.1218837
21
-125.4681439
0
LINE
8
0
10
57.25
20
-99.75
11
59.25
21
-99.75
0
LINE
8
0
10
59.25
20
-99.75
11
59.25
21
-94.25
0
LINE
8
0
10
59.25
20
-94.25
11
57.25
21
-94.25
0
LINE
8
0
10
57.25
20
-80.7
11
59.25
21
-80.7
0
LINE
8
0
10
59.25
20
-80.7
11
59.25
21
-75.2
0
LINE
8
0
10
59.25
20
-75.2
11
57.25
21
-75.2
0
LINE
8
0
10
57.25
20
-61.65
11
59.25
21
-61.65
0
LINE
8
0
10
59.25
20
-61.65
11
59.25
21
-56.15
0
LINE
8
0
10
59.25
20
-56.15
11
57.25
21
-56.15
0
LINE
8
0
10
57.25
20
-42.6
11
59.25
21
-42.6
0
LINE
8
0
10
59.25
20
-42.6
11
59.25
21
-37.1
0
LINE
8
0
10
59.25
20
-37.1
11
57.25
21
-37.1
0
LINE
8
0
10
76.25
20
-99.75
11
78.25
21
-99.75
0
LINE
8
0
10
78.25
20
-99.75
11
78.25
21
-94.25
0
LINE
8
0
10
78.25
20
-94.25
11
76.25
21
-94.25
0
LINE
8
0
10
76.25
20
-80.7
11
78.25
21
-80.7
0
LINE
8
0
10
78.25
20
-80.7
11
78.25
21
-75.2
0
LINE
8
0
10
78.25
20
-75.2
11
76.25
21
-75.2
0
LINE
8
0
10
76.25
20
-61.65
11
78.25
21
-61.65
0
LINE
8
0
10
78.25
20
-61.65
11
78.25
21
-56.15
0
LINE
8
0
10
78.25
20
-56.15
11
76.25
21
-56.15
0
LINE
8
0
10
76.25
20
-42.6
11
78.25
21
-42.6
0
LINE
8
0
10
78.25
20
-42.6
11
78.25
21
-37.1
0
LINE
8
0
10
78.25
20
-37.1
11
76.25
21
-37.1
0
LINE
8
0
10
95.25
20
-94.9875
11
97.25
21
-94.9875
0
LINE
8
0
10
97.25
20
-94.9875
11
97.25
21
-89.4875
0
LINE
8
0
10
97.25
20
-89.4875
11
95.25
21
-89.4875
0
LINE
8
0
10
95.25
20
-75.9375
11
97.25
21
-75.9375
0
LINE
8
0
10
97.25
20
-75.9375
11
97.25
21
-70.4375
0
LINE
8
0
10
97.25
20
-70.4375
11
95.25
21
-70.4375
0
LINE
8
0
10
95.25
20
-56.8875
11
97.25
21
-56.8875
0
LINE
8
0
10
97.25
20
-56.8875
11
97.25
21
-51.3875
0
LINE
8
0
10
97.25
20
-51.3875
11
95.25
21
-51.3875
0
LINE
8
0
10
95.25
20
-37.8375
11
97.25
21
-37.8375
0
LINE
8
0
10
97.25
20
-37.8375
11
97.25
21
-32.3375
0
LINE
8
0
10
97.25
20
-32.3375
11
95.25
21
-32.3375
0
LINE
8
0
10
114.25
20
-92.60625
11
116.25
21
-92.60625
0
LINE
8
0
10
116.25
20
-92.60625
11
116.25
21
-87.10625
0
LINE
8
0
10
116.25
20
-87.10625
11
114.25
21
-87.10625
0
LINE
8
0
10
114.25
20
-73.55625
11
116.25
21
-73.55625
0
LINE
8
0
10
116.25
20
-73.55625
11
116.25
21
-68.05625
0
LINE
8
0
10
116.25
20
-68.05625
11
114.25
21
-68.05625
0
LINE
8
0
10
114.25
20
-54.50625
11
116.25
21
-54.50625
0
LINE
8
0
10
116.25
20
-54.50625
11
116.25
21
-49.00625
0
LINE
8
0
10
116.25
20
-49.00625
11
114.25
21
-49.00625
0
LINE
8
0
10
114.25
20
-35.45625
11
116.25
21
-35.45625
0
LINE
8
0
10
116.25
20
-35.45625
11
116.25
21
-29.95625
0
LINE
8
0
10
116.25
20
-29.95625
11
114.25
21
-29.95625
0
LINE
8
0
10
133.25
20
-94.9875
11
135.25
21
-94.9875
0
LINE
8
0
10
135.25
20
-94.9875
11
135.25
21
-89.4875
0
LINE
8
0
10
135.25
20
-89.4875
11
133.25
21
-89.4875
0
LINE
8
0
10
133.25
20
-75.9375
11
135.25
21
-75.9375
0
LINE
8
0
10
135.25
20
-75.9375
11
135.25
21
-70.4375
0
LINE
8
0
10
135.25
20
-70.4375
11
133.25
21
-70.4375
0
LINE
8
0
10
133.25
20
-56.8875
11
135.25
21
-56.8875
0
LINE
8
0
10
135.25
20
-56.8875
11
135.25
21
-51.3875
0
LINE
8
0
10
135.25
20
-51.3875
11
133.25
21
-51.3875
0
LINE
8
0
10
133.25
20
-37.8375
11
135.25
21
-37.8375
0
LINE
8
0
10
135.25
20
-37.8375
11
135.25
21
-32.3375
0
LINE
8
0
10
135.25
20
-32.3375
11
133.25
21
-32.3375
0
LINE
8
0
10
152.25
20
-97.36875
11
154.25
21
-97.36875
0
LINE
8
0
10
154.25
20
-97.36875
11
154.25
21
-91.86875
0
LINE
8
0
10
154.25
20
-91.86875
11
152.25
21
-91.86875
0
LINE
8
0
10
152.25
20
-78.31875
11
154.25
21
-78.31875
0
LINE
8
0
10
154.25
20
-78.31875
11
154.25
21
-72.81875
0
LINE
8
0
10
154.25
20
-72.81875
11
152.25
21
-72.81875
0
LINE
8
0
10
152.25
20
-59.26875
11
154.25
21
-59.26875
0
LINE
8
0
10
154.25
20
-59.26875
11
154.25
21
-53.76875
0
LINE
8
0
10
154.25
20
-53.76875
11
152.25
21
-53.76875
0
LINE
8
0
10
152.25
20
-40.21875
11
154.25
21
-40.21875
0
LINE
8
0
10
154.25
20
-40.21875
11
154.25
21
-34.71875
0
LINE
8
0
10
154.25
20
-34.71875
11
152.25
21
-34.71875
0
LINE
8
0
10
171.25
20
-87.84375
11
173.25
21
-87.84375
0
LINE
8
0
10
173.25
20
-87.84375
11
173.25
21
-82.34375
0
LINE
8
0
10
173.25
20
-82.34375
11
171.25
21
-82.34375
0
LINE
8
0
10
171.25
20
-68.79375
11
173.25
21
-68.79375
0
LINE
8
0
10
173.25
20
-68.79375
11
173.25
21
-63.29375
0
LINE
8
0
10
173.25
20
-63.29375
11
171.25
21
-63.29375
0
LINE
8
0
10
171.25
20
-49.74375
11
173.25
21
-49.74375
0
LINE
8
0
10
173.25
20
-49.74375
11
173.25
21
-44.24375
0
LINE
8
0
10
173.25
20
-44.24375
11
171.25
21
-44.24375
0
LINE
8
0
10
57.25
20
-118.8
11
59.25
21
-118.8
0
LINE
8
0
10
59.25
20
-118.8
11
59.25
21
-113.3
0
LINE
8
0
10
59.25
20
-113.3
11
57.25
21
-113.3
0
LINE
8
0
10
76.25
20
-118.8
11
78.25
21
-118.8
0
LINE
8
0
10
78.25
20
-118.8
11
78.25
21
-113.3
0
LINE
8
0
10
78.25
20
-113.3
11
76.25
21
-113.3
0
LINE
8
0
10
95.25
20
-114.0375
11
97.25
21
-114.0375
0
LINE
8
0
10
97.25
20
-114.0375
11
97.25
21
-108.5375
0
LINE
8
0
10
97.25
20
-108.5375
11
95.25
21
-108.5375
0
LINE
8
0
10
114.25
20
-111.65625
11
116.25
21
-111.65625
0
LINE
8
0
10
116.25
20
-111.65625
11
116.25
21
-106.15625
0
LINE
8
0
10
116.25
20
-106.15625
11
114.25
21
-106.15625
0
LINE
8
0
10
143.7836842
20
-123.8872437
11
145.515735
21
-124.8872437
0
LINE
8
0
10
145.515735
20
-124.8872437
11
148.265735
21
-120.1241039
0
LINE
8
0
10
148.265735
20
-120.1241039
11
146.5336842
21
-119.1241039
0
LINE
8
0
10
176.7792521
20
-142.9372437
11
178.5113029
21
-143.9372437
0
LINE
8
0
10
178.5113029
20
-143.9372437
11
181.2613029
21
-139.1741039
0
LINE
8
0
10
181.2613029
20
-139.1741039
11
179.5292521
21
-138.1741039
0
LINE
8
0
10
186.3042521
20
-126.4394598
11
188.0363029
21
-127.4394598
0
LINE
8
0
10
188.0363029
20
-127.4394598
11
190.7863029
21
-122.67632
0
LINE
8
0
10
190.7863029
20
-122.67632
11
189.0542521
21
-121.67632
0
LINE
8
0
10
155.4587921
20
-139.7153635
11
160.4062921
21
-131.1460422
0
LINE
8
0
10
167.6562921
20
-118.5886738
11
172.6037921
21
-110.0193525
0
LINE
8
0
10
172.6037921
20
-110.0193525
11
161.7351733
21
-103.7443525
0
LINE
8
0
10
161.7351733
20
-103.7443525
11
156.7876733
21
-112.3136738
0
LINE
8
0
10
149.5376733
20
-124.8710422
11
144.5901733
21
-133.4403635
0
LINE
8
0
10
144.5901733
20
-133.4403635
11
155.4587921
21
-139.7153635
0
CIRCLE
8
0
10
59.525
20
-109.525
40
1.1
0
CIRCLE
8
0
10
59.525
20
-52.375
40
1.1
0
CIRCLE
8
0
10
93.715
20
-27.61
40
1.1
0
CIRCLE
8
0
10
97.025
20
-66.6625
40
1.1
0
CIRCLE
8
0
10
97.025
20
-104.7625
40
1.1
0
CIRCLE
8
0
10
158.335
20
-38.56375
40
1.1
0
CIRCLE
8
0
10
149.6508123
20
-114.3650796
40
1.1
0
ENDSEC
0
EOF