0
SECTION
2
HEADER
9
$INSUNITS
70
4
0
ENDSEC
0
SECTION
2
TABLES
0
TABLE
2
LTYPE
0
LTYPE
72
65
70
64
2
CONTINUOUS
3
______
73
0
40
0
0
ENDTAB
0
TABLE
2
LAYER
0
ENDTAB
0
ENDSEC
0
SECTION
2
ENTITIES
0
LINE
8
0
10
269.1019442
20
-130.575
11
358.525
21
-130.575
0
LINE
8
0
10
361.525
20
-127.575
11
361.525
21
-33.9724824
0
LINE
8
0
10
358.8980683
20
-30.9957694
11
304.710807
21
-24.204537
0
LINE
8
0
10
304.3377387
20
-24.18125
11
281.6622613
21
-24.18125
0
LINE
8
0
10
281.289193
20
-24.204537
11
244.2787123
21
-28.8430216
0
LINE
8
0
10
242.8312044
20
-29.4353054
11
231.80622
21
-37.8531792
0
LINE
8
0
10
229.9856438
20
-38.46875
11
215.8119835
21
-38.46875
0
LINE
8
0
10
214.3721293
20
-38.8368647
11
205.9851458
21
-43.4252239
0
LINE
8
0
10
204.425
20
-46.0571092
11
204.425
21
-117.776712
0
LINE
8
0
10
204.8205901
20
-119.2656879
11
223.9124593
21
-152.6598172
0
LINE
8
0
10
228.0137917
20
-153.7706918
11
267.6050217
21
-130.9751494
0
ARC
8
0
10
358.525
20
-127.575
40
3
50
270
51
0
0
ARC
8
0
10
358.525
20
-33.9724824
40
3
50
0
51
82.8564274
0
ARC
8
0
10
304.3377387
20
-27.18125
40
3
50
82.8564274
51
90
0
ARC
8
0
10
281.6622613
20
-27.18125
40
3
50
90
51
97.1435726
0
ARC
8
0
10
244.6517806
20
-31.8197346
40
3
50
97.1435726
51
127.3627128
0
ARC
8
0
10
229.9856438
20
-35.46875
40
3
50
270
51
307.3627128
0
ARC
8
0
10
215.8119835
20
-41.46875
40
3
50
90
51
118.6822273
0
ARC
8
0
10
207.425
20
-46.0571092
40
3
50
118.6822273
51
180
0
ARC
8
0
10
207.425
20
-117.776712
40
3
50
180
51
209.7571808
0
ARC
8
0
10
226.5168692
20
-151.1708412
40
3
50
209.7571808
51
299.9321551
0
ARC
8
0
10
269.1019442
20
-133.575
40
3
50
90
51
119.9321551
0
LINE
8
0
10
342.75
20
-107
11
357.25
21
-107
0
LINE
8
0
10
357.25
20
-107
11
357.25
21
-93
0
LINE
8
0
10
357.25
20
-93
11
342.75
21
-93
0
LINE
8
0
10
342.75
20
-93
11
342.75
21
-107
0
LINE
8
0
10
342.75
20
-87.95
11
357.25
21
-87.95
0
LINE
8
0
10
357.25
20
-87.95
11
357.25
21
-73.95
0
LINE
8
0
10
357.25
20
-73.95
11
342.75
21
-73.95
0
LINE
8
0
10
342.75
20
-73.95
11
342.75
21
-87.95
0
LINE
8
0
10
342.75
20
-68.9
11
357.25
21
-68.9
0
LINE
8
0
10
357.25
20
-68.9
11
357.25
21
-54.9
0
LINE
8
0
10
357.25
20
-54.9
11
342.75
21
-54.9
0
LINE
8
0
10
342.75
20
-54.9
11
342.75
21
-68.9
0
LINE
8
0
10
342.75
20
-49.85
11
357.25
21
-49.85
0
LINE
8
0
10
357.25
20
-49.85
11
357.25
21
-35.85
0
LINE
8
0
10
357.25
20
-35.85
11
342.75
21
-35.85
0
LINE
8
0
10
342.75
20
-35.85
11
342.75
21
-49.85
0
LINE
8
0
10
323.75
20
-107
11
338.25
21
-107
0
LINE
8
0
10
338.25
20
-107
11
338.25
21
-93
0
LINE
8
0
10
338.25
20
-93
11
323.75
21
-93
0
LINE
8
0
10
323.75
20
-93
11
323.75
21
-107
0
LINE
8
0
10
323.75
20
-87.95
11
338.25
21
-87.95
0
LINE
8
0
10
338.25
20
-87.95
11
338.25
21
-73.95
0
LINE
8
0
10
338.25
20
-73.95
11
323.75
21
-73.95
0
LINE
8
0
10
323.75
20
-73.95
11
323.75
21
-87.95
0
LINE
8
0
10
323.75
20
-68.9
11
338.25
21
-68.9
0
LINE
8
0
10
338.25
20
-68.9
11
338.25
21
-54.9
0
LINE
8
0
10
338.25
20
-54.9
11
323.75
21
-54.9
0
LINE
8
0
10
323.75
20
-54.9
11
323.75
21
-68.9
0
LINE
8
0
10
323.75
20
-49.85
11
338.25
21
-49.85
0
LINE
8
0
10
338.25
20
-49.85
11
338.25
21
-35.85
0
LINE
8
0
10
338.25
20
-35.85
11
323.75
21
-35.85
0
LINE
8
0
10
323.75
20
-35.85
11
323.75
21
-49.85
0
LINE
8
0
10
304.75
20
-102.2375
11
319.25
21
-102.2375
0
LINE
8
0
10
319.25
20
-102.2375
11
319.25
21
-88.2375
0
LINE
8
0
10
319.25
20
-88.2375
11
304.75
21
-88.2375
0
LINE
8
0
10
304.75
20
-88.2375
11
304.75
21
-102.2375
0
LINE
8
0
10
304.75
20
-83.1875
11
319.25
21
-83.1875
0
LINE
8
0
10
319.25
20
-83.1875
11
319.25
21
-69.1875
0
LINE
8
0
10
319.25
20
-69.1875
11
304.75
21
-69.1875
0
LINE
8
0
10
304.75
20
-69.1875
11
304.75
21
-83.1875
0
LINE
8
0
10
304.75
20
-64.1375
11
319.25
21
-64.1375
0
LINE
8
0
10
319.25
20
-64.1375
11
319.25
21
-50.1375
0
LINE
8
0
10
319.25
20
-50.1375
11
304.75
21
-50.1375
0
LINE
8
0
10
304.75
20
-50.1375
11
304.75
21
-64.1375
0
LINE
8
0
10
304.75
20
-45.0875
11
319.25
21
-45.0875
0
LINE
8
0
10
319.25
20
-45.0875
11
319.25
21
-31.0875
0
LINE
8
0
10
319.25
20
-31.0875
11
304.75
21
-31.0875
0
LINE
8
0
10
304.75
20
-31.0875
11
304.75
21
-45.0875
0
LINE
8
0
10
285.75
20
-99.85625
11
300.25
21
-99.85625
0
LINE
8
0
10
300.25
20
-99.85625
11
300.25
21
-85.85625
0
LINE
8
0
10
300.25
20
-85.85625
11
285.75
21
-85.85625
0
LINE
8
0
10
285.75
20
-85.85625
11
285.75
21
-99.85625
0
LINE
8
0
10
285.75
20
-80.80625
11
300.25
21
-80.80625
0
LINE
8
0
10
300.25
20
-80.80625
11
300.25
21
-66.80625
0
LINE
8
0
10
300.25
20
-66.80625
11
285.75
21
-66.80625
0
LINE
8
0
10
285.75
20
-66.80625
11
285.75
21
-80.80625
0
LINE
8
0
10
285.75
20
-61.75625
11
300.25
21
-61.75625
0
LINE
8
0
10
300.25
20
-61.75625
11
300.25
21
-47.75625
0
LINE
8
0
10
300.25
20
-47.75625
11
285.75
21
-47.75625
0
LINE
8
0
10
285.75
20
-47.75625
11
285.75
21
-61.75625
0
LINE
8
0
10
285.75
20
-42.70625
11
300.25
21
-42.70625
0
LINE
8
0
10
300.25
20
-42.70625
11
300.25
21
-28.70625
0
LINE
8
0
10
300.25
20
-28.70625
11
285.75
21
-28.70625
0
LINE
8
0
10
285.75
20
-28.70625
11
285.75
21
-42.70625
0
LINE
8
0
10
266.75
20
-102.2375
11
281.25
21
-102.2375
0
LINE
8
0
10
281.25
20
-102.2375
11
281.25
21
-88.2375
0
LINE
8
0
10
281.25
20
-88.2375
11
266.75
21
-88.2375
0
LINE
8
0
10
266.75
20
-88.2375
11
266.75
21
-102.2375
0
LINE
8
0
10
266.75
20
-83.1875
11
281.25
21
-83.1875
0
LINE
8
0
10
281.25
20
-83.1875
11
281.25
21
-69.1875
0
LINE
8
0
10
281.25
20
-69.1875
11
266.75
21
-69.1875
0
LINE
8
0
10
266.75
20
-69.1875
11
266.75
21
-83.1875
0
LINE
8
0
10
266.75
20
-64.1375
11
281.25
21
-64.1375
0
LINE
8
0
10
281.25
20
-64.1375
11
281.25
21
-50.1375
0
LINE
8
0
10
281.25
20
-50.1375
11
266.75
21
-50.1375
0
LINE
8
0
10
266.75
20
-50.1375
11
266.75
21
-64.1375
0
LINE
8
0
10
266.75
20
-45.0875
11
281.25
21
-45.0875
0
LINE
8
0
10
281.25
20
-45.0875
11
281.25
21
-31.0875
0
LINE
8
0
10
281.25
20
-31.0875
11
266.75
21
-31.0875
0
LINE
8
0
10
266.75
20
-31.0875
11
266.75
21
-45.0875
0
LINE
8
0
10
247.75
20
-104.61875
11
262.25
21
-104.61875
0
LINE
8
0
10
262.25
20
-104.61875
11
262.25
21
-90.61875
0
LINE
8
0
10
262.25
20
-90.61875
11
247.75
21
-90.61875
0
LINE
8
0
10
247.75
20
-90.61875
11
247.75
21
-104.61875
0
LINE
8
0
10
247.75
20
-85.56875
11
262.25
21
-85.56875
0
LINE
8
0
10
262.25
20
-85.56875
11
262.25
21
-71.56875
0
LINE
8
0
10
262.25
20
-71.56875
11
247.75
21
-71.56875
0
LINE
8
0
10
247.75
20
-71.56875
11
247.75
21
-85.56875
0
LINE
8
0
10
247.75
20
-66.51875
11
262.25
21
-66.51875
0
LINE
8
0
10
262.25
20
-66.51875
11
262.25
21
-52.51875
0
LINE
8
0
10
262.25
20
-52.51875
11
247.75
21
-52.51875
0
LINE
8
0
10
247.75
20
-52.51875
11
247.75
21
-66.51875
0
LINE
8
0
10
247.75
20
-47.46875
11
262.25
21
-47.46875
0
LINE
8
0
10
262.25
20
-47.46875
11
262.25
21
-33.46875
0
LINE
8
0
10
262.25
20
-33.46875
11
247.75
21
-33.46875
0
LINE
8
0
10
247.75
20
-33.46875
11
247.75
21
-47.46875
0
LINE
8
0
10
228.75
20
-95.09375
11
243.25
21
-95.09375
0
LINE
8
0
10
243.25
20
-95.09375
11
243.25
21
-81.09375
0
LINE
8
0
10
243.25
20
-81.09375
11
228.75
21
-81.09375
0
LINE
8
0
10
228.75
20
-81.09375
11
228.75
21
-95.09375
0
LINE
8
0
10
228.75
20
-76.04375
11
243.25
21
-76.04375
0
LINE
8
0
10
243.25
20
-76.04375
11
243.25
21
-62.04375
0
LINE
8
0
10
243.25
20
-62.04375
11
228.75
21
-62.04375
0
LINE
8
0
10
228.75
20
-62.04375
11
228.75
21
-76.04375
0
LINE
8
0
10
228.75
20
-56.99375
11
243.25
21
-56.99375
0
LINE
8
0
10
243.25
20
-56.99375
11
243.25
21
-42.99375
0
LINE
8
0
10
243.25
20
-42.99375
11
228.75
21
-42.99375
0
LINE
8
0
10
228.75
20
-42.99375
11
228.75
21
-56.99375
0
LINE
8
0
10
342.75
20
-126.05
11
357.25
21
-126.05
0
LINE
8
0
10
357.25
20
-126.05
11
357.25
21
-112.05
0
LINE
8
0
10
357.25
20
-112.05
11
342.75
21
-112.05
0
LINE
8
0
10
342.75
20
-112.05
11
342.75
21
-126.05
0
LINE
8
0
10
323.75
20
-126.05
11
338.25
21
-126.05
0
LINE
8
0
10
338.25
20
-126.05
11
338.25
21
-112.05
0
LINE
8
0
10
338.25
20
-112.05
11
323.75
21
-112.05
0
LINE
8
0
10
323.75
20
-112.05
11
323.75
21
-126.05
0
LINE
8
0
10
304.75
20
-121.2875
11
319.25
21
-121.2875
0
LINE
8
0
10
319.25
20
-121.2875
11
319.25
21
-107.2875
0
LINE
8
0
10
319.25
20
-107.2875
11
304.75
21
-107.2875
0
LINE
8
0
10
304.75
20
-107.2875
11
304.75
21
-121.2875
0
LINE
8
0
10
285.75
20
-118.90625
11
300.25
21
-118.90625
0
LINE
8
0
10
300.25
20
-118.90625
11
300.25
21
-104.90625
0
LINE
8
0
10
300.25
20
-104.90625
11
285.75
21
-104.90625
0
LINE
8
0
10
285.75
20
-104.90625
11
285.75
21
-118.90625
0
LINE
8
0
10
259.8413158
20
-130.1659278
11
272.3986842
21
-122.9159278
0
LINE
8
0
10
272.3986842
20
-122.9159278
11
265.3986842
21
-110.7915722
0
LINE
8
0
10
265.3986842
20
-110.7915722
11
252.8413158
21
-118.0415722
0
LINE
8
0
10
252.8413158
20
-118.0415722
11
259.8413158
21
-130.1659278
0
LINE
8
0
10
231.7158395
20
-118.9511738
11
238.9658395
21
-131.5085422
0
LINE
8
0
10
238.9658395
20
-131.5085422
11
239.5937079
21
-131.1460422
0
LINE
8
0
10
250.4623267
20
-124.8710422
11
251.0901951
21
-124.5085422
0
LINE
8
0
10
251.0901951
20
-124.5085422
11
243.8401951
21
-111.9511738
0
LINE
8
0
10
243.8401951
20
-111.9511738
11
243.2123267
21
-112.3136738
0
LINE
8
0
10
232.3437079
20
-118.5886738
11
231.7158395
21
-118.9511738
0
LINE
8
0
10
226.8457479
20
-149.2159278
11
239.4031163
21
-141.9659278
0
LINE
8
0
10
239.4031163
20
-141.9659278
11
232.4031163
21
-129.8415722
0
LINE
8
0
10
232.4031163
20
-129.8415722
11
219.8457479
21
-137.0915722
0
LINE
8
0
10
219.8457479
20
-137.0915722
11
226.8457479
21
-149.2159278
0
LINE
8
0
10
217.3207479
20
-132.7181439
11
229.8781163
21
-125.4681439
0
LINE
8
0
10
229.8781163
20
-125.4681439
11
222.8781163
21
-113.3437883
0
LINE
8
0
10
222.8781163
20
-113.3437883
11
210.3207479
21
-120.5937883
0
LINE
8
0
10
210.3207479
20
-120.5937883
11
217.3207479
21
-132.7181439
0
LINE
8
0
10
227.3962079
20
-110.0193525
11
232.3437079
21
-118.5886738
0
LINE
8
0
10
239.5937079
20
-131.1460422
11
244.5412079
21
-139.7153635
0
LINE
8
0
10
244.5412079
20
-139.7153635
11
255.4098267
21
-133.4403635
0
LINE
8
0
10
255.4098267
20
-133.4403635
11
250.4623267
21
-124.8710422
0
LINE
8
0
10
243.2123267
20
-112.3136738
11
238.2648267
21
-103.7443525
0
LINE
8
0
10
238.2648267
20
-103.7443525
11
227.3962079
21
-110.0193525
0
ENDSEC
0
EOF