0
SECTION
2
HEADER
9
$INSUNITS
70
4
0
ENDSEC
0
SECTION
2
TABLES
0
TABLE
2
LTYPE
0
LTYPE
72
65
70
64
2
CONTINUOUS
3
______
73
0
40
0
0
ENDTAB
0
TABLE
2
LAYER
0
ENDTAB
0
ENDSEC
0
SECTION
2
ENTITIES
0
LINE
8
0
10
56.75
20
-99.75
11
59.25
21
-99.75
0
LINE
8
0
10
59.25
20
-99.75
11
59.25
21
-94.25
0
LINE
8
0
10
59.25
20
-94.25
11
56.75
21
-94.25
0
LINE
8
0
10
56.75
20
-94.25
11
56.75
21
-99.75
0
LINE
8
0
10
56.75
20
-80.7
11
59.25
21
-80.7
0
LINE
8
0
10
59.25
20
-80.7
11
59.25
21
-75.2
0
LINE
8
0
10
59.25
20
-75.2
11
56.75
21
-75.2
0
LINE
8
0
10
56.75
20
-75.2
11
56.75
21
-80.7
0
LINE
8
0
10
56.75
20
-61.65
11
59.25
21
-61.65
0
LINE
8
0
10
59.25
20
-61.65
11
59.25
21
-56.15
0
LINE
8
0
10
59.25
20
-56.15
11
56.75
21
-56.15
0
LINE
8
0
10
56.75
20
-56.15
11
56.75
21
-61.65
0
LINE
8
0
10
56.75
20
-42.6
11
59.25
21
-42.6
0
LINE
8
0
10
59.25
20
-42.6
11
59.25
21
-37.1
0
LINE
8
0
10
59.25
20
-37.1
11
56.75
21
-37.1
0
LINE
8
0
10
56.75
20
-37.1
11
56.75
21
-42.6
0
LINE
8
0
10
75.75
20
-99.75
11
78.25
21
-99.75
0
LINE
8
0
10
78.25
20
-99.75
11
78.25
21
-94.25
0
LINE
8
0
10
78.25
20
-94.25
11
75.75
21
-94.25
0
LINE
8
0
10
75.75
20
-94.25
11
75.75
21
-99.75
0
LINE
8
0
10
75.75
20
-80.7
11
78.25
21
-80.7
0
LINE
8
0
10
78.25
20
-80.7
11
78.25
21
-75.2
0
LINE
8
0
10
78.25
20
-75.2
11
75.75
21
-75.2
0
LINE
8
0
10
75.75
20
-75.2
11
75.75
21
-80.7
0
LINE
8
0
10
75.75
20
-61.65
11
78.25
21
-61.65
0
LINE
8
0
10
78.25
20
-61.65
11
78.25
21
-56.15
0
LINE
8
0
10
78.25
20
-56.15
11
75.75
21
-56.15
0
LINE
8
0
10
75.75
20
-56.15
11
75.75
21
-61.65
0
LINE
8
0
10
75.75
20
-42.6
11
78.25
21
-42.6
0
LINE
8
0
10
78.25
20
-42.6
11
78.25
21
-37.1
0
LINE
8
0
10
78.25
20
-37.1
11
75.75
21
-37.1
0
LINE
8
0
10
75.75
20
-37.1
11
75.75
21
-42.6
0
LINE
8
0
10
94.75
20
-94.9875
11
97.25
21
-94.9875
0
LINE
8
0
10
97.25
20
-94.9875
11
97.25
21
-89.4875
0
LINE
8
0
10
97.25
20
-89.4875
11
94.75
21
-89.4875
0
LINE
8
0
10
94.75
20
-89.4875
11
94.75
21
-94.9875
0
LINE
8
0
10
94.75
20
-75.9375
11
97.25
21
-75.9375
0
LINE
8
0
10
97.25
20
-75.9375
11
97.25
21
-70.4375
0
LINE
8
0
10
97.25
20
-70.4375
11
94.75
21
-70.4375
0
LINE
8
0
10
94.75
20
-70.4375
11
94.75
21
-75.9375
0
LINE
8
0
10
94.75
20
-56.8875
11
97.25
21
-56.8875
0
LINE
8
0
10
97.25
20
-56.8875
11
97.25
21
-51.3875
0
LINE
8
0
10
97.25
20
-51.3875
11
94.75
21
-51.3875
0
LINE
8
0
10
94.75
20
-51.3875
11
94.75
21
-56.8875
0
LINE
8
0
10
94.75
20
-37.8375
11
97.25
21
-37.8375
0
LINE
8
0
10
97.25
20
-37.8375
11
97.25
21
-32.3375
0
LINE
8
0
10
97.25
20
-32.3375
11
94.75
21
-32.3375
0
LINE
8
0
10
94.75
20
-32.3375
11
94.75
21
-37.8375
0
LINE
8
0
10
113.75
20
-92.60625
11
116.25
21
-92.60625
0
LINE
8
0
10
116.25
20
-92.60625
11
116.25
21
-87.10625
0
LINE
8
0
10
116.25
20
-87.10625
11
113.75
21
-87.10625
0
LINE
8
0
10
113.75
20
-87.10625
11
113.75
21
-92.60625
0
LINE
8
0
10
113.75
20
-73.55625
11
116.25
21
-73.55625
0
LINE
8
0
10
116.25
20
-73.55625
11
116.25
21
-68.05625
0
LINE
8
0
10
116.25
20
-68.05625
11
113.75
21
-68.05625
0
LINE
8
0
10
113.75
20
-68.05625
11
113.75
21
-73.55625
0
LINE
8
0
10
113.75
20
-54.50625
11
116.25
21
-54.50625
0
LINE
8
0
10
116.25
20
-54.50625
11
116.25
21
-49.00625
0
LINE
8
0
10
116.25
20
-49.00625
11
113.75
21
-49.00625
0
LINE
8
0
10
113.75
20
-49.00625
11
113.75
21
-54.50625
0
LINE
8
0
10
113.75
20
-35.45625
11
116.25
21
-35.45625
0
LINE
8
0
10
116.25
20
-35.45625
11
116.25
21
-29.95625
0
LINE
8
0
10
116.25
20
-29.95625
11
113.75
21
-29.95625
0
LINE
8
0
10
113.75
20
-29.95625
11
113.75
21
-35.45625
0
LINE
8
0
10
132.75
20
-94.9875
11
135.25
21
-94.9875
0
LINE
8
0
10
135.25
20
-94.9875
11
135.25
21
-89.4875
0
LINE
8
0
10
135.25
20
-89.4875
11
132.75
21
-89.4875
0
LINE
8
0
10
132.75
20
-89.4875
11
132.75
21
-94.9875
0
LINE
8
0
10
132.75
20
-75.9375
11
135.25
21
-75.9375
0
LINE
8
0
10
135.25
20
-75.9375
11
135.25
21
-70.4375
0
LINE
8
0
10
135.25
20
-70.4375
11
132.75
21
-70.4375
0
LINE
8
0
10
132.75
20
-70.4375
11
132.75
21
-75.9375
0
LINE
8
0
10
132.75
20
-56.8875
11
135.25
21
-56.8875
0
LINE
8
0
10
135.25
20
-56.8875
11
135.25
21
-51.3875
0
LINE
8
0
10
135.25
20
-51.3875
11
132.75
21
-51.3875
0
LINE
8
0
10
132.75
20
-51.3875
11
132.75
21
-56.8875
0
LINE
8
0
10
132.75
20
-37.8375
11
135.25
21
-37.8375
0
LINE
8
0
10
135.25
20
-37.8375
11
135.25
21
-32.3375
0
LINE
8
0
10
135.25
20
-32.3375
11
132.75
21
-32.3375
0
LINE
8
0
10
132.75
20
-32.3375
11
132.75
21
-37.8375
0
LINE
8
0
10
151.75
20
-97.36875
11
154.25
21
-97.36875
0
LINE
8
0
10
154.25
20
-97.36875
11
154.25
21
-91.86875
0
LINE
8
0
10
154.25
20
-91.86875
11
151.75
21
-91.86875
0
LINE
8
0
10
151.75
20
-91.86875
11
151.75
21
-97.36875
0
LINE
8
0
10
151.75
20
-78.31875
11
154.25
21
-78.31875
0
LINE
8
0
10
154.25
20
-78.31875
11
154.25
21
-72.81875
0
LINE
8
0
10
154.25
20
-72.81875
11
151.75
21
-72.81875
0
LINE
8
0
10
151.75
20
-72.81875
11
151.75
21
-78.31875
0
LINE
8
0
10
151.75
20
-59.26875
11
154.25
21
-59.26875
0
LINE
8
0
10
154.25
20
-59.26875
11
154.25
21
-53.76875
0
LINE
8
0
10
154.25
20
-53.76875
11
151.75
21
-53.76875
0
LINE
8
0
10
151.75
20
-53.76875
11
151.75
21
-59.26875
0
LINE
8
0
10
151.75
20
-40.21875
11
154.25
21
-40.21875
0
LINE
8
0
10
154.25
20
-40.21875
11
154.25
21
-34.71875
0
LINE
8
0
10
154.25
20
-34.71875
11
151.75
21
-34.71875
0
LINE
8
0
10
151.75
20
-34.71875
11
151.75
21
-40.21875
0
LINE
8
0
10
170.75
20
-87.84375
11
173.25
21
-87.84375
0
LINE
8
0
10
173.25
20
-87.84375
11
173.25
21
-82.34375
0
LINE
8
0
10
173.25
20
-82.34375
11
170.75
21
-82.34375
0
LINE
8
0
10
170.75
20
-82.34375
11
170.75
21
-87.84375
0
LINE
8
0
10
170.75
20
-68.79375
11
173.25
21
-68.79375
0
LINE
8
0
10
173.25
20
-68.79375
11
173.25
21
-63.29375
0
LINE
8
0
10
173.25
20
-63.29375
11
170.75
21
-63.29375
0
LINE
8
0
10
170.75
20
-63.29375
11
170.75
21
-68.79375
0
LINE
8
0
10
170.75
20
-49.74375
11
173.25
21
-49.74375
0
LINE
8
0
10
173.25
20
-49.74375
11
173.25
21
-44.24375
0
LINE
8
0
10
173.25
20
-44.24375
11
170.75
21
-44.24375
0
LINE
8
0
10
170.75
20
-44.24375
11
170.75
21
-49.74375
0
LINE
8
0
10
56.75
20
-118.8
11
59.25
21
-118.8
0
LINE
8
0
10
59.25
20
-118.8
11
59.25
21
-113.3
0
LINE
8
0
10
59.25
20
-113.3
11
56.75
21
-113.3
0
LINE
8
0
10
56.75
20
-113.3
11
56.75
21
-118.8
0
LINE
8
0
10
75.75
20
-118.8
11
78.25
21
-118.8
0
LINE
8
0
10
78.25
20
-118.8
11
78.25
21
-113.3
0
LINE
8
0
10
78.25
20
-113.3
11
75.75
21
-113.3
0
LINE
8
0
10
75.75
20
-113.3
11
75.75
21
-118.8
0
LINE
8
0
10
94.75
20
-114.0375
11
97.25
21
-114.0375
0
LINE
8
0
10
97.25
20
-114.0375
11
97.25
21
-108.5375
0
LINE
8
0
10
97.25
20
-108.5375
11
94.75
21
-108.5375
0
LINE
8
0
10
94.75
20
-108.5375
11
94.75
21
-114.0375
0
LINE
8
0
10
113.75
20
-111.65625
11
116.25
21
-111.65625
0
LINE
8
0
10
116.25
20
-111.65625
11
116.25
21
-106.15625
0
LINE
8
0
10
116.25
20
-106.15625
11
113.75
21
-106.15625
0
LINE
8
0
10
113.75
20
-106.15625
11
113.75
21
-111.65625
0
LINE
8
0
10
143.3506714
20
-123.6372437
11
145.515735
21
-124.8872437
0
LINE
8
0
10
145.515735
20
-124.8872437
11
148.265735
21
-120.1241039
0
LINE
8
0
10
148.265735
20
-120.1241039
11
146.1006714
21
-118.8741039
0
LINE
8
0
10
146.1006714
20
-118.8741039
11
143.3506714
21
-123.6372437
0
LINE
8
0
10
161.7554764
20
-115.7591866
11
163.0054764
21
-113.594123
0
LINE
8
0
10
163.0054764
20
-113.594123
11
158.2423366
21
-110.844123
0
LINE
8
0
10
158.2423366
20
-110.844123
11
156.9923366
21
-113.0091866
0
LINE
8
0
10
156.9923366
20
-113.0091866
11
161.7554764
21
-115.7591866
0
LINE
8
0
10
176.3462393
20
-142.6872437
11
178.5113029
21
-143.9372437
0
LINE
8
0
10
178.5113029
20
-143.9372437
11
181.2613029
21
-139.1741039
0
LINE
8
0
10
181.2613029
20
-139.1741039
11
179.0962393
21
-137.9241039
0
LINE
8
0
10
179.0962393
20
-137.9241039
11
176.3462393
21
-142.6872437
0
LINE
8
0
10
185.8712393
20
-126.1894598
11
188.0363029
21
-127.4394598
0
LINE
8
0
10
188.0363029
20
-127.4394598
11
190.7863029
21
-122.67632
0
LINE
8
0
10
190.7863029
20
-122.67632
11
188.6212393
21
-121.42632
0
LINE
8
0
10
188.6212393
20
-121.42632
11
185.8712393
21
-126.1894598
0
ENDSEC
0
EOF