0
SECTION
2
HEADER
9
$INSUNITS
70
4
0
ENDSEC
0
SECTION
2
TABLES
0
TABLE
2
LTYPE
0
LTYPE
72
65
70
64
2
CONTINUOUS
3
______
73
0
40
0
0
ENDTAB
0
TABLE
2
LAYER
0
ENDTAB
0
ENDSEC
0
SECTION
2
ENTITIES
0
LINE
8
0
10
130.8980558
20
-130.575
11
41.475
21
-130.575
0
LINE
8
0
10
38.475
20
-127.575
11
38.475
21
-33.9724824
0
LINE
8
0
10
41.1019317
20
-30.9957694
11
95.289193
21
-24.204537
0
LINE
8
0
10
95.6622613
20
-24.18125
11
118.3377387
21
-24.18125
0
LINE
8
0
10
118.710807
20
-24.204537
11
155.7212877
21
-28.8430216
0
LINE
8
0
10
157.1687956
20
-29.4353054
11
168.19378
21
-37.8531792
0
LINE
8
0
10
170.0143562
20
-38.46875
11
184.1880165
21
-38.46875
0
LINE
8
0
10
185.6278707
20
-38.8368647
11
194.0148542
21
-43.4252239
0
LINE
8
0
10
195.575
20
-46.0571092
11
195.575
21
-117.776712
0
LINE
8
0
10
195.1794099
20
-119.2656879
11
176.0875407
21
-152.6598172
0
LINE
8
0
10
171.9862083
20
-153.7706918
11
132.3949783
21
-130.9751494
0
ARC
8
0
10
41.475
20
-127.575
40
3
50
180
51
270
0
ARC
8
0
10
41.475
20
-33.9724824
40
3
50
97.1435726
51
180
0
ARC
8
0
10
95.6622613
20
-27.18125
40
3
50
90
51
97.1435726
0
ARC
8
0
10
118.3377387
20
-27.18125
40
3
50
82.8564274
51
90
0
ARC
8
0
10
155.3482194
20
-31.8197346
40
3
50
52.6372872
51
82.8564274
0
ARC
8
0
10
170.0143562
20
-35.46875
40
3
50
232.6372872
51
270
0
ARC
8
0
10
184.1880165
20
-41.46875
40
3
50
61.3177727
51
90
0
ARC
8
0
10
192.575
20
-46.0571092
40
3
50
0
51
61.3177727
0
ARC
8
0
10
192.575
20
-117.776712
40
3
50
330.2428192
51
0
0
ARC
8
0
10
173.4831308
20
-151.1708412
40
3
50
240.0678449
51
330.2428192
0
ARC
8
0
10
130.8980558
20
-133.575
40
3
50
60.0678449
51
90
0
LINE
8
0
10
41.225
20
-108.775
11
58.775
21
-108.775
0
LINE
8
0
10
58.775
20
-108.775
11
58.775
21
-91.225
0
LINE
8
0
10
58.775
20
-91.225
11
41.225
21
-91.225
0
LINE
8
0
10
41.225
20
-91.225
11
41.225
21
-108.775
0
LINE
8
0
10
41.225
20
-89.725
11
58.775
21
-89.725
0
LINE
8
0
10
58.775
20
-89.725
11
58.775
21
-72.175
0
LINE
8
0
10
58.775
20
-72.175
11
41.225
21
-72.175
0
LINE
8
0
10
41.225
20
-72.175
11
41.225
21
-89.725
0
LINE
8
0
10
41.225
20
-70.675
11
58.775
21
-70.675
0
LINE
8
0
10
58.775
20
-70.675
11
58.775
21
-53.125
0
LINE
8
0
10
58.775
20
-53.125
11
41.225
21
-53.125
0
LINE
8
0
10
41.225
20
-53.125
11
41.225
21
-70.675
0
LINE
8
0
10
41.225
20
-51.625
11
58.775
21
-51.625
0
LINE
8
0
10
58.775
20
-51.625
11
58.775
21
-34.075
0
LINE
8
0
10
58.775
20
-34.075
11
41.225
21
-34.075
0
LINE
8
0
10
41.225
20
-34.075
11
41.225
21
-51.625
0
LINE
8
0
10
60.225
20
-108.775
11
77.775
21
-108.775
0
LINE
8
0
10
77.775
20
-108.775
11
77.775
21
-91.225
0
LINE
8
0
10
77.775
20
-91.225
11
60.225
21
-91.225
0
LINE
8
0
10
60.225
20
-91.225
11
60.225
21
-108.775
0
LINE
8
0
10
60.225
20
-89.725
11
77.775
21
-89.725
0
LINE
8
0
10
77.775
20
-89.725
11
77.775
21
-72.175
0
LINE
8
0
10
77.775
20
-72.175
11
60.225
21
-72.175
0
LINE
8
0
10
60.225
20
-72.175
11
60.225
21
-89.725
0
LINE
8
0
10
60.225
20
-70.675
11
77.775
21
-70.675
0
LINE
8
0
10
77.775
20
-70.675
11
77.775
21
-53.125
0
LINE
8
0
10
77.775
20
-53.125
11
60.225
21
-53.125
0
LINE
8
0
10
60.225
20
-53.125
11
60.225
21
-70.675
0
LINE
8
0
10
60.225
20
-51.625
11
77.775
21
-51.625
0
LINE
8
0
10
77.775
20
-51.625
11
77.775
21
-34.075
0
LINE
8
0
10
77.775
20
-34.075
11
60.225
21
-34.075
0
LINE
8
0
10
60.225
20
-34.075
11
60.225
21
-51.625
0
LINE
8
0
10
79.225
20
-104.0125
11
96.775
21
-104.0125
0
LINE
8
0
10
96.775
20
-104.0125
11
96.775
21
-86.4625
0
LINE
8
0
10
96.775
20
-86.4625
11
79.225
21
-86.4625
0
LINE
8
0
10
79.225
20
-86.4625
11
79.225
21
-104.0125
0
LINE
8
0
10
79.225
20
-84.9625
11
96.775
21
-84.9625
0
LINE
8
0
10
96.775
20
-84.9625
11
96.775
21
-67.4125
0
LINE
8
0
10
96.775
20
-67.4125
11
79.225
21
-67.4125
0
LINE
8
0
10
79.225
20
-67.4125
11
79.225
21
-84.9625
0
LINE
8
0
10
79.225
20
-65.9125
11
96.775
21
-65.9125
0
LINE
8
0
10
96.775
20
-65.9125
11
96.775
21
-48.3625
0
LINE
8
0
10
96.775
20
-48.3625
11
79.225
21
-48.3625
0
LINE
8
0
10
79.225
20
-48.3625
11
79.225
21
-65.9125
0
LINE
8
0
10
79.225
20
-46.8625
11
96.775
21
-46.8625
0
LINE
8
0
10
96.775
20
-46.8625
11
96.775
21
-29.3125
0
LINE
8
0
10
96.775
20
-29.3125
11
79.225
21
-29.3125
0
LINE
8
0
10
79.225
20
-29.3125
11
79.225
21
-46.8625
0
LINE
8
0
10
98.225
20
-101.63125
11
115.775
21
-101.63125
0
LINE
8
0
10
115.775
20
-101.63125
11
115.775
21
-84.08125
0
LINE
8
0
10
115.775
20
-84.08125
11
98.225
21
-84.08125
0
LINE
8
0
10
98.225
20
-84.08125
11
98.225
21
-101.63125
0
LINE
8
0
10
98.225
20
-82.58125
11
115.775
21
-82.58125
0
LINE
8
0
10
115.775
20
-82.58125
11
115.775
21
-65.03125
0
LINE
8
0
10
115.775
20
-65.03125
11
98.225
21
-65.03125
0
LINE
8
0
10
98.225
20
-65.03125
11
98.225
21
-82.58125
0
LINE
8
0
10
98.225
20
-63.53125
11
115.775
21
-63.53125
0
LINE
8
0
10
115.775
20
-63.53125
11
115.775
21
-45.98125
0
LINE
8
0
10
115.775
20
-45.98125
11
98.225
21
-45.98125
0
LINE
8
0
10
98.225
20
-45.98125
11
98.225
21
-63.53125
0
LINE
8
0
10
98.225
20
-44.48125
11
115.775
21
-44.48125
0
LINE
8
0
10
115.775
20
-44.48125
11
115.775
21
-26.93125
0
LINE
8
0
10
115.775
20
-26.93125
11
98.225
21
-26.93125
0
LINE
8
0
10
98.225
20
-26.93125
11
98.225
21
-44.48125
0
LINE
8
0
10
117.225
20
-104.0125
11
134.775
21
-104.0125
0
LINE
8
0
10
134.775
20
-104.0125
11
134.775
21
-86.4625
0
LINE
8
0
10
134.775
20
-86.4625
11
117.225
21
-86.4625
0
LINE
8
0
10
117.225
20
-86.4625
11
117.225
21
-104.0125
0
LINE
8
0
10
117.225
20
-84.9625
11
134.775
21
-84.9625
0
LINE
8
0
10
134.775
20
-84.9625
11
134.775
21
-67.4125
0
LINE
8
0
10
134.775
20
-67.4125
11
117.225
21
-67.4125
0
LINE
8
0
10
117.225
20
-67.4125
11
117.225
21
-84.9625
0
LINE
8
0
10
117.225
20
-65.9125
11
134.775
21
-65.9125
0
LINE
8
0
10
134.775
20
-65.9125
11
134.775
21
-48.3625
0
LINE
8
0
10
134.775
20
-48.3625
11
117.225
21
-48.3625
0
LINE
8
0
10
117.225
20
-48.3625
11
117.225
21
-65.9125
0
LINE
8
0
10
117.225
20
-46.8625
11
134.775
21
-46.8625
0
LINE
8
0
10
134.775
20
-46.8625
11
134.775
21
-29.3125
0
LINE
8
0
10
134.775
20
-29.3125
11
117.225
21
-29.3125
0
LINE
8
0
10
117.225
20
-29.3125
11
117.225
21
-46.8625
0
LINE
8
0
10
136.225
20
-106.39375
11
153.775
21
-106.39375
0
LINE
8
0
10
153.775
20
-106.39375
11
153.775
21
-88.84375
0
LINE
8
0
10
153.775
20
-88.84375
11
136.225
21
-88.84375
0
LINE
8
0
10
136.225
20
-88.84375
11
136.225
21
-106.39375
0
LINE
8
0
10
136.225
20
-87.34375
11
153.775
21
-87.34375
0
LINE
8
0
10
153.775
20
-87.34375
11
153.775
21
-69.79375
0
LINE
8
0
10
153.775
20
-69.79375
11
136.225
21
-69.79375
0
LINE
8
0
10
136.225
20
-69.79375
11
136.225
21
-87.34375
0
LINE
8
0
10
136.225
20
-68.29375
11
153.775
21
-68.29375
0
LINE
8
0
10
153.775
20
-68.29375
11
153.775
21
-50.74375
0
LINE
8
0
10
153.775
20
-50.74375
11
136.225
21
-50.74375
0
LINE
8
0
10
136.225
20
-50.74375
11
136.225
21
-68.29375
0
LINE
8
0
10
136.225
20
-49.24375
11
153.775
21
-49.24375
0
LINE
8
0
10
153.775
20
-49.24375
11
153.775
21
-31.69375
0
LINE
8
0
10
153.775
20
-31.69375
11
136.225
21
-31.69375
0
LINE
8
0
10
136.225
20
-31.69375
11
136.225
21
-49.24375
0
LINE
8
0
10
155.225
20
-96.86875
11
172.775
21
-96.86875
0
LINE
8
0
10
172.775
20
-96.86875
11
172.775
21
-79.31875
0
LINE
8
0
10
172.775
20
-79.31875
11
155.225
21
-79.31875
0
LINE
8
0
10
155.225
20
-79.31875
11
155.225
21
-96.86875
0
LINE
8
0
10
155.225
20
-77.81875
11
172.775
21
-77.81875
0
LINE
8
0
10
172.775
20
-77.81875
11
172.775
21
-60.26875
0
LINE
8
0
10
172.775
20
-60.26875
11
155.225
21
-60.26875
0
LINE
8
0
10
155.225
20
-60.26875
11
155.225
21
-77.81875
0
LINE
8
0
10
155.225
20
-58.76875
11
172.775
21
-58.76875
0
LINE
8
0
10
172.775
20
-58.76875
11
172.775
21
-41.21875
0
LINE
8
0
10
172.775
20
-41.21875
11
155.225
21
-41.21875
0
LINE
8
0
10
155.225
20
-41.21875
11
155.225
21
-58.76875
0
LINE
8
0
10
41.225
20
-127.825
11
58.775
21
-127.825
0
LINE
8
0
10
58.775
20
-127.825
11
58.775
21
-110.275
0
LINE
8
0
10
58.775
20
-110.275
11
41.225
21
-110.275
0
LINE
8
0
10
41.225
20
-110.275
11
41.225
21
-127.825
0
LINE
8
0
10
60.225
20
-127.825
11
77.775
21
-127.825
0
LINE
8
0
10
77.775
20
-127.825
11
77.775
21
-110.275
0
LINE
8
0
10
77.775
20
-110.275
11
60.225
21
-110.275
0
LINE
8
0
10
60.225
20
-110.275
11
60.225
21
-127.825
0
LINE
8
0
10
79.225
20
-123.0625
11
96.775
21
-123.0625
0
LINE
8
0
10
96.775
20
-123.0625
11
96.775
21
-105.5125
0
LINE
8
0
10
96.775
20
-105.5125
11
79.225
21
-105.5125
0
LINE
8
0
10
79.225
20
-105.5125
11
79.225
21
-123.0625
0
LINE
8
0
10
98.225
20
-120.68125
11
115.775
21
-120.68125
0
LINE
8
0
10
115.775
20
-120.68125
11
115.775
21
-103.13125
0
LINE
8
0
10
115.775
20
-103.13125
11
98.225
21
-103.13125
0
LINE
8
0
10
98.225
20
-103.13125
11
98.225
21
-120.68125
0
LINE
8
0
10
125.3931271
20
-123.6906229
11
140.5918729
21
-132.4656229
0
LINE
8
0
10
140.5918729
20
-132.4656229
11
149.3668729
21
-117.2668771
0
LINE
8
0
10
149.3668729
20
-117.2668771
11
134.1681271
21
-108.4918771
0
LINE
8
0
10
134.1681271
20
-108.4918771
11
125.3931271
21
-123.6906229
0
LINE
8
0
10
161.8088556
20
-133.7167309
11
170.5838556
21
-118.5179851
0
LINE
8
0
10
170.5838556
20
-118.5179851
11
170.3889999
21
-118.4054851
0
LINE
8
0
10
155.5799655
20
-109.8554851
11
155.3851098
21
-109.7429851
0
LINE
8
0
10
155.3851098
20
-109.7429851
11
146.6101098
21
-124.9417309
0
LINE
8
0
10
146.6101098
20
-124.9417309
11
146.8049655
21
-125.0542309
0
LINE
8
0
10
161.6139999
20
-133.6042309
11
161.8088556
21
-133.7167309
0
LINE
8
0
10
158.388695
20
-142.7406229
11
173.5874408
21
-151.5156229
0
LINE
8
0
10
173.5874408
20
-151.5156229
11
182.3624408
21
-136.3168771
0
LINE
8
0
10
182.3624408
20
-136.3168771
11
167.163695
21
-127.5418771
0
LINE
8
0
10
167.163695
20
-127.5418771
11
158.388695
21
-142.7406229
0
LINE
8
0
10
167.913695
20
-126.242839
11
183.1124408
21
-135.017839
0
LINE
8
0
10
183.1124408
20
-135.017839
11
191.8874408
21
-119.8190932
0
LINE
8
0
10
191.8874408
20
-119.8190932
11
176.688695
21
-111.0440932
0
LINE
8
0
10
176.688695
20
-111.0440932
11
167.913695
21
-126.242839
0
LINE
8
0
10
156.9764999
20
-141.6366165
11
161.6139999
21
-133.6042309
0
LINE
8
0
10
170.3889999
20
-118.4054851
11
175.0264999
21
-110.3730995
0
LINE
8
0
10
175.0264999
20
-110.3730995
11
160.2174655
21
-101.8230995
0
LINE
8
0
10
160.2174655
20
-101.8230995
11
155.5799655
21
-109.8554851
0
LINE
8
0
10
146.8049655
20
-125.0542309
11
142.1674655
21
-133.0866165
0
LINE
8
0
10
142.1674655
20
-133.0866165
11
156.9764999
21
-141.6366165
0
ENDSEC
0
EOF