0
SECTION
2
HEADER
9
$INSUNITS
70
4
0
ENDSEC
0
SECTION
2
TABLES
0
TABLE
2
LTYPE
0
LTYPE
72
65
70
64
2
CONTINUOUS
3
______
73
0
40
0
0
ENDTAB
0
TABLE
2
LAYER
0
ENDTAB
0
ENDSEC
0
SECTION
2
ENTITIES
0
LINE
8
0
10
269.1019442
20
-130.575
11
358.525
21
-130.575
0
LINE
8
0
10
361.525
20
-127.575
11
361.525
21
-33.9724824
0
LINE
8
0
10
358.8980683
20
-30.9957694
11
304.710807
21
-24.204537
0
LINE
8
0
10
304.3377387
20
-24.18125
11
281.6622613
21
-24.18125
0
LINE
8
0
10
281.289193
20
-24.204537
11
244.2787123
21
-28.8430216
0
LINE
8
0
10
242.8312044
20
-29.4353054
11
231.80622
21
-37.8531792
0
LINE
8
0
10
229.9856438
20
-38.46875
11
215.8119835
21
-38.46875
0
LINE
8
0
10
214.3721293
20
-38.8368647
11
205.9851458
21
-43.4252239
0
LINE
8
0
10
204.425
20
-46.0571092
11
204.425
21
-117.776712
0
LINE
8
0
10
204.8205901
20
-119.2656879
11
223.9124593
21
-152.6598172
0
LINE
8
0
10
228.0137917
20
-153.7706918
11
267.6050217
21
-130.9751494
0
ARC
8
0
10
358.525
20
-127.575
40
3
50
270
51
0
0
ARC
8
0
10
358.525
20
-33.9724824
40
3
50
0
51
82.8564274
0
ARC
8
0
10
304.3377387
20
-27.18125
40
3
50
82.8564274
51
90
0
ARC
8
0
10
281.6622613
20
-27.18125
40
3
50
90
51
97.1435726
0
ARC
8
0
10
244.6517806
20
-31.8197346
40
3
50
97.1435726
51
127.3627128
0
ARC
8
0
10
229.9856438
20
-35.46875
40
3
50
270
51
307.3627128
0
ARC
8
0
10
215.8119835
20
-41.46875
40
3
50
90
51
118.6822273
0
ARC
8
0
10
207.425
20
-46.0571092
40
3
50
118.6822273
51
180
0
ARC
8
0
10
207.425
20
-117.776712
40
3
50
180
51
209.7571808
0
ARC
8
0
10
226.5168692
20
-151.1708412
40
3
50
209.7571808
51
299.9321551
0
ARC
8
0
10
269.1019442
20
-133.575
40
3
50
90
51
119.9321551
0
LINE
8
0
10
341.225
20
-108.775
11
358.775
21
-108.775
0
LINE
8
0
10
358.775
20
-108.775
11
358.775
21
-91.225
0
LINE
8
0
10
358.775
20
-91.225
11
341.225
21
-91.225
0
LINE
8
0
10
341.225
20
-91.225
11
341.225
21
-108.775
0
LINE
8
0
10
341.225
20
-89.725
11
358.775
21
-89.725
0
LINE
8
0
10
358.775
20
-89.725
11
358.775
21
-72.175
0
LINE
8
0
10
358.775
20
-72.175
11
341.225
21
-72.175
0
LINE
8
0
10
341.225
20
-72.175
11
341.225
21
-89.725
0
LINE
8
0
10
341.225
20
-70.675
11
358.775
21
-70.675
0
LINE
8
0
10
358.775
20
-70.675
11
358.775
21
-53.125
0
LINE
8
0
10
358.775
20
-53.125
11
341.225
21
-53.125
0
LINE
8
0
10
341.225
20
-53.125
11
341.225
21
-70.675
0
LINE
8
0
10
341.225
20
-51.625
11
358.775
21
-51.625
0
LINE
8
0
10
358.775
20
-51.625
11
358.775
21
-34.075
0
LINE
8
0
10
358.775
20
-34.075
11
341.225
21
-34.075
0
LINE
8
0
10
341.225
20
-34.075
11
341.225
21
-51.625
0
LINE
8
0
10
322.225
20
-108.775
11
339.775
21
-108.775
0
LINE
8
0
10
339.775
20
-108.775
11
339.775
21
-91.225
0
LINE
8
0
10
339.775
20
-91.225
11
322.225
21
-91.225
0
LINE
8
0
10
322.225
20
-91.225
11
322.225
21
-108.775
0
LINE
8
0
10
322.225
20
-89.725
11
339.775
21
-89.725
0
LINE
8
0
10
339.775
20
-89.725
11
339.775
21
-72.175
0
LINE
8
0
10
339.775
20
-72.175
11
322.225
21
-72.175
0
LINE
8
0
10
322.225
20
-72.175
11
322.225
21
-89.725
0
LINE
8
0
10
322.225
20
-70.675
11
339.775
21
-70.675
0
LINE
8
0
10
339.775
20
-70.675
11
339.775
21
-53.125
0
LINE
8
0
10
339.775
20
-53.125
11
322.225
21
-53.125
0
LINE
8
0
10
322.225
20
-53.125
11
322.225
21
-70.675
0
LINE
8
0
10
322.225
20
-51.625
11
339.775
21
-51.625
0
LINE
8
0
10
339.775
20
-51.625
11
339.775
21
-34.075
0
LINE
8
0
10
339.775
20
-34.075
11
322.225
21
-34.075
0
LINE
8
0
10
322.225
20
-34.075
11
322.225
21
-51.625
0
LINE
8
0
10
303.225
20
-104.0125
11
320.775
21
-104.0125
0
LINE
8
0
10
320.775
20
-104.0125
11
320.775
21
-86.4625
0
LINE
8
0
10
320.775
20
-86.4625
11
303.225
21
-86.4625
0
LINE
8
0
10
303.225
20
-86.4625
11
303.225
21
-104.0125
0
LINE
8
0
10
303.225
20
-84.9625
11
320.775
21
-84.9625
0
LINE
8
0
10
320.775
20
-84.9625
11
320.775
21
-67.4125
0
LINE
8
0
10
320.775
20
-67.4125
11
303.225
21
-67.4125
0
LINE
8
0
10
303.225
20
-67.4125
11
303.225
21
-84.9625
0
LINE
8
0
10
303.225
20
-65.9125
11
320.775
21
-65.9125
0
LINE
8
0
10
320.775
20
-65.9125
11
320.775
21
-48.3625
0
LINE
8
0
10
320.775
20
-48.3625
11
303.225
21
-48.3625
0
LINE
8
0
10
303.225
20
-48.3625
11
303.225
21
-65.9125
0
LINE
8
0
10
303.225
20
-46.8625
11
320.775
21
-46.8625
0
LINE
8
0
10
320.775
20
-46.8625
11
320.775
21
-29.3125
0
LINE
8
0
10
320.775
20
-29.3125
11
303.225
21
-29.3125
0
LINE
8
0
10
303.225
20
-29.3125
11
303.225
21
-46.8625
0
LINE
8
0
10
284.225
20
-101.63125
11
301.775
21
-101.63125
0
LINE
8
0
10
301.775
20
-101.63125
11
301.775
21
-84.08125
0
LINE
8
0
10
301.775
20
-84.08125
11
284.225
21
-84.08125
0
LINE
8
0
10
284.225
20
-84.08125
11
284.225
21
-101.63125
0
LINE
8
0
10
284.225
20
-82.58125
11
301.775
21
-82.58125
0
LINE
8
0
10
301.775
20
-82.58125
11
301.775
21
-65.03125
0
LINE
8
0
10
301.775
20
-65.03125
11
284.225
21
-65.03125
0
LINE
8
0
10
284.225
20
-65.03125
11
284.225
21
-82.58125
0
LINE
8
0
10
284.225
20
-63.53125
11
301.775
21
-63.53125
0
LINE
8
0
10
301.775
20
-63.53125
11
301.775
21
-45.98125
0
LINE
8
0
10
301.775
20
-45.98125
11
284.225
21
-45.98125
0
LINE
8
0
10
284.225
20
-45.98125
11
284.225
21
-63.53125
0
LINE
8
0
10
284.225
20
-44.48125
11
301.775
21
-44.48125
0
LINE
8
0
10
301.775
20
-44.48125
11
301.775
21
-26.93125
0
LINE
8
0
10
301.775
20
-26.93125
11
284.225
21
-26.93125
0
LINE
8
0
10
284.225
20
-26.93125
11
284.225
21
-44.48125
0
LINE
8
0
10
265.225
20
-104.0125
11
282.775
21
-104.0125
0
LINE
8
0
10
282.775
20
-104.0125
11
282.775
21
-86.4625
0
LINE
8
0
10
282.775
20
-86.4625
11
265.225
21
-86.4625
0
LINE
8
0
10
265.225
20
-86.4625
11
265.225
21
-104.0125
0
LINE
8
0
10
265.225
20
-84.9625
11
282.775
21
-84.9625
0
LINE
8
0
10
282.775
20
-84.9625
11
282.775
21
-67.4125
0
LINE
8
0
10
282.775
20
-67.4125
11
265.225
21
-67.4125
0
LINE
8
0
10
265.225
20
-67.4125
11
265.225
21
-84.9625
0
LINE
8
0
10
265.225
20
-65.9125
11
282.775
21
-65.9125
0
LINE
8
0
10
282.775
20
-65.9125
11
282.775
21
-48.3625
0
LINE
8
0
10
282.775
20
-48.3625
11
265.225
21
-48.3625
0
LINE
8
0
10
265.225
20
-48.3625
11
265.225
21
-65.9125
0
LINE
8
0
10
265.225
20
-46.8625
11
282.775
21
-46.8625
0
LINE
8
0
10
282.775
20
-46.8625
11
282.775
21
-29.3125
0
LINE
8
0
10
282.775
20
-29.3125
11
265.225
21
-29.3125
0
LINE
8
0
10
265.225
20
-29.3125
11
265.225
21
-46.8625
0
LINE
8
0
10
246.225
20
-106.39375
11
263.775
21
-106.39375
0
LINE
8
0
10
263.775
20
-106.39375
11
263.775
21
-88.84375
0
LINE
8
0
10
263.775
20
-88.84375
11
246.225
21
-88.84375
0
LINE
8
0
10
246.225
20
-88.84375
11
246.225
21
-106.39375
0
LINE
8
0
10
246.225
20
-87.34375
11
263.775
21
-87.34375
0
LINE
8
0
10
263.775
20
-87.34375
11
263.775
21
-69.79375
0
LINE
8
0
10
263.775
20
-69.79375
11
246.225
21
-69.79375
0
LINE
8
0
10
246.225
20
-69.79375
11
246.225
21
-87.34375
0
LINE
8
0
10
246.225
20
-68.29375
11
263.775
21
-68.29375
0
LINE
8
0
10
263.775
20
-68.29375
11
263.775
21
-50.74375
0
LINE
8
0
10
263.775
20
-50.74375
11
246.225
21
-50.74375
0
LINE
8
0
10
246.225
20
-50.74375
11
246.225
21
-68.29375
0
LINE
8
0
10
246.225
20
-49.24375
11
263.775
21
-49.24375
0
LINE
8
0
10
263.775
20
-49.24375
11
263.775
21
-31.69375
0
LINE
8
0
10
263.775
20
-31.69375
11
246.225
21
-31.69375
0
LINE
8
0
10
246.225
20
-31.69375
11
246.225
21
-49.24375
0
LINE
8
0
10
227.225
20
-96.86875
11
244.775
21
-96.86875
0
LINE
8
0
10
244.775
20
-96.86875
11
244.775
21
-79.31875
0
LINE
8
0
10
244.775
20
-79.31875
11
227.225
21
-79.31875
0
LINE
8
0
10
227.225
20
-79.31875
11
227.225
21
-96.86875
0
LINE
8
0
10
227.225
20
-77.81875
11
244.775
21
-77.81875
0
LINE
8
0
10
244.775
20
-77.81875
11
244.775
21
-60.26875
0
LINE
8
0
10
244.775
20
-60.26875
11
227.225
21
-60.26875
0
LINE
8
0
10
227.225
20
-60.26875
11
227.225
21
-77.81875
0
LINE
8
0
10
227.225
20
-58.76875
11
244.775
21
-58.76875
0
LINE
8
0
10
244.775
20
-58.76875
11
244.775
21
-41.21875
0
LINE
8
0
10
244.775
20
-41.21875
11
227.225
21
-41.21875
0
LINE
8
0
10
227.225
20
-41.21875
11
227.225
21
-58.76875
0
LINE
8
0
10
341.225
20
-127.825
11
358.775
21
-127.825
0
LINE
8
0
10
358.775
20
-127.825
11
358.775
21
-110.275
0
LINE
8
0
10
358.775
20
-110.275
11
341.225
21
-110.275
0
LINE
8
0
10
341.225
20
-110.275
11
341.225
21
-127.825
0
LINE
8
0
10
322.225
20
-127.825
11
339.775
21
-127.825
0
LINE
8
0
10
339.775
20
-127.825
11
339.775
21
-110.275
0
LINE
8
0
10
339.775
20
-110.275
11
322.225
21
-110.275
0
LINE
8
0
10
322.225
20
-110.275
11
322.225
21
-127.825
0
LINE
8
0
10
303.225
20
-123.0625
11
320.775
21
-123.0625
0
LINE
8
0
10
320.775
20
-123.0625
11
320.775
21
-105.5125
0
LINE
8
0
10
320.775
20
-105.5125
11
303.225
21
-105.5125
0
LINE
8
0
10
303.225
20
-105.5125
11
303.225
21
-123.0625
0
LINE
8
0
10
284.225
20
-120.68125
11
301.775
21
-120.68125
0
LINE
8
0
10
301.775
20
-120.68125
11
301.775
21
-103.13125
0
LINE
8
0
10
301.775
20
-103.13125
11
284.225
21
-103.13125
0
LINE
8
0
10
284.225
20
-103.13125
11
284.225
21
-120.68125
0
LINE
8
0
10
259.4081271
20
-132.4656229
11
274.6068729
21
-123.6906229
0
LINE
8
0
10
274.6068729
20
-123.6906229
11
265.8318729
21
-108.4918771
0
LINE
8
0
10
265.8318729
20
-108.4918771
11
250.6331271
21
-117.2668771
0
LINE
8
0
10
250.6331271
20
-117.2668771
11
259.4081271
21
-132.4656229
0
LINE
8
0
10
229.4161444
20
-118.5179851
11
238.1911444
21
-133.7167309
0
LINE
8
0
10
238.1911444
20
-133.7167309
11
238.3860001
21
-133.6042309
0
LINE
8
0
10
253.1950345
20
-125.0542309
11
253.3898902
21
-124.9417309
0
LINE
8
0
10
253.3898902
20
-124.9417309
11
244.6148902
21
-109.7429851
0
LINE
8
0
10
244.6148902
20
-109.7429851
11
244.4200345
21
-109.8554851
0
LINE
8
0
10
229.6110001
20
-118.4054851
11
229.4161444
21
-118.5179851
0
LINE
8
0
10
226.4125592
20
-151.5156229
11
241.611305
21
-142.7406229
0
LINE
8
0
10
241.611305
20
-142.7406229
11
232.836305
21
-127.5418771
0
LINE
8
0
10
232.836305
20
-127.5418771
11
217.6375592
21
-136.3168771
0
LINE
8
0
10
217.6375592
20
-136.3168771
11
226.4125592
21
-151.5156229
0
LINE
8
0
10
216.8875592
20
-135.017839
11
232.086305
21
-126.242839
0
LINE
8
0
10
232.086305
20
-126.242839
11
223.311305
21
-111.0440932
0
LINE
8
0
10
223.311305
20
-111.0440932
11
208.1125592
21
-119.8190932
0
LINE
8
0
10
208.1125592
20
-119.8190932
11
216.8875592
21
-135.017839
0
LINE
8
0
10
224.9735001
20
-110.3730995
11
229.6110001
21
-118.4054851
0
LINE
8
0
10
238.3860001
20
-133.6042309
11
243.0235001
21
-141.6366165
0
LINE
8
0
10
243.0235001
20
-141.6366165
11
257.8325345
21
-133.0866165
0
LINE
8
0
10
257.8325345
20
-133.0866165
11
253.1950345
21
-125.0542309
0
LINE
8
0
10
244.4200345
20
-109.8554851
11
239.7825345
21
-101.8230995
0
LINE
8
0
10
239.7825345
20
-101.8230995
11
224.9735001
21
-110.3730995
0
ENDSEC
0
EOF