<?xml version="1.0" encoding="UTF-8" standalone="no"?>
<!-- Created with Inkscape (http://www.inkscape.org/) -->

<svg
   version="1.1"
   id="svg1"
   width="177.44"
   height="105.44"
   viewBox="0 0 177.44 105.44"
   sodipodi:docname="SlimDash Logo.svg"
   inkscape:version="1.4 (e7c3feb100, 2024-10-09)"
   xmlns:inkscape="http://www.inkscape.org/namespaces/inkscape"
   xmlns:sodipodi="http://sodipodi.sourceforge.net/DTD/sodipodi-0.dtd"
   xmlns="http://www.w3.org/2000/svg"
   xmlns:svg="http://www.w3.org/2000/svg">
  <defs
     id="defs1" />
  <sodipodi:namedview
     id="namedview1"
     pagecolor="#ffffff"
     bordercolor="#000000"
     borderopacity="0.25"
     inkscape:showpageshadow="2"
     inkscape:pageopacity="0.0"
     inkscape:pagecheckerboard="0"
     inkscape:deskcolor="#d1d1d1"
     showgrid="false"
     inkscape:zoom="5.2494308"
     inkscape:cx="60.292251"
     inkscape:cy="37.337381"
     inkscape:window-width="2560"
     inkscape:window-height="1440"
     inkscape:window-x="0"
     inkscape:window-y="0"
     inkscape:window-maximized="1"
     inkscape:current-layer="g1" />
  <g
     inkscape:groupmode="layer"
     inkscape:label="Image"
     id="g1">
    <path
       style="fill:#000000"
       d="m 103.84,83.840002 v -12.96 h 12.96 12.96 v 12.96 12.96 H 116.8 103.84 Z m 23.84,8.64 v -2.24 h -6.48 -6.48 v -2.08 -2.08 h 2.16 2.16 v -2.16 -2.16 h 2.16 2.16 v -2.16 -2.16 h 2.16 2.16 v -2.24 -2.24 h -10.8 -10.8 v 2.24 2.24 h 6.48 6.48 v 2.08 2.08 h -2.16 -2.16 v 2.16 2.16 h -2.16 -2.16 v 2.16 2.16 h -2.16 -2.16 v 2.24 2.24 h 10.8 10.8 z m 28,-8.64 v -12.96 h 6.48 6.48 v 12.96 12.96 h -6.48 -6.48 z m 8.64,10.807311 v -1.03269 l 1.08,-0.04731 1.08,-0.04731 v -1.04 -1.04 l -1.08,-0.04731 -1.08,-0.04731 v -1.025379 -1.025379 l 1.08,-0.04731 1.08,-0.04731 v -1.04 -1.04 l -1.08,-0.04731 -1.08,-0.04731 v -1.032689 -1.03269 h -3.2 -3.2 v 5.36 5.36 h 3.2 3.2 z M 160,92.480002 v -1.12 h 2.16 2.16 v 1.12 1.12 H 162.16 160 Z m 0,-4.32 v -1.12 h 2.16 2.16 v 1.12 1.12 H 162.16 160 Z m 0,-7.607311 v -2.16731 l 1.08,0.04731 1.08,0.04731 0.0473,1.08 0.0473,1.08 h 1.03269 1.03269 v 1.04 1.04 h 1.12 1.12 v -1.04 -1.04 h -1.12 -1.12 v -1.12 -1.12 h -1.04 -1.04 v -1.04 -1.04 h 1.04 1.04 v -1.12 -1.12 h 1.12 1.12 v -1.04 -1.04 h -1.12 -1.12 v 1.04 1.04 h -1.03269 -1.03269 l -0.0473,1.08 -0.0473,1.08 -1.08,0.04731 -1.08,0.04731 v -2.167311 -2.16731 h -1.04 -1.04 v 5.36 5.36 h 1.04 1.04 z M 66.13516,95.640002 c 0.1207,-0.286 0.518961,-1.22137 0.885024,-2.078601 l 0.66557,-1.5586 -1.510164,-3.3614 -1.510165,-3.361399 h 2.15726 2.157259 l 0.534997,1.155025 0.534997,1.155025 0.516454,-1.155025 0.516453,-1.155025 h 2.075696 c 1.909869,0 2.067375,0.02237 1.971531,0.28 -0.05729,0.154 -1.089473,2.602 -2.293737,5.44 l -2.18957,5.16 h -2.365529 -2.365529 z m 14.024841,-11.8 v -10.72 h 2.16 2.16 v 2.16 2.16 h 2.16 2.16 v 2.08 2.08 h -2.16 -2.16 v 6.48 6.48 h -2.16 -2.16 z m 17.28,4.24 v -6.48 h -2.16 -2.16 v -2.08 -2.08 h 2.16 2.16 v -2.16 -2.16 h 2.16 2.159999 v 10.72 10.72 h -2.159999 -2.16 z M 132,83.840002 v -10.72 h 2.16 2.16 v 2.16 2.16 h 2.16 2.16 v 2.08 2.08 h -2.16 -2.16 v 6.48 6.48 H 134.16 132 Z m 17.24182,4.28 -0.0418,-6.44 -2.12,-0.04464 -2.12,-0.04464 V 79.520002 77.44929 l 2.12,-0.04464 2.12,-0.04464 0.0447,-2.12 0.0446,-2.12 h 2.15536 2.15535 v 10.72 10.72 h -2.15818 -2.15819 z m -95.321819,0.293525 v -5.373525 h 2.16 2.16 v 1.267103 1.267103 l 0.6,-0.165735 c 0.33,-0.09116 1.047134,-0.129872 1.593631,-0.08604 4.237039,0.339842 5.092117,6.212079 1.168165,8.022354 -0.646732,0.298363 -1.083704,0.338675 -4.201796,0.387629 l -3.48,0.05464 z m 5.495893,2.155641 c 0.728785,-0.277084 0.75462,-1.385228 0.04316,-1.851393 -0.285281,-0.186923 -0.477467,-0.207645 -0.79746,-0.08598 -0.391073,0.148686 -0.421596,0.23008 -0.421596,1.124251 0,0.914685 0.01991,0.96396 0.389584,0.96396 0.214271,0 0.56811,-0.06788 0.786309,-0.150834 z M 10.563879,93.033654 C 8.091183,92.340544 6.613977,90.7315 6.4380308,88.539581 6.2514929,86.215712 7.7110528,83.593686 11.017353,80.313061 12.129809,79.209244 13.832,77.673893 14.8,76.90117 c 2.315647,-1.848505 6.648714,-4.732844 9.427156,-6.275258 6.416985,-3.5623 10.128445,-4.306458 6.013445,-1.205712 -1.427198,1.075426 -3.358345,2.25331 -5.270803,3.214876 -3.265652,1.641937 -6.819562,5.125554 -8.13897,7.977987 -0.555425,1.200776 -0.588561,2.972797 -0.07401,3.957853 1.015923,1.944882 3.270616,2.907724 6.426503,2.744368 2.991738,-0.15486 6.419804,-1.29563 8.477565,-2.821111 3.708318,-2.749091 6.244795,-7.039912 7.149349,-12.094171 0.344897,-1.927139 0.390067,-6.271193 0.08402,-8.080001 -0.838232,-4.954082 -2.426186,-8.293147 -5.320318,-11.187279 -1.183977,-1.183977 -2.401513,-2.067085 -6.478105,-4.698724 -5.132099,-3.31302 -5.625722,-6.332045 -1.687656,-10.321791 3.926583,-3.978111 11.422396,-8.223774 17.563913,-9.948281 3.059081,-0.858974 4.262691,-1.031964 7.187916,-1.033087 2.461227,-9.45e-4 2.807394,0.03378 3.638617,0.365037 1.043412,0.415814 1.401383,0.82137 1.401383,1.587671 0,0.664268 -0.294944,1.243175 -1.117706,2.193803 -0.353262,0.408162 -0.642294,0.839615 -0.642294,0.958784 0,0.824495 -5.669169,4.419895 -8.434953,5.349466 -1.215047,0.408374 -1.279486,0.410011 -1.39834,0.03553 -0.143179,-0.451118 0.134358,-1.019056 0.942818,-1.929339 1.097867,-1.23614 0.9298,-1.870512 -0.619059,-2.33665 -1.843759,-0.55489 -4.732158,-0.4284 -7.770467,0.340287 -1.750344,0.442834 -2.139576,0.685186 -2.79595,1.740874 -0.374889,0.602958 -0.488825,0.993334 -0.53658,1.838474 -0.119798,2.120132 0.807798,3.169947 5.588654,6.325009 3.669761,2.42181 5.160205,3.679393 6.604262,5.572444 2.825049,3.703429 4.299363,9.079425 4.048463,14.762473 -0.267522,6.059525 -2.357904,10.794351 -6.668848,15.105296 C 36.624303,84.815699 26.191967,90.714195 18.16,92.745421 c -2.071667,0.52391 -6.196906,0.680441 -7.596121,0.288233 z m 78.236122,-9.193652 v -2.08 h 2.16 2.16 v 2.08 2.08 h -2.16 -2.16 z m 51.839999,0 v -2.08 h 2.16 2.16 v 2.08 2.08 h -2.16 -2.16 z M 49.156735,80.438455 c -0.383502,-0.476024 0.114224,-1.028347 4.923266,-5.463319 5.499471,-5.071695 5.6,-5.175619 5.6,-5.789136 0,-1.283845 1.706133,-4.905255 4.405819,-9.351717 5.175559,-8.5243 12.870112,-19.573698 20.0396,-28.776917 5.4505,-6.996616 7.202442,-8.832816 10.441359,-10.943527 2.649411,-1.726547 6.020581,-3.251586 6.909091,-3.125508 0.28003,0.03974 0.37567,0.171197 0.41408,0.56916 0.0578,0.599158 -1.45167,6.224377 -2.465737,9.18864 -1.625379,4.751228 -4.456702,9.691032 -9.109813,15.89387 -4.127434,5.502083 -7.909357,9.717479 -15.333201,17.090646 -4.045774,4.018156 -5.076711,5.123787 -4.893416,5.247957 0.338325,0.229191 2.633885,0.07746 3.775049,-0.249522 0.764857,-0.219157 1.367283,-0.580125 2.716304,-1.627582 4.180322,-3.245843 13.023649,-11.307028 22.773213,-20.759053 2.705931,-2.623351 4.024121,-3.776059 5.273871,-4.611813 2.79212,-1.867185 6.43796,-3.539785 7.1338,-3.272765 0.25803,0.09901 0.25727,0.131924 -0.0126,0.543762 -0.15796,0.241103 -0.65324,0.87037 -1.1006,1.39837 -2.03967,2.407287 -5.10424,7.36444 -6.01865,9.735568 -0.87957,2.280815 -1.53802,6.210727 -1.15519,6.894792 0.13788,0.246387 0.27806,0.169695 1.18171,-0.646541 0.5639,-0.509348 2.10527,-1.979036 3.42527,-3.265974 1.32,-1.286937 3.22949,-3.062612 4.2433,-3.945944 2.23655,-1.94869 2.56512,-2.316107 4.02272,-4.498226 2.13861,-3.201626 4.7892,-5.416313 8.85398,-7.397895 2.14495,-1.045664 3.35474,-1.425041 3.63872,-1.141063 0.24584,0.245836 -0.0551,1.485663 -0.74947,3.088046 -0.30089,0.694331 -0.46207,1.210155 -0.35816,1.146277 0.1039,-0.06388 0.76605,-0.561314 1.47143,-1.105413 2.44354,-1.884811 5.82572,-3.754468 7.98264,-4.412778 1.06886,-0.326221 1.11223,-0.32765 1.32,-0.0435 0.11817,0.161595 0.21484,0.530672 0.21484,0.820173 v 0.526365 l 2.52,-1.665475 c 3.02866,-2.00165 5.73071,-3.377551 8.15704,-4.153625 2.00775,-0.642185 2.71852,-0.716781 2.87768,-0.302015 0.16815,0.438197 -0.34113,2.545924 -1.07457,4.447224 -1.23612,3.204399 -1.44324,3.780922 -1.58504,4.412035 l -0.14054,0.625486 0.66272,-0.410128 c 1.19261,-0.738063 4.80556,-2.458615 5.58178,-2.658143 2.13202,-0.548044 0.7601,0.981317 -3.49593,3.897106 -3.59168,2.460645 -4.98597,3.317632 -7.22711,4.442058 -3.11515,1.562937 -4.93234,2.00851 -5.3104,1.302105 -0.39021,-0.729125 -0.0823,-2.193149 1.04928,-4.988397 0.70803,-1.749023 1.33869,-3.576653 1.34303,-3.892057 0.005,-0.395163 -1.21061,1.114354 -3.60091,4.469935 -1.44177,2.024 -2.96692,4.095019 -3.38922,4.602265 -1.84056,2.210808 -7.7487,5.694429 -9.68781,5.712228 -0.68022,0.0062 -0.68611,-0.0039 -0.36472,-0.625363 0.32592,-0.630252 2.2016,-5.159889 2.62084,-6.32913 l 0.34421,-0.96 -0.97986,1.04 c -1.47655,1.567173 -2.71881,3.151716 -3.45405,4.405764 -0.81252,1.385847 -1.7918,2.317401 -3.86214,3.673909 -1.8163,1.190053 -4.87961,2.70878 -5.93567,2.942785 -1.2267,0.271817 -1.25819,0.02678 -0.20584,-1.601929 0.77844,-1.204779 0.95778,-1.553966 1.49712,-2.915091 l 0.30692,-0.774561 -1.7234,1.609332 c -5.29043,4.940255 -13.32645,10.168463 -17.521602,11.399497 -1.445994,0.424316 -1.986063,0.327228 -2.355401,-0.423428 -0.550377,-1.118606 -0.306931,-4.213884 0.541579,-6.885857 l 0.392645,-1.23645 -0.590315,0.559486 c -1.237814,1.17317 -5.633886,5.044311 -7.550315,6.64874 -7.836321,6.560546 -14.920454,10.644423 -21.04,12.129187 -0.88,0.213511 -1.772015,0.388296 -1.982256,0.388409 -0.449077,2.44e-4 -1.70375,1.063163 -4.262901,3.611396 -1.8821,1.87407 -3.536563,3.07857 -6.015821,4.379702 -2.401575,1.260364 -3.826884,1.749411 -4.102288,1.407563 z M 76.018033,53.101952 c 4.631844,-5.33962 8.944019,-11.465387 11.250342,-15.981951 1.068183,-2.091865 2.238813,-4.786147 2.127767,-4.897193 -0.06743,-0.06743 -3.562054,4.697105 -5.87116,8.004691 -3.313138,4.745769 -9.757448,14.630817 -10.386796,15.932502 -0.235204,0.486474 0.276511,-0.05691 2.879847,-3.058049 z M 105.19811,30.556945 c -0.20544,-0.332408 1.71749,-1.991196 4.20156,-3.624428 1.82128,-1.197459 2.57494,-1.796794 3.09098,-2.458046 1.15603,-1.48136 2.98107,-3.480543 5.65354,-6.192987 l 2.56022,-2.598517 -2.15221,0.819779 c -1.18371,0.450878 -3.9882,1.558138 -6.2322,2.460577 -4.58389,1.843441 -5.99274,2.316677 -6.89685,2.316677 -0.4918,0 -0.62315,-0.06029 -0.62315,-0.286014 0,-1.204298 7.27006,-5.647205 9.56836,-5.847455 0.3254,-0.02835 2.21164,-0.705627 4.19164,-1.505055 1.98,-0.799428 4.824,-1.921014 6.32,-2.492414 1.496,-0.571399 3.28924,-1.300996 3.98497,-1.6213258 0.69574,-0.3203299 1.78385,-0.7247688 2.41803,-0.8987531 1.65063,-0.4528453 3.45809,-1.2200642 6.48635,-2.7532953 2.58735,-1.3099954 4.19892,-1.8756877 5.34353,-1.8756877 0.43696,0 0.56712,0.065326 0.56712,0.2846221 0,0.7022552 -2.27846,2.5296583 -15.12354,12.1296028 -10.40932,7.779536 -14.0974,10.293392 -18.14394,12.367189 -3.21213,1.646173 -4.93235,2.231914 -5.21441,1.775531 z"
       id="path1" />
  </g>
</svg>
